<?xml version="1.0" encoding="UTF-8" standalone="no"?>
<svg
   xmlns:dc="http://purl.org/dc/elements/1.1/"
   xmlns:cc="http://creativecommons.org/ns#"
   xmlns:rdf="http://www.w3.org/1999/02/22-rdf-syntax-ns#"
   xmlns:svg="http://www.w3.org/2000/svg"
   xmlns="http://www.w3.org/2000/svg"
   xmlns:xlink="http://www.w3.org/1999/xlink"
   xmlns:sodipodi="http://sodipodi.sourceforge.net/DTD/sodipodi-0.dtd"
   xmlns:inkscape="http://www.inkscape.org/namespaces/inkscape"
   inkscape:export-ydpi="165.73"
   inkscape:export-xdpi="165.73"
   inkscape:export-filename="/tmp/kcm.png"
   width="247.84898mm"
   height="99.776688mm"
   viewBox="0 0 247.84898 99.776688"
   version="1.1"
   id="svg8"
   sodipodi:docname="kcm-logo-transparent.svg"
   inkscape:version="1.0beta2 (unknown)">
  <defs
     id="defs2">
    <linearGradient
       gradientTransform="matrix(3.7795276,0,0,3.7795276,173.98028,72.035728)"
       gradientUnits="userSpaceOnUse"
       y2="419.11349"
       x2="209.81"
       y1="-19.185369"
       x1="42.968758"
       id="linearGradient2498"
       xlink:href="#linearGradient2496"
       inkscape:collect="always" />
    <linearGradient
       id="linearGradient2496"
       inkscape:collect="always">
      <stop
         id="stop2492"
         offset="0"
         style="stop-color:#fcd263;stop-opacity:1" />
      <stop
         id="stop2494"
         offset="1"
         style="stop-color:#b87348;stop-opacity:1" />
    </linearGradient>
    <linearGradient
       y2="419.11349"
       x2="209.81"
       y1="-19.185369"
       x1="42.968758"
       gradientTransform="translate(129.35027,-119.93478)"
       gradientUnits="userSpaceOnUse"
       id="linearGradient2703"
       xlink:href="#linearGradient2496"
       inkscape:collect="always" />
    <filter
       height="1.1411124"
       y="-0.070556223"
       width="1.0409333"
       x="-0.020466672"
       id="filter1043"
       style="color-interpolation-filters:sRGB"
       inkscape:collect="always">
      <feGaussianBlur
         id="feGaussianBlur1045"
         stdDeviation="2.0304871"
         inkscape:collect="always" />
    </filter>
  </defs>
  <sodipodi:namedview
     lock-margins="true"
     fit-margin-bottom="0"
     fit-margin-right="0"
     fit-margin-left="0"
     fit-margin-top="0"
     showguides="true"
     id="base"
     pagecolor="#ffffff"
     bordercolor="#666666"
     borderopacity="1.0"
     inkscape:pageopacity="0.0"
     inkscape:pageshadow="2"
     inkscape:zoom="1.1744713"
     inkscape:cx="563.32885"
     inkscape:cy="285.20557"
     inkscape:document-units="mm"
     inkscape:current-layer="layer1"
     inkscape:document-rotation="0"
     showgrid="false"
     inkscape:window-width="1920"
     inkscape:window-height="1053"
     inkscape:window-x="0"
     inkscape:window-y="-10"
     inkscape:window-maximized="1" />
  <metadata
     id="metadata5">
    <rdf:RDF>
      <cc:Work
         rdf:about="">
        <dc:format>image/svg+xml</dc:format>
        <dc:type
           rdf:resource="http://purl.org/dc/dcmitype/StillImage" />
        <dc:title></dc:title>
      </cc:Work>
    </rdf:RDF>
  </metadata>
  <g
     transform="translate(-112.65413,89.712738)"
     inkscape:label="Layer 1"
     inkscape:groupmode="layer"
     id="layer1">
    <g
       id="g152"
       transform="translate(7.3666665e-7,2.8416333e-4)"
       style="fill:#fff9e8;fill-opacity:1;filter:url(#filter1043)">
      <circle
         transform="translate(3.648002,-8.5240106)"
         id="circle127-8-5"
         r="34.533802"
         cy="-20.819296"
         cx="148.4131"
         style="fill:#fff9e8;fill-opacity:1;stroke-width:0.134898" />
      <circle
         style="fill:#fff9e8;fill-opacity:1;stroke-width:0.134898"
         cx="321.09616"
         cy="-29.343582"
         r="34.533802"
         id="circle127-8-3" />
      <circle
         style="fill:#fff9e8;fill-opacity:1;stroke-width:0.134898"
         cx="236.57863"
         cy="-29.343424"
         r="34.533802"
         id="circle127-8-6" />
      <circle
         style="fill:#fff9e8;fill-opacity:1;stroke-width:0.134898"
         cx="152.06111"
         cy="-29.343306"
         r="34.533802"
         id="circle127-8-7" />
    </g>
    <g
       id="g1750"
       transform="matrix(0.13489767,0,0,0.13489767,117.07497,167.62189)" />
    <g
       id="g1752"
       transform="matrix(0.13489767,0,0,0.13489767,117.07497,167.62189)" />
    <g
       id="g1754"
       transform="matrix(0.13489767,0,0,0.13489767,117.07497,167.62189)" />
    <g
       id="g1756"
       transform="matrix(0.13489767,0,0,0.13489767,117.07497,167.62189)" />
    <g
       id="g1758"
       transform="matrix(0.13489767,0,0,0.13489767,117.07497,167.62189)" />
    <g
       id="g1760"
       transform="matrix(0.13489767,0,0,0.13489767,117.07497,167.62189)" />
    <g
       id="g1762"
       transform="matrix(0.13489767,0,0,0.13489767,117.07497,167.62189)" />
    <g
       id="g1764"
       transform="matrix(0.13489767,0,0,0.13489767,117.07497,167.62189)" />
    <g
       id="g1766"
       transform="matrix(0.13489767,0,0,0.13489767,117.07497,167.62189)" />
    <g
       id="g1768"
       transform="matrix(0.13489767,0,0,0.13489767,117.07497,167.62189)" />
    <g
       id="g1770"
       transform="matrix(0.13489767,0,0,0.13489767,117.07497,167.62189)" />
    <g
       id="g1772"
       transform="matrix(0.13489767,0,0,0.13489767,117.07497,167.62189)" />
    <g
       id="g1774"
       transform="matrix(0.13489767,0,0,0.13489767,117.07497,167.62189)" />
    <g
       id="g1776"
       transform="matrix(0.13489767,0,0,0.13489767,117.07497,167.62189)" />
    <g
       id="g1778"
       transform="matrix(0.13489767,0,0,0.13489767,117.07497,167.62189)" />
    <g
       transform="translate(3.6480027,-8.5240094)"
       id="g2738">
      <path
         d="m 137.40776,-19.840481 -0.24753,0.109037 4.12016,1.597835 0.46922,-0.02326 z m 22.24205,0 -0.28164,0.109037 9.22011,4.065384 0.33383,9.63972 c 5.44903,4.83864 -6.91128,7.09196 -19.81584,7.12928 13.09272,0.0235 25.86849,-2.22452 20.34501,-7.12928 l -0.33383,-9.63972 z m -15.38614,1.585433 -0.49351,0.02429 c 1.59355,1.143569 3.14231,1.70338 4.65398,1.629873 -1.35497,-0.06615 -2.73985,-0.627401 -4.16047,-1.654163 z m 8.53075,0 c -0.0105,0.0088 -0.021,0.01603 -0.0315,0.02479 l 1.95595,0.09663 0.0599,-0.02326 z m -13.94644,3.773414 c -0.32321,0 -0.5855,0.225494 -0.58549,0.504362 -1e-5,0.278865 0.26228,0.505394 0.58549,0.505394 0.0957,0 0.18484,-0.02164 0.26458,-0.05684 -0.18964,-0.08364 -0.32091,-0.252273 -0.32091,-0.448551 0,-0.196281 0.13127,-0.364519 0.32091,-0.448035 -0.0797,-0.03514 -0.16886,-0.05633 -0.26458,-0.05633 z m 18.30328,0 c -0.32321,0 -0.58498,0.225494 -0.58498,0.504362 0,0.278865 0.26177,0.505394 0.58498,0.505394 0.0957,0 0.18483,-0.02164 0.26458,-0.05684 -0.18953,-0.08364 -0.32039,-0.252273 -0.32039,-0.448551 0,-0.196281 0.13086,-0.364519 0.32039,-0.448035 -0.0797,-0.03514 -0.16886,-0.05633 -0.26458,-0.05633 z m -22.15007,0.06718 c -0.32322,0 -0.5855,0.226012 -0.5855,0.50488 0,0.278866 0.26228,0.504878 0.5855,0.504878 0.0958,0 0.1848,-0.02167 0.26458,-0.05684 -0.18944,-0.08358 -0.32091,-0.251894 -0.32091,-0.448035 0,-0.196186 0.13141,-0.36435 0.32091,-0.448035 -0.0797,-0.0352 -0.16886,-0.05684 -0.26458,-0.05684 z m 25.99686,0 c -0.32321,0 -0.58549,0.226012 -0.58549,0.50488 0,0.278866 0.26228,0.504878 0.58549,0.504878 0.0958,0 0.18481,-0.02167 0.26458,-0.05684 -0.18958,-0.08354 -0.32091,-0.251801 -0.32091,-0.448035 0,-0.196281 0.13126,-0.364392 0.32091,-0.448035 -0.0797,-0.0352 -0.16886,-0.05684 -0.26458,-0.05684 z m -12.95683,0.68833 c -0.35619,0 -0.64492,0.248711 -0.64492,0.556037 0,0.307327 0.28873,0.556554 0.64492,0.556554 0.0945,0 0.18374,-0.01863 0.26458,-0.05012 -0.22379,-0.08731 -0.38034,-0.280766 -0.38034,-0.506429 0,-0.225663 0.15655,-0.419121 0.38034,-0.506428 -0.0808,-0.0315 -0.17008,-0.04961 -0.26458,-0.04961 z m -4.66793,0.115755 c -0.32321,0 -0.5855,0.22601 -0.5855,0.504878 0,0.278868 0.26229,0.504878 0.5855,0.504878 0.0957,0 0.18483,-0.0217 0.26458,-0.05684 -0.18965,-0.08352 -0.32091,-0.251757 -0.32091,-0.448038 0,-0.196281 0.13126,-0.364519 0.32091,-0.448035 -0.0797,-0.03514 -0.16886,-0.05684 -0.26458,-0.05684 z m 9.25266,0 c -0.32322,0 -0.58498,0.22601 -0.58498,0.504878 0,0.278868 0.26176,0.504878 0.58498,0.504878 0.0957,0 0.18488,-0.02175 0.26458,-0.05684 -0.1895,-0.08356 -0.32039,-0.251849 -0.32039,-0.448035 0,-0.196186 0.13089,-0.364477 0.32039,-0.448035 -0.0797,-0.0351 -0.16892,-0.05684 -0.26458,-0.05684 z m -20.60804,0.494543 c -0.32322,0 -0.5855,0.226528 -0.5855,0.505394 0,0.278868 0.26228,0.504881 0.5855,0.504881 0.0957,0 0.18484,-0.0217 0.26458,-0.05685 -0.18965,-0.08352 -0.32091,-0.251754 -0.32091,-0.448035 0,-0.196279 0.13126,-0.364908 0.32091,-0.448551 -0.0797,-0.0352 -0.16886,-0.05684 -0.26458,-0.05684 z m 31.96394,0 c -0.32322,0 -0.5855,0.226528 -0.5855,0.505394 0,0.278868 0.26228,0.504881 0.5855,0.504881 0.0957,0 0.18436,-0.02175 0.26406,-0.05685 -0.1895,-0.08356 -0.32039,-0.251847 -0.32039,-0.448035 0,-0.196186 0.13089,-0.364863 0.32039,-0.448551 -0.0797,-0.03515 -0.16841,-0.05684 -0.26406,-0.05684 z m -25.10183,0.463537 c -0.55456,0.01326 -0.62218,0.722953 -0.62218,0.722953 l -0.045,3.149679 1.24902,0.440283 c 0.001,-0.06183 0.002,-0.123688 0.003,-0.185518 l -0.72244,-0.254765 0.045,-3.149679 c 0,0 0.0446,-0.466101 0.35657,-0.65009 -0.073,-0.04747 -0.16003,-0.07534 -0.26355,-0.07286 z m 18.2392,0 c -0.55451,-0.01326 -0.63407,0.852662 -0.63407,0.852662 0,0 0.0316,2.342954 0.0527,3.460253 l 0.52658,-0.185518 c -0.0209,-1.172044 -0.0501,-3.274735 -0.0501,-3.274735 0,0 0.0525,-0.572968 0.37052,-0.779799 -0.073,-0.04297 -0.16056,-0.07035 -0.26562,-0.07286 z m -22.15007,0.06718 c -0.55451,-0.01326 -0.63407,0.85266 -0.63407,0.85266 0,0 0.0316,2.234954 0.0527,3.352249 h 0.52916 c -0.0211,-1.117295 -0.0527,-3.352249 -0.0527,-3.352249 0,0 0.053,-0.572966 0.37104,-0.779796 -0.0731,-0.0431 -0.1609,-0.07035 -0.26613,-0.07286 z m 26.06094,0 c -0.55453,0.01326 -0.6227,0.722953 -0.6227,0.722953 l -0.0326,3.481956 h 0.52917 l 0.0326,-3.481956 c 0,0 0.0452,-0.466101 0.35708,-0.650089 -0.073,-0.04747 -0.16004,-0.07534 -0.26355,-0.07286 z m -17.62528,0.804085 c -0.55456,0.01326 -0.6227,0.723469 -0.6227,0.723469 l -0.002,2.523878 0.52916,-0.0036 0.002,-2.52026 c 0,0 0.0448,-0.466246 0.35709,-0.650089 -0.0729,-0.04732 -0.1597,-0.07585 -0.26303,-0.07338 z m 9.1891,0 v 5.29e-4 c -0.55451,-0.01326 -0.63458,0.853178 -0.63458,0.853178 0,0 0.0218,1.268603 0.0429,2.385901 l 1.21698,0.0078 v -0.0036 l -0.68782,-0.0041 c -0.0211,-1.117298 -0.0429,-2.385901 -0.0429,-2.385901 0,0 0.053,-0.573802 0.37156,-0.780314 -0.0731,-0.0431 -0.1609,-0.07086 -0.26614,-0.07338 z m -4.59197,0.01241 c -0.6881,0.0114 -0.77256,0.622702 -0.77256,0.622702 l -0.003,2.170927 0.52917,-0.0026 0.003,-2.168343 c 0,0 0.0648,-0.44395 0.51211,-0.580842 -0.078,-0.02694 -0.16616,-0.04356 -0.26872,-0.04186 z m -18.86396,0.03876 c -0.32321,0 -0.58549,0.226009 -0.58549,0.504878 0,0.278868 0.26228,0.504877 0.58549,0.504877 0.0957,0 0.18484,-0.02164 0.26458,-0.05684 -0.18974,-0.08362 -0.32091,-0.2517 -0.32091,-0.448034 0,-0.196335 0.13117,-0.365062 0.32091,-0.448551 -0.0797,-0.03514 -0.16886,-0.05633 -0.26458,-0.05633 z m 37.72379,0 c -0.32321,0 -0.58549,0.226009 -0.58549,0.504878 0,0.278868 0.26228,0.504877 0.58549,0.504877 0.0958,0 0.18477,-0.02156 0.26459,-0.05684 -0.18974,-0.08362 -0.32091,-0.2517 -0.32091,-0.448034 0,-0.196335 0.13117,-0.365062 0.32091,-0.448551 -0.0798,-0.03522 -0.16876,-0.05633 -0.26459,-0.05633 z m -34.8759,0.443383 c -0.5545,-0.01326 -0.63459,0.853178 -0.63459,0.853178 0,0 0.0316,1.810179 0.0527,2.927463 l 0.52813,-0.06924 c -0.0211,-1.121497 -0.0517,-2.858222 -0.0517,-2.858222 0,0 0.053,-0.572968 0.37103,-0.779798 -0.073,-0.04309 -0.16038,-0.07086 -0.26561,-0.07338 z m 32.02802,0 c -0.55452,0.01326 -0.6227,0.723469 -0.6227,0.723469 l -0.0424,2.89388 1.24643,0.163292 c 5.3e-4,-0.0264 5.3e-4,-0.04207 10e-4,-0.06924 l -0.7183,-0.09405 0.0424,-2.89388 c 0,0 0.0448,-0.466246 0.35708,-0.650089 -0.073,-0.04747 -0.16003,-0.07586 -0.26355,-0.07338 z m -34.90795,1.385962 c -0.5545,-0.01326 -0.63459,0.852662 -0.63459,0.852662 0,0 0.0316,2.234947 0.0527,3.352247 l 0.52504,-0.24805 c -0.0208,-1.17076 -0.0486,-3.104197 -0.0486,-3.104197 0,0 0.053,-0.572969 0.37104,-0.779799 -0.0731,-0.04309 -0.16039,-0.07035 -0.26562,-0.07286 z m 37.78787,0 c -0.55451,0.01325 -0.6227,0.723468 -0.6227,0.723468 l -0.0424,2.893361 1.24644,0.58808 c 0.002,-0.0827 0.002,-0.1545 0.004,-0.24805 l -0.7214,-0.34003 0.0424,-2.893361 c 0,0 0.0448,-0.466759 0.35708,-0.650605 -0.073,-0.04747 -0.16004,-0.07534 -0.26355,-0.07286 z"
         style="fill:#f2c95f;fill-opacity:1;fill-rule:evenodd;stroke:none;stroke-width:0.219224px;stroke-linecap:butt;stroke-linejoin:miter;stroke-opacity:1"
         id="path2256"
         inkscape:connector-curvature="0" />
      <circle
         id="circle127-8"
         r="34.533802"
         cy="-20.819296"
         cx="148.4131"
         style="fill:#917c6f;stroke-width:0.134898" />
      <path
         inkscape:connector-curvature="0"
         d="m 148.84354,-42.528301 -0.48783,0.198953 -0.0615,-0.150894 -0.11524,0.223242 -0.11421,0.04651 0.0398,0.09767 -0.62735,1.214395 -0.53175,0.172082 0.10387,0.697116 0.75499,1.390613 0.32401,3.218924 -0.43511,0.761711 -2.61793,18.920809 c -7.16834,0.0061 -13.23919,0.435288 -16.30908,2.020031 l -0.5116,7.436757 -2.2381,2.8034456 5.13043,12.5651232 c 5.24963,3.0306402 11.2045,4.6261152 17.26613,4.6260752 10.5103,-9e-5 20.4485,-4.7866032 27.00094,-13.00437355 L 168.92035,-15.195086 c -3.01594,-0.03746 -6.17965,-0.131903 -9.35292,-0.22996 l -0.71158,-1.743046 0.45423,-0.185521 -9.83195,-24.081216 -0.16124,0.06563 z"
         inkscape:transform-center-y="3.8519086"
         inkscape:transform-center-x="-22.770583"
         style="opacity:0.355;fill:#000000;fill-opacity:1;stroke:none;stroke-width:5.817;stroke-linecap:round;stroke-linejoin:round;stroke-miterlimit:4;stroke-dasharray:none;stroke-opacity:1"
         id="rect2068" />
      <path
         inkscape:connector-curvature="0"
         id="path1785"
         style="fill:#ffd464;fill-opacity:1;fill-rule:evenodd;stroke:none;stroke-width:0.219224px;stroke-linecap:butt;stroke-linejoin:miter;stroke-opacity:1"
         d="m 137.40785,-19.840609 -9.46761,4.174758 -0.33353,9.639341 c -12.32225,8.95176 53.15985,10.04791 41.84441,0 l -0.33352,-9.639341 -9.46761,-4.174758 -4.40176,1.707026 -2.45388,-0.121432 c -2.71678,2.287226 -5.54639,2.15705 -8.53087,0 l -2.45387,0.121432 z m 1.96943,5.358752 c 0.32322,0 0.58505,0.225952 0.58505,0.50482 0,0.278867 -0.26183,0.505255 -0.58505,0.505255 -0.32321,0 -0.58546,-0.226388 -0.58545,-0.505255 -1e-5,-0.278868 0.26224,-0.50482 0.58545,-0.50482 z m 18.30327,0 c 0.32321,0 0.58504,0.225952 0.58504,0.50482 0,0.278867 -0.26183,0.505255 -0.58504,0.505255 -0.32321,0 -0.58504,-0.226388 -0.58504,-0.505255 0,-0.278868 0.26183,-0.50482 0.58504,-0.50482 z m -22.14999,0.06722 c 0.32321,0 0.58504,0.226389 0.58504,0.505256 0,0.278867 -0.26183,0.504828 -0.58504,0.504828 -0.32322,0 -0.58547,-0.225961 -0.58547,-0.504828 0,-0.278867 0.26225,-0.505256 0.58547,-0.505256 z m 25.99672,0 c 0.32321,0 0.58504,0.226389 0.58504,0.505256 0,0.278867 -0.26183,0.504828 -0.58504,0.504828 -0.32321,0 -0.58547,-0.225961 -0.58547,-0.504828 0,-0.278867 0.26226,-0.505256 0.58547,-0.505256 z m -12.95672,0.688281 c 0.35619,0 0.64464,0.249099 0.64464,0.556425 0,0.307326 -0.28845,0.556433 -0.64464,0.556433 -0.35619,0 -0.64508,-0.249107 -0.64508,-0.556433 0,-0.307326 0.28889,-0.556425 0.64508,-0.556425 z m -4.66808,0.116228 c 0.32322,0 0.58504,0.225952 0.58504,0.504819 0,0.278868 -0.26182,0.50482 -0.58504,0.50482 -0.32321,0 -0.58546,-0.225952 -0.58546,-0.50482 0,-0.278867 0.26225,-0.504819 0.58546,-0.504819 z m 9.25287,0 c 0.32322,0 0.58504,0.225952 0.58504,0.504819 0,0.278868 -0.26182,0.50482 -0.58504,0.50482 -0.32321,0 -0.58546,-0.225952 -0.58546,-0.50482 0,-0.278867 0.26225,-0.504819 0.58546,-0.504819 z m -20.60833,0.494413 c 0.32321,0 0.58504,0.226388 0.58504,0.505255 0,0.278868 -0.26183,0.50482 -0.58504,0.50482 -0.32322,0 -0.58547,-0.225952 -0.58547,-0.50482 0,-0.278867 0.26225,-0.505255 0.58547,-0.505255 z m 31.9638,0 c 0.32321,0 0.58504,0.226388 0.58504,0.505255 0,0.278868 -0.26183,0.50482 -0.58504,0.50482 -0.32321,0 -0.58546,-0.225952 -0.58546,-0.50482 0,-0.278867 0.26225,-0.505255 0.58546,-0.505255 z m -25.10141,0.463184 c 0.55452,-0.01326 0.63408,0.853084 0.63408,0.853084 -0.0158,1.153361 -0.0317,2.306747 -0.0524,3.460025 l -1.24913,-0.440197 0.0448,-3.149509 c 0,0 0.0681,-0.710143 0.62266,-0.723403 z m 18.23901,0 c 0.55451,0.01326 0.62266,0.723403 0.62266,0.723403 l 0.0444,3.149509 -1.2487,0.440197 c -0.0211,-1.117299 -0.0524,-3.460025 -0.0524,-3.460025 0,0 0.0796,-0.866345 0.63407,-0.853084 z m -22.14999,0.06722 c 0.55451,0.01326 0.62266,0.723403 0.62266,0.723403 l 0.033,3.481719 h -1.2373 c -0.0211,-1.117298 -0.0528,-3.352038 -0.0528,-3.352038 0,0 0.08,-0.866344 0.63451,-0.853084 z m 26.06097,0 c 0.5545,-0.01326 0.6345,0.853084 0.6345,0.853084 h -4.3e-4 c 0,0 -0.0313,2.23474 -0.0524,3.352038 h -1.23729 l 0.033,-3.481719 c 0,0 0.0681,-0.710143 0.62266,-0.723403 z m -17.62479,0.804508 c 0.55449,-0.01326 0.63408,0.853076 0.63408,0.853076 0,0 -0.0212,1.268902 -0.0423,2.3862 l -1.21701,0.0076 0.002,-2.523677 c 0,0 0.0681,-0.710143 0.62266,-0.723403 z m 9.18862,0 c 0.55452,0.01326 0.62266,0.723403 0.62266,0.723403 l 0.002,2.523678 -1.21701,-0.0076 c -0.0211,-1.117299 -0.0427,-2.386191 -0.0427,-2.386191 0,0 0.08,-0.866345 0.6345,-0.853085 z m -4.59198,0.01217 c 0.68807,-0.01141 0.78709,0.733809 0.78709,0.733809 -0.0176,0.682674 -0.034,1.369268 -0.0528,2.053125 l -1.50995,0.0067 0.003,-2.17109 c 0,0 0.0842,-0.610935 0.77231,-0.622349 z m -18.86421,0.03861 c 0.32321,0 0.58504,0.225952 0.58504,0.50482 0,0.278867 -0.26183,0.505256 -0.58504,0.505256 -0.32321,0 -0.58547,-0.226389 -0.58547,-0.505256 0,-0.278868 0.26226,-0.50482 0.58547,-0.50482 z m 37.72376,0 c 0.32321,0 0.58504,0.225952 0.58504,0.50482 0,0.278867 -0.26183,0.505256 -0.58504,0.505256 -0.32322,0 -0.58547,-0.226389 -0.58547,-0.505256 0,-0.278868 0.26225,-0.50482 0.58547,-0.50482 z m -34.87591,0.443672 c 0.55452,0.01326 0.62266,0.723403 0.62266,0.723403 l 0.0423,2.894057 -1.24659,0.163071 c -0.0211,-1.117294 -0.0528,-2.927447 -0.0528,-2.927447 0,0 0.08,-0.866345 0.6345,-0.853084 z m 32.02806,0 c 0.55449,-0.01326 0.63449,0.853084 0.63449,0.853084 0,0 -0.0317,1.810153 -0.0528,2.927447 l -1.24659,-0.163071 0.0423,-2.894057 c 0,0 0.0681,-0.710143 0.62266,-0.723403 z m -34.90804,1.385658 c 0.55452,0.01326 0.62266,0.723411 0.62266,0.723411 l 0.0423,2.893622 -1.24659,0.58809 c -0.0211,-1.1173 -0.0528,-3.352039 -0.0528,-3.352039 0,0 0.08,-0.866345 0.6345,-0.853084 z m 37.78801,0 c 0.5545,-0.01326 0.6345,0.853084 0.6345,0.853084 0,0 -0.0317,2.234739 -0.0528,3.352039 l -1.24659,-0.58809 0.0423,-2.893622 c 0,0 0.0682,-0.710151 0.62266,-0.723411 z" />
      <path
         inkscape:connector-curvature="0"
         d="m 148.37918,-42.742441 c -0.16803,0.005 -0.33891,0.08672 -0.45475,0.211358 -0.14036,0.199482 -0.15751,0.497333 0.0295,0.671789 0.13868,0.295014 -0.34284,0.226909 -0.49971,0.347786 -0.21122,0.131914 -0.32076,0.385117 -0.49558,0.561721 -0.13724,0.183176 -0.24554,0.420441 -0.19327,0.655776 0.008,0.284843 0.35588,0.386787 0.5209,0.587562 -0.0211,0.115221 -0.0419,0.230492 -0.063,0.345713 0.04,0.456571 0.14984,0.908853 0.22583,1.362193 0.0966,0.444838 0.28038,0.865933 0.41755,1.299148 l -0.46923,0.355533 -0.0491,1.31981 0.17467,1.116216 -2.49752,11.068051 -1.13275,0.449588 v 1.147218 h 0.44907 l -0.0786,2.987936 c 2.98448,2.157049 5.81448,2.287218 8.53126,0 l -0.0786,-2.987936 h 0.44907 v -1.147218 l -1.13274,-0.449588 -2.49752,-11.068051 0.17466,-1.116216 -0.0491,-1.31981 -0.15193,-0.115247 c 0.0927,0.01242 0.18535,0.02484 0.27802,0.03718 0.004,-0.611304 0.009,-1.222691 0.0129,-1.833995 -0.0483,-0.414642 -0.22234,-0.812381 -0.22479,-1.235583 -0.0221,-0.263131 0.10416,-0.518583 0.0315,-0.779281 -0.0301,-0.324212 -0.0347,-0.653358 -0.11369,-0.97152 -0.0363,-0.299026 -0.3939,-0.411225 -0.64647,-0.442865 -0.22641,0.03726 -0.13213,-0.205491 -0.0289,-0.277508 0.10331,-0.228487 0.10618,-0.579823 -0.1509,-0.700726 -0.0863,-0.05841 -0.18599,-0.08233 -0.2868,-0.07906 z m -1.01182,2.167826 c 0.20668,0.10724 0.20912,0.209595 0.10231,0.408246 -0.14942,-0.05287 -0.21539,-0.267889 -0.10231,-0.408246 z m 1.42213,0.542602 c -0.0176,0.682658 -0.0352,1.365273 -0.0527,2.047939 0.0144,0.444737 -0.0766,0.879378 -0.14624,1.315681 h -0.22945 c 0.0144,-0.682389 0.029,-1.365038 0.0434,-2.047418 0.0954,-0.09254 0.2943,-0.04649 0.24391,-0.242368 0.004,-0.127181 0.0526,-0.26888 -0.0656,-0.362247 -0.12508,-0.109414 -0.19099,-0.236879 -0.1235,-0.395331 -0.005,-0.182076 0.1672,-0.301065 0.33021,-0.316256 z m -0.17415,6.793381 c 0.29802,0 0.5395,0.223929 0.5395,0.500228 0,0.276308 -0.24147,0.500749 -0.5395,0.500749 -0.29802,0 -0.5395,-0.224441 -0.5395,-0.500749 0,-0.276299 0.24148,-0.500228 0.5395,-0.500228 z m 0.0145,1.770439 c 0.44852,-0.0059 0.51315,0.375171 0.51315,0.375171 h 5.1e-4 c 0,0 -0.0175,0.558482 -0.0346,1.050066 l -0.98443,0.0034 0.002,-1.110005 c 0,0 0.0548,-0.312454 0.50333,-0.318329 z m 0.0579,2.731611 c 0.44852,-0.0076 0.51315,0.476981 0.51315,0.476981 -0.0102,0.443747 -0.0222,0.889021 -0.0341,1.333247 l -0.98444,0.0042 0.002,-1.410248 c 0,0 0.0547,-0.396564 0.50333,-0.404117 z m -0.0196,2.968297 c 0.62313,-0.01032 0.71313,0.661978 0.71313,0.661978 0,0 -0.0238,0.984889 -0.0475,1.852082 l -1.36736,0.0059 0.002,-1.958533 c 0,0 0.0765,-0.550886 0.6997,-0.561209 z m -0.0481,4.600234 c 0.74678,-0.01343 0.85421,0.864037 0.85421,0.864037 0,0 -0.029,1.285057 -0.0574,2.416388 l -1.63866,0.0076 0.003,-2.555402 c 0,0 0.0919,-0.718829 0.83871,-0.732257 z"
         style="fill:#f5f5f5;fill-opacity:1;fill-rule:evenodd;stroke:none;stroke-width:0.219224px;stroke-linecap:butt;stroke-linejoin:miter;stroke-opacity:1"
         id="path1706-2" />
      <path
         inkscape:connector-curvature="0"
         d="m 148.37918,-42.742441 c -0.0898,0.0027 -0.17993,0.02844 -0.26252,0.06976 0.007,0.0039 0.0138,0.005 0.0202,0.0093 0.25708,0.120904 0.25421,0.472247 0.1509,0.700733 -0.10319,0.07202 -0.19747,0.314767 0.0289,0.277503 0.25258,0.03164 0.61014,0.143841 0.64647,0.442867 0.079,0.318162 0.0835,0.647306 0.11369,0.971516 0.0726,0.260699 -0.0536,0.516149 -0.0315,0.779283 0.002,0.423201 0.17654,0.820941 0.22479,1.235583 -0.004,0.611304 -0.009,1.222692 -0.0129,1.833996 -0.0927,-0.01233 -0.18531,-0.02479 -0.27802,-0.03721 l 0.15193,0.115239 0.0491,1.319816 -0.17466,1.116211 2.49752,11.068057 1.13275,0.449586 v 1.147217 h -0.44907 l 0.0785,2.987932 c -1.25473,1.056333 -2.53402,1.590609 -3.84111,1.654161 1.4917,0.07282 2.94669,-0.455665 4.37028,-1.654161 l -0.0786,-2.987914 h 0.44907 v -1.147217 l -1.13275,-0.449586 -2.49752,-11.068057 0.17467,-1.116211 -0.0491,-1.319816 -0.15193,-0.115239 c 0.0927,0.01241 0.18534,0.02487 0.27802,0.03721 0.004,-0.611304 0.009,-1.222692 0.0129,-1.833996 -0.0482,-0.414642 -0.22234,-0.812382 -0.2248,-1.235583 -0.0221,-0.263134 0.10416,-0.518584 0.0315,-0.779283 -0.0301,-0.32421 -0.0347,-0.653354 -0.11369,-0.971516 -0.0363,-0.299026 -0.39389,-0.411228 -0.64647,-0.442867 -0.22641,0.03726 -0.13213,-0.205486 -0.0289,-0.277503 0.10332,-0.228486 0.10618,-0.579829 -0.1509,-0.700733 -0.0862,-0.05841 -0.18598,-0.08234 -0.2868,-0.07906 z m -1.54099,2.167826 c -0.11307,0.140357 -0.0471,0.35537 0.10232,0.408242 0.1068,-0.198649 0.10437,-0.301003 -0.10232,-0.408242 z m 1.42213,0.542603 c -0.16301,0.01519 -0.33471,0.134183 -0.33021,0.316259 -0.0675,0.158451 -0.002,0.285911 0.12351,0.395324 0.11822,0.09337 0.0699,0.235072 0.0656,0.362252 0.0504,0.195874 -0.14856,0.149825 -0.24392,0.242363 -0.0135,0.641218 -0.0273,1.282661 -0.0408,1.923913 0.0103,0.03093 0.0222,0.06146 0.032,0.0925 l -0.0346,0.02635 c -3e-5,0.0016 4e-5,0.0031 0,0.0047 h 0.22945 c 0.0696,-0.436303 0.16064,-0.870945 0.14624,-1.315683 0.0175,-0.682665 0.0351,-1.365279 0.0527,-2.047936 z m -0.17415,6.793383 c -0.29801,0 -0.5395,0.223927 -0.5395,0.500227 0,0.276309 0.24148,0.500745 0.5395,0.500745 0.0967,0 0.1861,-0.0258 0.26459,-0.06718 -0.16335,-0.08613 -0.27492,-0.246936 -0.27492,-0.433567 0,-0.186656 0.11152,-0.347602 0.27492,-0.433565 -0.0785,-0.04128 -0.1679,-0.06666 -0.26459,-0.06666 z m 0.0145,1.770433 v 5.29e-4 c -0.44858,0.0059 -0.50332,0.318326 -0.50332,0.318326 l -0.002,1.110011 0.52916,-0.0021 0.002,-1.107943 c 0,0 0.031,-0.175109 0.23461,-0.265615 -0.0679,-0.03272 -0.15248,-0.05464 -0.26045,-0.05323 z m 0.0579,2.731616 c -0.44858,0.0075 -0.50333,0.404112 -0.50333,0.404112 l -0.002,1.41025 0.52917,-0.0021 0.002,-1.408181 c 0,0 0.031,-0.221927 0.2341,-0.336931 -0.0679,-0.04143 -0.15221,-0.06899 -0.25994,-0.06718 z m -0.0196,2.968295 c -0.62316,0.01032 -0.69969,0.561207 -0.69969,0.561207 l -0.002,1.958536 0.52916,-0.0021 0.002,-1.956469 c 0,0 0.0584,-0.381439 0.44029,-0.513665 -0.0767,-0.03039 -0.16504,-0.04928 -0.26976,-0.04754 z m -0.0481,4.600236 v 5.29e-4 c -0.74682,0.01341 -0.83871,0.732253 -0.83871,0.732253 l -0.003,2.555401 0.52917,-0.0026 0.003,-2.552816 c 0,0 0.0699,-0.541528 0.57723,-0.692981 -0.0788,-0.02627 -0.16696,-0.0416 -0.26769,-0.03979 z"
         style="fill:#e6e6e6;fill-opacity:1;fill-rule:evenodd;stroke:none;stroke-width:0.219224px;stroke-linecap:butt;stroke-linejoin:miter;stroke-opacity:1"
         id="path2206" />
      <g
         aria-label="Kassel"
         id="text2095"
         style="font-style:normal;font-variant:normal;font-weight:normal;font-stretch:normal;font-size:14.1111px;line-height:1.35;font-family:'Iosevka Term';-inkscape-font-specification:'Iosevka Term';text-align:center;letter-spacing:0px;word-spacing:0px;text-anchor:middle;fill:#000000;fill-opacity:1;stroke:none;stroke-width:0.264583">
        <path
           inkscape:connector-curvature="0"
           d="m 128.19894,-70.81707 v -10.371659 h 1.12888 v 4.797774 q 0.14112,-0.155222 0.28223,-0.324555 0.29633,-0.324555 0.57855,-0.663222 0.28222,-0.352777 0.55033,-0.705555 0.26812,-0.352777 0.52212,-0.719666 0.254,-0.366888 0.47977,-0.747888 0.22578,-0.381 0.42334,-0.776111 0.21166,-0.409221 0.21166,-0.860777 h 1.18533 q 0,0.493889 -0.22577,0.959555 -0.22578,0.451555 -0.46567,0.874888 -0.23989,0.423333 -0.52211,0.832555 -0.28222,0.409222 -0.57856,0.804333 -0.16933,0.225778 -0.33866,0.451555 2.24366,4.811885 2.24366,6.448773 h -1.12888 q 0,-1.439332 -1.89089,-5.503329 l -0.11289,0.155222 q -0.32456,0.366889 -0.64911,0.733777 -0.28222,0.310444 -0.56445,0.606778 v 4.007552 z"
           style="font-style:normal;font-variant:normal;font-weight:normal;font-stretch:normal;font-family:'Iosevka Term';-inkscape-font-specification:'Iosevka Term';text-align:center;text-anchor:middle;stroke-width:0.264583"
           id="path90" />
        <path
           inkscape:connector-curvature="0"
           d="m 137.31471,-70.704181 q -0.43745,0 -0.86078,-0.141111 -0.42333,-0.141111 -0.73378,-0.465667 -0.31044,-0.324555 -0.45155,-0.747888 -0.127,-0.423333 -0.127,-0.860777 0,-0.437444 0.15522,-0.846666 0.15522,-0.423333 0.47978,-0.719666 0.32455,-0.310444 0.71966,-0.479777 0.40923,-0.183445 0.83256,-0.254 0.43744,-0.07056 0.87489,-0.07056 h 1.28411 v -0.64911 q 0,-0.310445 -0.11289,-0.592667 -0.11289,-0.296333 -0.35278,-0.493888 -0.22578,-0.197555 -0.52211,-0.282222 -0.29633,-0.08467 -0.60678,-0.08467 -0.35278,0 -0.70555,0.127 -0.35278,0.112889 -0.59267,0.409222 -0.23989,0.296333 -0.28222,0.649111 l -1.08656,-0.254 q 0.0847,-0.592666 0.49389,-1.072444 0.40922,-0.493888 0.98778,-0.677333 0.59267,-0.197555 1.18533,-0.197555 0.52211,0 1.03011,0.141111 0.508,0.141111 0.90311,0.479777 0.40923,0.338667 0.59267,0.832555 0.19755,0.493889 0.19755,1.016 v 5.122329 h -1.12888 v -1.058333 q -0.0988,0.169334 -0.22578,0.324556 -0.35278,0.423333 -0.87489,0.634999 -0.52211,0.211667 -1.07244,0.211667 z m -0.33867,-1.128888 q 0.33867,0.112889 0.69144,0.112889 0.36689,0 0.71967,-0.127 0.35278,-0.127 0.60678,-0.395111 0.26811,-0.282222 0.381,-0.635 0.11289,-0.366888 0.11289,-0.733777 v -0.663222 h -1.28411 q -0.32456,0 -0.66323,0.05644 -0.32455,0.05644 -0.62088,0.225777 -0.29634,0.155223 -0.47978,0.451556 -0.16933,0.282222 -0.16933,0.620888 0,0.338666 0.18344,0.649111 0.19756,0.310444 0.52211,0.437444 z"
           style="font-style:normal;font-variant:normal;font-weight:normal;font-stretch:normal;font-family:'Iosevka Term';-inkscape-font-specification:'Iosevka Term';text-align:center;text-anchor:middle;stroke-width:0.264583"
           id="path92" />
        <path
           inkscape:connector-curvature="0"
           d="m 144.96292,-70.704181 q -0.56444,0 -1.12888,-0.155222 -0.55034,-0.155222 -0.97367,-0.564444 -0.42333,-0.409222 -0.59267,-0.945444 l 1.05834,-0.338666 q 0.11288,0.324555 0.36688,0.564444 0.254,0.239888 0.57856,0.338666 0.33867,0.08467 0.69144,0.08467 0.35278,0 0.70556,-0.08467 0.35278,-0.08467 0.62089,-0.352778 0.26811,-0.282222 0.26811,-0.634999 0,-0.522111 -0.46567,-0.832555 -0.45155,-0.324555 -0.97366,-0.352777 -0.508,-0.04233 -1.016,-0.141111 -0.508,-0.112889 -0.93134,-0.423333 -0.42333,-0.310445 -0.64911,-0.776111 -0.22577,-0.479777 -0.22577,-1.001888 0,-0.479777 0.22577,-0.917222 0.23989,-0.437444 0.64911,-0.705555 0.42334,-0.268111 0.889,-0.366888 0.47978,-0.09878 0.95956,-0.09878 0.56444,0 1.11477,0.155222 0.56445,0.155222 0.98778,0.564444 0.42333,0.409222 0.59267,0.945444 l -1.05833,0.338666 q -0.11289,-0.324555 -0.36689,-0.564444 -0.254,-0.239888 -0.59267,-0.324555 -0.32455,-0.09878 -0.67733,-0.09878 -0.35278,0 -0.70556,0.08467 -0.35277,0.08467 -0.62089,0.366889 -0.26811,0.26811 -0.26811,0.620888 0,0.522111 0.45156,0.846666 0.46567,0.310444 0.97366,0.352777 0.52212,0.02822 1.03012,0.141111 0.50799,0.09878 0.93133,0.409222 0.42333,0.310445 0.64911,0.790222 0.22578,0.465666 0.22578,0.987777 0,0.479777 -0.23989,0.917221 -0.22578,0.437445 -0.64911,0.705555 -0.40923,0.268111 -0.889,0.366889 -0.46567,0.09878 -0.94545,0.09878 z"
           style="font-style:normal;font-variant:normal;font-weight:normal;font-stretch:normal;font-family:'Iosevka Term';-inkscape-font-specification:'Iosevka Term';text-align:center;text-anchor:middle;stroke-width:0.264583"
           id="path94" />
        <path
           inkscape:connector-curvature="0"
           d="m 152.01847,-70.704181 q -0.56444,0 -1.12888,-0.155222 -0.55034,-0.155222 -0.97367,-0.564444 -0.42333,-0.409222 -0.59267,-0.945444 l 1.05834,-0.338666 q 0.11289,0.324555 0.36689,0.564444 0.254,0.239888 0.57855,0.338666 0.33867,0.08467 0.69144,0.08467 0.35278,0 0.70556,-0.08467 0.35278,-0.08467 0.62089,-0.352778 0.26811,-0.282222 0.26811,-0.634999 0,-0.522111 -0.46567,-0.832555 -0.45155,-0.324555 -0.97366,-0.352777 -0.508,-0.04233 -1.016,-0.141111 -0.508,-0.112889 -0.93134,-0.423333 -0.42333,-0.310445 -0.64911,-0.776111 -0.22577,-0.479777 -0.22577,-1.001888 0,-0.479777 0.22577,-0.917222 0.23989,-0.437444 0.64911,-0.705555 0.42334,-0.268111 0.889,-0.366888 0.47978,-0.09878 0.95956,-0.09878 0.56444,0 1.11478,0.155222 0.56444,0.155222 0.98777,0.564444 0.42334,0.409222 0.59267,0.945444 l -1.05833,0.338666 q -0.11289,-0.324555 -0.36689,-0.564444 -0.254,-0.239888 -0.59267,-0.324555 -0.32455,-0.09878 -0.67733,-0.09878 -0.35278,0 -0.70556,0.08467 -0.35277,0.08467 -0.62088,0.366889 -0.26812,0.26811 -0.26812,0.620888 0,0.522111 0.45156,0.846666 0.46567,0.310444 0.97367,0.352777 0.52211,0.02822 1.03011,0.141111 0.508,0.09878 0.93133,0.409222 0.42333,0.310445 0.64911,0.790222 0.22578,0.465666 0.22578,0.987777 0,0.479777 -0.23989,0.917221 -0.22578,0.437445 -0.64911,0.705555 -0.40922,0.268111 -0.889,0.366889 -0.46567,0.09878 -0.94545,0.09878 z"
           style="font-style:normal;font-variant:normal;font-weight:normal;font-stretch:normal;font-family:'Iosevka Term';-inkscape-font-specification:'Iosevka Term';text-align:center;text-anchor:middle;stroke-width:0.264583"
           id="path96" />
        <path
           inkscape:connector-curvature="0"
           d="m 159.20102,-70.704181 q -0.62088,0 -1.19944,-0.225778 -0.57855,-0.225777 -0.97367,-0.705555 -0.39511,-0.479777 -0.56444,-1.072443 -0.15522,-0.606778 -0.15522,-1.213555 v -1.269999 q 0,-0.606777 0.15522,-1.185332 0.15522,-0.592667 0.52211,-1.072444 0.381,-0.479778 0.94544,-0.719666 0.56445,-0.239889 1.17123,-0.239889 0.60677,0 1.17122,0.239889 0.56444,0.239888 0.93133,0.719666 0.381,0.479777 0.53622,1.072444 0.15522,0.578555 0.15522,1.185332 v 1.142999 h -4.4591 v 0.127 q 0,0.395111 0.0847,0.790222 0.0988,0.39511 0.32456,0.733777 0.22578,0.324555 0.59266,0.507999 0.36689,0.169334 0.762,0.169334 0.381,0 0.73378,-0.155223 0.36689,-0.169333 0.59267,-0.493888 0.23989,-0.324555 0.35277,-0.691444 l 1.03011,0.409222 q -0.18344,0.578555 -0.57855,1.044221 -0.39511,0.465667 -0.97367,0.691444 -0.56444,0.211667 -1.15711,0.211667 z m -1.76388,-4.36033 h 3.33022 v -0.127 q 0,-0.395111 -0.0847,-0.776111 -0.0706,-0.380999 -0.28222,-0.705555 -0.21167,-0.338666 -0.56445,-0.52211 -0.33866,-0.197556 -0.73377,-0.197556 -0.39511,0 -0.74789,0.197556 -0.33867,0.183444 -0.55034,0.52211 -0.21166,0.324556 -0.29633,0.705555 -0.0705,0.381 -0.0705,0.776111 z"
           style="font-style:normal;font-variant:normal;font-weight:normal;font-stretch:normal;font-family:'Iosevka Term';-inkscape-font-specification:'Iosevka Term';text-align:center;text-anchor:middle;stroke-width:0.264583"
           id="path98" />
        <path
           inkscape:connector-curvature="0"
           d="m 163.68836,-70.81707 v -1.015999 h 2.00377 v -8.33966 h -1.80622 v -1.016 h 2.93511 v 9.35566 h 1.80622 v 1.015999 z"
           style="font-style:normal;font-variant:normal;font-weight:normal;font-stretch:normal;font-family:'Iosevka Term';-inkscape-font-specification:'Iosevka Term';text-align:center;text-anchor:middle;stroke-width:0.264583"
           id="path100" />
      </g>
      <g
         id="g2439"
         transform="translate(137.81148,-109.13206)">
        <circle
           id="circle1706"
           r="34.533802"
           cy="88.312645"
           cx="95.119148"
           style="fill:#917c6f;stroke-width:0.134898" />
        <path
           sodipodi:nodetypes="cccccccccccccc"
           inkscape:connector-curvature="0"
           id="rect1906"
           style="opacity:0.355477;fill:#000000;fill-opacity:1;stroke:none;stroke-width:7.27715;stroke-linecap:round;stroke-linejoin:round;stroke-miterlimit:4;stroke-dasharray:none;stroke-opacity:1"
           inkscape:transform-center-x="-28.486381"
           inkscape:transform-center-y="4.8187989"
           d="m 103.96114,68.785396 -10.414872,19.13888 1.31516,5.55418 c -0.49663,0.0159 -0.98715,0.0191 -1.47639,0.0155 l -8.36022,-20.47575 -13.74489,12.58063 1.83348,5.10098 c -1.96746,-0.32216 -4.05666,-0.6559 -6.44664,-1.01234 l 11.78791,28.871624 c 5.10427,2.81248 10.83729,4.28747 16.66513,4.28759 15.142642,-7e-5 28.518882,-9.86505 32.992312,-24.331844 l -4.52944,-11.09183 -8.82516,-2.97146 z" />
        <path
           style="color:#000000;font-style:normal;font-variant:normal;font-weight:normal;font-stretch:normal;font-size:medium;line-height:normal;font-family:sans-serif;font-variant-ligatures:normal;font-variant-position:normal;font-variant-caps:normal;font-variant-numeric:normal;font-variant-alternates:normal;font-variant-east-asian:normal;font-feature-settings:normal;font-variation-settings:normal;text-indent:0;text-align:start;text-decoration:none;text-decoration-line:none;text-decoration-style:solid;text-decoration-color:#000000;letter-spacing:normal;word-spacing:normal;text-transform:none;writing-mode:lr-tb;direction:ltr;text-orientation:mixed;dominant-baseline:auto;baseline-shift:baseline;text-anchor:start;white-space:normal;shape-padding:0;shape-margin:0;inline-size:0;clip-rule:nonzero;display:inline;overflow:visible;visibility:visible;isolation:auto;mix-blend-mode:normal;color-interpolation:sRGB;color-interpolation-filters:linearRGB;solid-color:#000000;solid-opacity:1;vector-effect:none;fill:#ffd464;fill-opacity:1;fill-rule:nonzero;stroke:none;stroke-width:5.93819;stroke-linecap:round;stroke-linejoin:round;stroke-miterlimit:4;stroke-dasharray:none;stroke-dashoffset:0;stroke-opacity:1;color-rendering:auto;image-rendering:auto;shape-rendering:auto;text-rendering:auto;enable-background:accumulate;stop-color:#000000"
           d="m 101.25806,67.002586 a 2.9690941,2.9690941 0 0 0 -2.836772,1.97915 l -12.94021,36.685094 a 2.9690941,2.9690941 0 0 0 1.81056,3.78725 2.9690941,2.9690941 0 0 0 3.78725,-1.813 L 104.02154,70.958446 a 2.9690941,2.9690941 0 0 0 -1.81055,-3.78727 2.9690941,2.9690941 0 0 0 -0.95293,-0.16859 z"
           id="path1863"
           inkscape:connector-curvature="0" />
        <path
           id="path1854"
           style="color:#000000;font-style:normal;font-variant:normal;font-weight:normal;font-stretch:normal;font-size:medium;line-height:normal;font-family:sans-serif;font-variant-ligatures:normal;font-variant-position:normal;font-variant-caps:normal;font-variant-numeric:normal;font-variant-alternates:normal;font-variant-east-asian:normal;font-feature-settings:normal;font-variation-settings:normal;text-indent:0;text-align:start;text-decoration:none;text-decoration-line:none;text-decoration-style:solid;text-decoration-color:#000000;letter-spacing:normal;word-spacing:normal;text-transform:none;writing-mode:lr-tb;direction:ltr;text-orientation:mixed;dominant-baseline:auto;baseline-shift:baseline;text-anchor:start;white-space:normal;shape-padding:0;shape-margin:0;inline-size:0;clip-rule:nonzero;display:inline;overflow:visible;visibility:visible;isolation:auto;mix-blend-mode:normal;color-interpolation:sRGB;color-interpolation-filters:linearRGB;solid-color:#000000;solid-opacity:1;vector-effect:none;fill:#f2c95f;fill-opacity:1;fill-rule:nonzero;stroke:none;stroke-width:5.93818;stroke-linecap:round;stroke-linejoin:round;stroke-miterlimit:4;stroke-dasharray:none;stroke-dashoffset:0;stroke-opacity:1;color-rendering:auto;image-rendering:auto;shape-rendering:auto;text-rendering:auto;enable-background:accumulate;stop-color:#000000"
           d="m 101.17453,67.001986 a 2.9690941,2.9690941 0 0 0 -0.61158,0.0749 2.9690941,2.9690941 0 0 1 0.32389,0.0937 2.9690941,2.9690941 0 0 1 1.81079,3.78709 L 89.757028,107.64297 a 2.9690941,2.9690941 0 0 1 -2.13792,1.90582 2.9690941,2.9690941 0 0 0 3.46191,-1.90582 L 104.02163,70.957766 a 2.9690941,2.9690941 0 0 0 -1.8108,-3.78709 2.9690941,2.9690941 0 0 0 -0.95291,-0.16873 2.9690941,2.9690941 0 0 0 -0.0834,0 z"
           inkscape:connector-curvature="0" />
        <path
           inkscape:connector-curvature="0"
           d="m 107.87512,102.72622 12.9421,-14.173074 -12.9421,-14.17305 m -25.510952,28.346124 -12.9421,-14.173074 12.9421,-14.17305"
           style="fill:none;fill-opacity:0.884876;stroke:#f5f5f5;stroke-width:5.93819;stroke-linecap:round;stroke-linejoin:round;stroke-miterlimit:4;stroke-dasharray:none;stroke-opacity:1"
           id="path1900" />
        <path
           sodipodi:nodetypes="cccccccccccccccccccssccccccccc"
           inkscape:connector-curvature="0"
           id="path1895"
           style="color:#000000;font-style:normal;font-variant:normal;font-weight:normal;font-stretch:normal;font-size:medium;line-height:normal;font-family:sans-serif;font-variant-ligatures:normal;font-variant-position:normal;font-variant-caps:normal;font-variant-numeric:normal;font-variant-alternates:normal;font-variant-east-asian:normal;font-feature-settings:normal;font-variation-settings:normal;text-indent:0;text-align:start;text-decoration:none;text-decoration-line:none;text-decoration-style:solid;text-decoration-color:#000000;letter-spacing:normal;word-spacing:normal;text-transform:none;writing-mode:lr-tb;direction:ltr;text-orientation:mixed;dominant-baseline:auto;baseline-shift:baseline;text-anchor:start;white-space:normal;shape-padding:0;shape-margin:0;inline-size:0;clip-rule:nonzero;display:inline;overflow:visible;visibility:visible;isolation:auto;mix-blend-mode:normal;color-interpolation:sRGB;color-interpolation-filters:linearRGB;solid-color:#000000;solid-opacity:1;vector-effect:none;fill:#e6e6e6;fill-opacity:1;fill-rule:nonzero;stroke:none;stroke-width:5.93817;stroke-linecap:round;stroke-linejoin:round;stroke-miterlimit:4;stroke-dasharray:none;stroke-dashoffset:0;stroke-opacity:1;color-rendering:auto;image-rendering:auto;shape-rendering:auto;text-rendering:auto;enable-background:accumulate;stop-color:#000000"
           d="m 82.309838,71.410396 c -0.006,2e-4 -0.0112,4.2e-4 -0.0168,6.6e-4 -0.19939,0.005 -0.39779,0.0298 -0.59218,0.0744 0.49992,0.11456 0.96163,0.35666 1.34016,0.70272 1.21105,1.10587 1.29615,2.98416 0.19006,4.19501 l -11.11236,12.17065 11.11236,12.170654 c 1.10609,1.21085 1.02099,3.08914 -0.19006,4.19501 -0.37819,0.34506 -0.83919,0.58647 -1.33822,0.70079 0.94862,0.21677 1.94326,-0.0451 2.66221,-0.70079 1.21105,-1.10587 1.29615,-2.98416 0.19006,-4.19501 l -11.11235,-12.170654 11.11235,-12.17065 c 1.10609,-1.21085 1.02099,-3.08914 -0.19006,-4.19501 -0.56039,-0.51253 -1.29586,-0.79084 -2.05516,-0.77771 z m 25.515952,6.6e-4 c -0.20677,0.004 -0.4126,0.0287 -0.61415,0.075 0.58943,0.13452 1.12375,0.44578 1.53151,0.89215 l 12.41338,14.17215 c 1.01176,1.1551 1.01168,2.84913 0,4.0043 l -12.41338,14.174094 c -0.40768,0.44661 -0.942,0.75809 -1.53151,0.89279 1.04317,0.23875 2.13411,-0.10234 2.8555,-0.89279 l 12.94255,-14.174094 c 1.03536,-1.13399 1.03536,-2.87031 0,-4.0043 l -12.94255,-14.17215 c -0.55436,-0.60728 -1.33575,-0.95748 -2.15795,-0.96714 -0.0278,-3.9e-4 -0.0556,-3.9e-4 -0.0834,0 z" />
      </g>
      <g
         aria-label="Code"
         id="text2099"
         style="font-style:normal;font-variant:normal;font-weight:normal;font-stretch:normal;font-size:14.1111px;line-height:1.35;font-family:'Iosevka Term';-inkscape-font-specification:'Iosevka Term';text-align:center;letter-spacing:0px;word-spacing:0px;text-anchor:middle;fill:#000000;fill-opacity:1;stroke:none;stroke-width:0.264583">
        <path
           inkscape:connector-curvature="0"
           d="m 222.34024,-70.591289 q -0.56444,0 -1.11477,-0.183444 -0.53623,-0.183445 -0.94545,-0.592667 -0.39511,-0.423333 -0.56444,-0.973665 -0.16933,-0.550333 -0.16933,-1.114777 v -4.86833 q 0,-0.564444 0.16933,-1.114777 0.16933,-0.550333 0.56444,-0.959555 0.40922,-0.423333 0.94545,-0.606777 0.55033,-0.183444 1.11477,-0.183444 0.66323,0 1.28411,0.268111 0.62089,0.253999 1.00189,0.818443 0.381,0.564444 0.46567,1.213555 l -1.10067,0.197555 q -0.0564,-0.39511 -0.28222,-0.761999 -0.21167,-0.366889 -0.59267,-0.536222 -0.36688,-0.183444 -0.77611,-0.183444 -0.35277,0 -0.69144,0.141111 -0.32456,0.127 -0.56444,0.409222 -0.22578,0.268111 -0.32456,0.606777 -0.0847,0.338667 -0.0847,0.691444 v 4.86833 q 0,0.352777 0.0847,0.691444 0.0988,0.338666 0.32456,0.620888 0.23988,0.268111 0.56444,0.409222 0.33867,0.127 0.69144,0.127 0.40923,0 0.77611,-0.169333 0.381,-0.183445 0.59267,-0.550333 0.22578,-0.366889 0.28222,-0.762 l 1.10067,0.197556 q -0.0706,0.493888 -0.29633,0.945443 -0.22578,0.437444 -0.62089,0.762 -0.381,0.310444 -0.86078,0.451555 -0.47978,0.141111 -0.97367,0.141111 z"
           style="font-style:normal;font-variant:normal;font-weight:normal;font-stretch:normal;font-family:'Iosevka Term';-inkscape-font-specification:'Iosevka Term';text-align:center;text-anchor:middle;stroke-width:0.264583"
           id="path68" />
        <path
           inkscape:connector-curvature="0"
           d="m 229.39579,-70.591289 q -0.60677,0 -1.17122,-0.239889 -0.56444,-0.239888 -0.94544,-0.719666 -0.36689,-0.479777 -0.52211,-1.058332 -0.15522,-0.592667 -0.15522,-1.199444 v -1.269999 q 0,-0.606777 0.15522,-1.185332 0.15522,-0.592667 0.52211,-1.072444 0.381,-0.479777 0.94544,-0.719666 0.56445,-0.239889 1.17122,-0.239889 0.60678,0 1.17122,0.239889 0.56445,0.239889 0.93134,0.719666 0.381,0.479777 0.53622,1.072444 0.15522,0.578555 0.15522,1.185332 v 1.269999 q 0,0.606777 -0.15522,1.199444 -0.15522,0.578555 -0.53622,1.058332 -0.36689,0.479778 -0.93134,0.719666 -0.56444,0.239889 -1.17122,0.239889 z m 0,-1.015999 q 0.39511,0 0.73378,-0.183445 0.35278,-0.197555 0.56444,-0.52211 0.21167,-0.338667 0.28223,-0.719666 0.0847,-0.381 0.0847,-0.776111 v -1.269999 q 0,-0.395111 -0.0847,-0.77611 -0.0706,-0.381 -0.28223,-0.705555 -0.21166,-0.338667 -0.56444,-0.522111 -0.33867,-0.197556 -0.73378,-0.197556 -0.39511,0 -0.74788,0.197556 -0.33867,0.183444 -0.55034,0.522111 -0.21166,0.324555 -0.29633,0.705555 -0.0706,0.380999 -0.0706,0.77611 v 1.269999 q 0,0.395111 0.0706,0.776111 0.0847,0.380999 0.29633,0.719666 0.21167,0.324555 0.55034,0.52211 0.35277,0.183445 0.74788,0.183445 z"
           style="font-style:normal;font-variant:normal;font-weight:normal;font-stretch:normal;font-family:'Iosevka Term';-inkscape-font-specification:'Iosevka Term';text-align:center;text-anchor:middle;stroke-width:0.264583"
           id="path70" />
        <path
           inkscape:connector-curvature="0"
           d="m 236.09857,-70.591289 q -0.57856,0 -1.08656,-0.268111 -0.508,-0.282222 -0.81844,-0.77611 -0.29634,-0.493889 -0.42334,-1.044222 -0.11288,-0.564444 -0.11288,-1.128888 v -1.269999 q 0,-0.564444 0.11288,-1.114777 0.127,-0.564444 0.42334,-1.058332 0.31044,-0.493889 0.81844,-0.762 0.508,-0.282222 1.08656,-0.282222 0.43744,0 0.86077,0.183445 0.42334,0.169333 0.71967,0.52211 0.18344,0.225778 0.32455,0.479778 v -3.96522 h 1.12889 v 10.371659 h -1.12889 v -1.072443 q -0.14111,0.253999 -0.32455,0.479777 -0.29633,0.352777 -0.71967,0.536222 -0.42333,0.169333 -0.86077,0.169333 z m 0.33866,-1.015999 q 0.381,0 0.71967,-0.197556 0.33867,-0.197555 0.52211,-0.536221 0.18344,-0.338667 0.254,-0.705555 0.0705,-0.381 0.0705,-0.762 v -1.269999 q 0,-0.381 -0.0705,-0.747888 -0.0706,-0.381 -0.254,-0.719666 -0.18344,-0.338667 -0.52211,-0.536222 -0.33867,-0.197556 -0.71967,-0.197556 -0.381,0 -0.73377,0.197556 -0.35278,0.183444 -0.56445,0.522111 -0.19755,0.338666 -0.28222,0.719666 -0.0706,0.380999 -0.0706,0.761999 v 1.269999 q 0,0.381 0.0706,0.762 0.0847,0.380999 0.28222,0.719666 0.21167,0.338666 0.56445,0.536221 0.35277,0.183445 0.73377,0.183445 z m 1.98967,-2.130776 v -0.05645 z"
           style="font-style:normal;font-variant:normal;font-weight:normal;font-stretch:normal;font-family:'Iosevka Term';-inkscape-font-specification:'Iosevka Term';text-align:center;text-anchor:middle;stroke-width:0.264583"
           id="path72" />
        <path
           inkscape:connector-curvature="0"
           d="m 243.60567,-70.591289 q -0.62089,0 -1.19944,-0.225778 -0.57856,-0.225777 -0.97367,-0.705555 -0.39511,-0.479777 -0.56444,-1.072443 -0.15522,-0.606778 -0.15522,-1.213555 v -1.269999 q 0,-0.606777 0.15522,-1.185332 0.15522,-0.592667 0.52211,-1.072444 0.381,-0.479777 0.94544,-0.719666 0.56445,-0.239889 1.17122,-0.239889 0.60678,0 1.17123,0.239889 0.56444,0.239889 0.93133,0.719666 0.381,0.479777 0.53622,1.072444 0.15522,0.578555 0.15522,1.185332 v 1.142999 h -4.45911 v 0.127 q 0,0.395111 0.0847,0.790222 0.0988,0.395111 0.32456,0.733777 0.22577,0.324555 0.59266,0.508 0.36689,0.169333 0.762,0.169333 0.381,0 0.73378,-0.155222 0.36689,-0.169334 0.59267,-0.493889 0.23988,-0.324555 0.35277,-0.691444 l 1.03011,0.409222 q -0.18344,0.578555 -0.57855,1.044222 -0.39511,0.465666 -0.97367,0.691443 -0.56444,0.211667 -1.15711,0.211667 z m -1.76389,-4.36033 h 3.33022 v -0.127 q 0,-0.395111 -0.0847,-0.77611 -0.0706,-0.381 -0.28222,-0.705555 -0.21167,-0.338667 -0.56445,-0.522111 -0.33866,-0.197556 -0.73378,-0.197556 -0.39511,0 -0.74788,0.197556 -0.33867,0.183444 -0.55034,0.522111 -0.21166,0.324555 -0.29633,0.705555 -0.0706,0.380999 -0.0706,0.77611 z"
           style="font-style:normal;font-variant:normal;font-weight:normal;font-stretch:normal;font-family:'Iosevka Term';-inkscape-font-specification:'Iosevka Term';text-align:center;text-anchor:middle;stroke-width:0.264583"
           id="path74" />
      </g>
      <g
         id="g2453"
         transform="translate(137.81148,-111.29924)">
        <circle
           style="fill:#917c6f;stroke-width:0.134898"
           cx="179.63669"
           cy="90.479668"
           r="34.533802"
           id="circle127" />
        <path
           id="rect1906-3-6"
           style="opacity:0.355477;fill:#000000;fill-opacity:1;stroke:none;stroke-width:5.817;stroke-linecap:round;stroke-linejoin:round;stroke-miterlimit:4;stroke-dasharray:none;stroke-opacity:1"
           inkscape:transform-center-x="-22.770583"
           inkscape:transform-center-y="3.8519086"
           d="m 192.81644,74.5544 -15.82384,6.461106 4.06126,9.946161 -19.53318,10.412803 9.1705,22.46013 a 34.533803,34.533803 0 0 0 0.0388,0.0103 34.533803,34.533803 0 0 0 0.17725,0.047 34.533803,34.533803 0 0 0 0.0599,0.0155 34.533803,34.533803 0 0 0 0.21601,0.0553 34.533803,34.533803 0 0 0 0.2465,0.061 34.533803,34.533803 0 0 0 0.19275,0.0465 34.533803,34.533803 0 0 0 0.12247,0.0289 34.533803,34.533803 0 0 0 0.17984,0.0419 34.533803,34.533803 0 0 0 0.24753,0.0558 34.533803,34.533803 0 0 0 0.24236,0.0527 34.533803,34.533803 0 0 0 0.0243,0.005 34.533803,34.533803 0 0 0 0.19017,0.0403 34.533803,34.533803 0 0 0 0.0811,0.0165 34.533803,34.533803 0 0 0 0.20877,0.0419 34.533803,34.533803 0 0 0 0.22221,0.0434 34.533803,34.533803 0 0 0 0.077,0.0145 34.533803,34.533803 0 0 0 0.13952,0.0263 34.533803,34.533803 0 0 0 0.15142,0.0274 34.533803,34.533803 0 0 0 0.0589,0.0108 34.533803,34.533803 0 0 0 0.10025,0.0176 34.533803,34.533803 0 0 0 0.21084,0.0367 34.533803,34.533803 0 0 0 0.108,0.0181 34.533803,34.533803 0 0 0 0.18242,0.0294 34.533803,34.533803 0 0 0 0.25115,0.0393 34.533803,34.533803 0 0 0 0.1819,0.0274 34.533803,34.533803 0 0 0 0.12971,0.0186 34.533803,34.533803 0 0 0 0.18087,0.0259 34.533803,34.533803 0 0 0 0.0232,0.003 34.533803,34.533803 0 0 0 0.23926,0.032 34.533803,34.533803 0 0 0 0.21653,0.0274 34.533803,34.533803 0 0 0 0.13126,0.016 34.533803,34.533803 0 0 0 0.0889,0.0104 34.533803,34.533803 0 0 0 0.19637,0.0227 34.533803,34.533803 0 0 0 0.0331,0.004 34.533803,34.533803 0 0 0 0.15865,0.017 34.533803,34.533803 0 0 0 0.43822,0.0439 34.533803,34.533803 0 0 0 0.20257,0.0181 34.533803,34.533803 0 0 0 0.20257,0.0171 34.533803,34.533803 0 0 0 0.19895,0.0155 34.533803,34.533803 0 0 0 0.0543,0.004 34.533803,34.533803 0 0 0 0.10181,0.007 34.533803,34.533803 0 0 0 0.25373,0.017 34.533803,34.533803 0 0 0 0.25373,0.015 34.533803,34.533803 0 0 0 0.25373,0.0134 34.533803,34.533803 0 0 0 0.25373,0.0114 34.533803,34.533803 0 0 0 0.20464,0.008 34.533803,34.533803 0 0 0 0.19689,0.007 34.533803,34.533803 0 0 0 0.007,0 34.533803,34.533803 0 0 0 0.20102,0.005 34.533803,34.533803 0 0 0 0.10232,0.003 34.533803,34.533803 0 0 0 0.10128,0.002 34.533803,34.533803 0 0 0 0.20361,0.003 34.533803,34.533803 0 0 0 0.22892,0.002 34.533803,34.533803 0 0 0 0.17777,5.3e-4 34.533803,34.533803 0 0 0 0.25425,-0.001 34.533803,34.533803 0 0 0 0.23823,-0.003 34.533803,34.533803 0 0 0 0.016,0 34.533803,34.533803 0 0 0 0.016,-5.3e-4 34.533803,34.533803 0 0 0 0.17828,-0.003 34.533803,34.533803 0 0 0 0.11834,-0.003 34.533803,34.533803 0 0 0 0.046,-0.001 34.533803,34.533803 0 0 0 0.18035,-0.005 34.533803,34.533803 0 0 0 0.14573,-0.005 34.533803,34.533803 0 0 0 0.15348,-0.006 34.533803,34.533803 0 0 0 0.0284,-0.001 34.533803,34.533803 0 0 0 0.14934,-0.006 34.533803,34.533803 0 0 0 0.031,-0.002 34.533803,34.533803 0 0 0 0.22324,-0.0108 34.533803,34.533803 0 0 0 0.2372,-0.0129 34.533803,34.533803 0 0 0 0.0165,-0.001 34.533803,34.533803 0 0 0 0.0165,-10e-4 34.533803,34.533803 0 0 0 0.2372,-0.015 34.533803,34.533803 0 0 0 0.22841,-0.016 34.533803,34.533803 0 0 0 0.0491,-0.004 34.533803,34.533803 0 0 0 0.22892,-0.0176 34.533803,34.533803 0 0 0 5.3e-4,0 34.533803,34.533803 0 0 0 0.50643,-0.045 34.533803,34.533803 0 0 0 0.2527,-0.0253 34.533803,34.533803 0 0 0 0.2527,-0.0269 34.533803,34.533803 0 0 0 0.22531,-0.0258 34.533803,34.533803 0 0 0 0.0563,-0.007 34.533803,34.533803 0 0 0 0.22324,-0.0274 34.533803,34.533803 0 0 0 0.25218,-0.0326 34.533803,34.533803 0 0 0 0.25166,-0.0346 34.533803,34.533803 0 0 0 0.19741,-0.0284 34.533803,34.533803 0 0 0 0.1049,-0.0155 34.533803,34.533803 0 0 0 0.0527,-0.008 34.533803,34.533803 0 0 0 0.14779,-0.0227 34.533803,34.533803 0 0 0 0.0114,-0.002 34.533803,34.533803 0 0 0 0.23978,-0.0382 34.533803,34.533803 0 0 0 0.47594,-0.0811 34.533803,34.533803 0 0 0 0.0599,-0.0104 34.533803,34.533803 0 0 0 0.0682,-0.0124 34.533803,34.533803 0 0 0 0.14728,-0.0274 34.533803,34.533803 0 0 0 0.21084,-0.0398 34.533803,34.533803 0 0 0 0.0387,-0.007 34.533803,34.533803 0 0 0 0.10232,-0.0202 34.533803,34.533803 0 0 0 0.14676,-0.0295 34.533803,34.533803 0 0 0 0.24908,-0.0512 34.533803,34.533803 0 0 0 0.22531,-0.0475 34.533803,34.533803 0 0 0 0.0233,-0.005 34.533803,34.533803 0 0 0 0.0233,-0.005 34.533803,34.533803 0 0 0 0.20774,-0.046 34.533803,34.533803 0 0 0 0.0176,-0.004 34.533803,34.533803 0 0 0 0.009,-0.002 34.533803,34.533803 0 0 0 0.19534,-0.0445 34.533803,34.533803 0 0 0 0.0429,-0.01 34.533803,34.533803 0 0 0 0.0289,-0.007 34.533803,34.533803 0 0 0 0.4656,-0.11214 34.533803,34.533803 0 0 0 0.24443,-0.0615 34.533803,34.533803 0 0 0 0.002,-5.2e-4 34.533803,34.533803 0 0 0 0.003,-5.3e-4 34.533803,34.533803 0 0 0 0.2434,-0.0636 34.533803,34.533803 0 0 0 0.24546,-0.0656 34.533803,34.533803 0 0 0 0.24495,-0.0672 34.533803,34.533803 0 0 0 0.24443,-0.0693 34.533803,34.533803 0 0 0 0.23771,-0.0692 34.533803,34.533803 0 0 0 0.007,-0.002 34.533803,34.533803 0 0 0 0.005,-0.002 34.533803,34.533803 0 0 0 0.23823,-0.0713 34.533803,34.533803 0 0 0 0.23719,-0.0729 34.533803,34.533803 0 0 0 0.006,-0.002 34.533803,34.533803 0 0 0 0.005,-0.002 34.533803,34.533803 0 0 0 0.2372,-0.0749 34.533803,34.533803 0 0 0 1.20354,-0.40928 34.533803,34.533803 0 0 0 0.20826,-0.0754 34.533803,34.533803 0 0 0 0.0305,-0.0114 34.533803,34.533803 0 0 0 0.0977,-0.0362 34.533803,34.533803 0 0 0 0.14056,-0.0527 34.533803,34.533803 0 0 0 0.006,-0.003 34.533803,34.533803 0 0 0 0.21705,-0.0827 34.533803,34.533803 0 0 0 0.0139,-0.005 34.533803,34.533803 0 0 0 0.0119,-0.005 34.533803,34.533803 0 0 0 0.22479,-0.0879 34.533803,34.533803 0 0 0 0.23616,-0.0941 34.533803,34.533803 0 0 0 0.22169,-0.0899 34.533803,34.533803 0 0 0 0.0139,-0.006 34.533803,34.533803 0 0 0 0.0139,-0.006 34.533803,34.533803 0 0 0 0.22066,-0.092 34.533803,34.533803 0 0 0 0.23409,-0.0992 34.533803,34.533803 0 0 0 0.46561,-0.20361 34.533803,34.533803 0 0 0 0.0253,-0.0114 34.533803,34.533803 0 0 0 13.86634,-11.25668 z"
           inkscape:connector-curvature="0" />
        <path
           id="path133"
           d="m 194.74523,101.81107 h -6.47509 V 86.16294 h 6.47509 c 1.7855,0 3.23754,1.45204 3.23754,3.23754 v 9.17304 c 0,1.78551 -1.45204,3.23755 -3.23754,3.23755 z m -4.31673,-2.15836 h 4.31673 c 0.59516,0 1.07918,-0.48402 1.07918,-1.07919 v -9.17304 c 0,-0.59517 -0.48402,-1.07918 -1.07918,-1.07918 h -4.31673 z"
           style="fill:#ffd464;stroke-width:0.134898"
           inkscape:connector-curvature="0" />
        <rect
           id="rect137"
           height="11.331405"
           width="1.0791813"
           style="fill:#f2c95f;stroke-width:0.134898"
           y="88.321297"
           x="189.34932" />
        <path
           id="path139"
           d="m 194.74523,86.16294 h -1.07919 c 1.78551,0 3.23755,1.45204 3.23755,3.23754 v 9.17304 c 0,1.78551 -1.45204,3.23755 -3.23755,3.23755 h 1.07919 c 1.7855,0 3.23754,-1.45204 3.23754,-3.23755 v -9.17304 c 0,-1.7855 -1.45204,-3.23754 -3.23754,-3.23754 z"
           style="fill:#f2c95f;stroke-width:0.134898"
           inkscape:connector-curvature="0" />
        <path
           id="path141"
           d="m 188.27014,80.22744 h -1.61877 c 1.1871,0 2.15836,0.97126 2.15836,2.15836 v 28.59831 c 0,1.1871 -0.97126,2.15836 -2.15836,2.15836 h 1.61877 c 1.1871,0 2.15836,-0.97126 2.15836,-2.15836 V 82.3858 c 0,-1.1871 -0.97126,-2.15836 -2.15836,-2.15836 z"
           style="fill:#f2c95f;stroke-width:0.134898"
           inkscape:connector-curvature="0" />
        <path
           inkscape:connector-curvature="0"
           style="fill:#f5f5f5;stroke-width:0.134898"
           d="m 166.68651,81.84621 h -2.69795 v 15.67026 c -1.49035,0 -2.69796,1.2076 -2.69796,2.69795 0,1.49035 1.20761,2.69795 2.69796,2.69795 1.49035,0 2.69795,-1.2076 2.69795,-2.69795 0,-0.008 -0.002,-0.0146 -0.002,-0.0221 h 0.002 z"
           id="path157" />
        <rect
           ry="3.2033195"
           y="80.227142"
           x="175.22882"
           height="32.915001"
           width="15.199796"
           id="rect913"
           style="fill:#f2c95f;fill-opacity:1;stroke-width:2.04331;stroke-linecap:round;stroke-linejoin:round" />
        <rect
           style="fill:#ffd464;fill-opacity:1;stroke-width:2.4697;stroke-linecap:round;stroke-linejoin:round"
           id="rect88"
           width="22.20545"
           height="32.915001"
           x="166.68661"
           y="80.227142"
           ry="3.2033195" />
        <path
           inkscape:connector-curvature="0"
           style="fill:#f5f5f5;stroke-width:0.134898"
           d="m 186.20189,70.06533 c -0.0658,0 -0.1295,0.008 -0.1948,0.0102 -1.19195,-2.25117 -3.55536,-3.78739 -6.28029,-3.78739 -2.57331,0 -4.81963,1.37272 -6.06608,3.42101 -0.93943,-0.45865 -1.99055,-0.72305 -3.10696,-0.72305 -3.42263,0 -6.27922,2.42114 -6.95317,5.64358 -1.25131,0.95723 -2.06231,2.46215 -2.06231,4.15916 0,2.89275 2.3456,5.23835 5.23834,5.23835 1.0808,0 2.08444,-0.32699 2.91811,-0.88817 0.28167,0.034 0.56765,0.0561 0.85903,0.0561 0.27951,0 0.55308,-0.02 0.82395,-0.0523 1.23567,1.04141 2.82962,1.67111 4.57195,1.67111 2.15513,0 4.08147,-0.96317 5.38458,-2.47834 1.27127,1.19897 2.9807,1.93875 4.86765,1.93875 3.92336,0 7.10479,-3.18143 7.10479,-7.10479 0,-3.92336 -3.18143,-7.10425 -7.10479,-7.10425 z"
           id="path161" />
        <path
           id="path165"
           d="m 171.50236,69.7092 c 0.12356,-0.20127 0.25846,-0.39336 0.39876,-0.58114 -0.43815,-0.0863 -0.88547,-0.14191 -1.34736,-0.14191 -0.37448,0 -0.7414,0.034 -1.10077,0.0901 0.72359,0.11062 1.41373,0.32267 2.04937,0.63294 z"
           style="fill:#e6e6e6;stroke-width:0.134898"
           inkscape:connector-curvature="0" />
        <path
           id="path167"
           style="fill:#e6e6e6;stroke-width:0.134898"
           d="m 180.13311,81.42479 c -1.0835,1.25941 -3.55752,3.03952 -5.27558,3.30014 0.35667,0.0556 0.72036,0.0896 1.09213,0.0896 2.20315,0 4.31079,-1.08835 5.38998,-2.47942 -0.43276,-0.26278 -0.83961,-0.56495 -1.20653,-0.91029 z m 6.06878,-11.35946 c -0.0658,0 -0.1295,0.008 -0.1948,0.0102 -1.19195,-2.25117 -3.55536,-3.78739 -6.28029,-3.78739 -0.36638,0 -0.72521,0.0313 -1.07595,0.0842 2.25981,0.34642 4.1678,1.75583 5.19788,3.70267 0.0653,-0.002 0.12896,-0.0108 0.19479,-0.0108 3.92337,0 7.10479,3.18143 7.10479,7.10479 0,3.5559 -2.61593,6.49343 -6.02614,7.01414 0.35235,0.055 0.71118,0.0907 1.07972,0.0907 3.92336,0 7.10479,-3.18143 7.10479,-7.10479 0,-3.92336 -3.18143,-7.10371 -7.10479,-7.10371 z m -19.51538,11.78088 h -1.07918 v 18.34609 h -0.002 c 0,0.008 0.002,0.0146 0.002,0.0221 0,1.30527 -0.92702,2.39362 -2.15836,2.64345 0.17428,0.0345 0.35451,0.0545 0.53959,0.0545 1.49035,0 2.69795,-1.2076 2.69795,-2.69795 0,-0.008 -0.002,-0.0146 -0.002,-0.0221 h 0.002 z"
           inkscape:connector-curvature="0" />
      </g>
      <g
         aria-label="Meetup"
         id="text2103"
         style="font-style:normal;font-variant:normal;font-weight:normal;font-stretch:normal;font-size:14.1111px;line-height:1.35;font-family:'Iosevka Term';-inkscape-font-specification:'Iosevka Term';text-align:center;letter-spacing:0px;word-spacing:0px;text-anchor:middle;fill:#000000;fill-opacity:1;stroke:none;stroke-width:0.264583">
        <path
           inkscape:connector-curvature="0"
           d="m 296.98,-70.81707 v -10.371659 h 0.39511 0.86078 l 1.60866,5.743218 1.60867,-5.743218 h 0.86078 0.39511 v 10.371659 h -1.12889 v -2.074332 q 0,-0.282222 0,-0.564444 v -0.141111 q 0,-0.423333 0.0141,-0.846666 v -0.141111 q 0.0141,-0.52211 0.0423,-1.044221 v -0.141111 q 0.0282,-0.635 0.0706,-1.269999 0.0282,-0.352778 0.0423,-0.705555 l 0.0141,-0.141111 v -0.211667 l 0.0141,-0.141111 q 0.0282,-0.592666 0.0423,-1.199443 l -1.55222,5.503329 h -0.84667 l -1.55222,-5.503329 q 0.0141,0.705555 0.0564,1.41111 v 0.141111 l 0.0141,0.141111 q 0.0141,0.352777 0.0423,0.705555 0.0423,0.634999 0.0705,1.269999 v 0.141111 l 0.0141,0.211666 v 0.141111 l 0.0141,0.127 q 0,0.282222 0.0141,0.564444 v 0.141111 q 0.0141,0.423333 0.0141,0.846666 v 0.141111 q 0,0.282222 0,0.564444 v 2.074332 z"
           style="font-style:normal;font-variant:normal;font-weight:normal;font-stretch:normal;font-family:'Iosevka Term';-inkscape-font-specification:'Iosevka Term';text-align:center;text-anchor:middle;stroke-width:0.264583"
           id="path77" />
        <path
           inkscape:connector-curvature="0"
           d="m 306.99888,-70.704181 q -0.62089,0 -1.19944,-0.225778 -0.57856,-0.225777 -0.97367,-0.705555 -0.39511,-0.479777 -0.56444,-1.072443 -0.15522,-0.606778 -0.15522,-1.213555 v -1.269999 q 0,-0.606777 0.15522,-1.185332 0.15522,-0.592667 0.52211,-1.072444 0.381,-0.479778 0.94544,-0.719666 0.56445,-0.239889 1.17122,-0.239889 0.60678,0 1.17123,0.239889 0.56444,0.239888 0.93133,0.719666 0.381,0.479777 0.53622,1.072444 0.15522,0.578555 0.15522,1.185332 v 1.142999 h -4.45911 v 0.127 q 0,0.395111 0.0847,0.790222 0.0988,0.39511 0.32456,0.733777 0.22577,0.324555 0.59266,0.507999 0.36689,0.169334 0.762,0.169334 0.381,0 0.73378,-0.155223 0.36689,-0.169333 0.59266,-0.493888 0.23989,-0.324555 0.35278,-0.691444 l 1.03011,0.409222 q -0.18344,0.578555 -0.57855,1.044221 -0.39511,0.465667 -0.97367,0.691444 -0.56444,0.211667 -1.15711,0.211667 z m -1.76389,-4.36033 h 3.33022 v -0.127 q 0,-0.395111 -0.0847,-0.776111 -0.0706,-0.380999 -0.28222,-0.705555 -0.21167,-0.338666 -0.56445,-0.52211 -0.33867,-0.197556 -0.73378,-0.197556 -0.39511,0 -0.74788,0.197556 -0.33867,0.183444 -0.55034,0.52211 -0.21166,0.324556 -0.29633,0.705555 -0.0706,0.381 -0.0706,0.776111 z"
           style="font-style:normal;font-variant:normal;font-weight:normal;font-stretch:normal;font-family:'Iosevka Term';-inkscape-font-specification:'Iosevka Term';text-align:center;text-anchor:middle;stroke-width:0.264583"
           id="path79" />
        <path
           inkscape:connector-curvature="0"
           d="m 314.05443,-70.704181 q -0.62089,0 -1.19944,-0.225778 -0.57856,-0.225777 -0.97367,-0.705555 -0.39511,-0.479777 -0.56444,-1.072443 -0.15522,-0.606778 -0.15522,-1.213555 v -1.269999 q 0,-0.606777 0.15522,-1.185332 0.15522,-0.592667 0.52211,-1.072444 0.381,-0.479778 0.94544,-0.719666 0.56445,-0.239889 1.17122,-0.239889 0.60678,0 1.17123,0.239889 0.56444,0.239888 0.93133,0.719666 0.381,0.479777 0.53622,1.072444 0.15522,0.578555 0.15522,1.185332 v 1.142999 h -4.45911 v 0.127 q 0,0.395111 0.0847,0.790222 0.0988,0.39511 0.32456,0.733777 0.22577,0.324555 0.59266,0.507999 0.36689,0.169334 0.762,0.169334 0.381,0 0.73378,-0.155223 0.36689,-0.169333 0.59267,-0.493888 0.23988,-0.324555 0.35277,-0.691444 l 1.03011,0.409222 q -0.18344,0.578555 -0.57855,1.044221 -0.39511,0.465667 -0.97367,0.691444 -0.56444,0.211667 -1.15711,0.211667 z m -1.76389,-4.36033 h 3.33022 v -0.127 q 0,-0.395111 -0.0847,-0.776111 -0.0706,-0.380999 -0.28222,-0.705555 -0.21167,-0.338666 -0.56445,-0.52211 -0.33867,-0.197556 -0.73378,-0.197556 -0.39511,0 -0.74788,0.197556 -0.33867,0.183444 -0.55034,0.52211 -0.21166,0.324556 -0.29633,0.705555 -0.0706,0.381 -0.0706,0.776111 z"
           style="font-style:normal;font-variant:normal;font-weight:normal;font-stretch:normal;font-family:'Iosevka Term';-inkscape-font-specification:'Iosevka Term';text-align:center;text-anchor:middle;stroke-width:0.264583"
           id="path81" />
        <path
           inkscape:connector-curvature="0"
           d="m 322.08365,-70.704181 q -0.52211,0 -1.016,-0.225778 -0.47978,-0.225777 -0.79022,-0.64911 -0.29634,-0.437445 -0.42334,-0.945444 -0.11288,-0.508 -0.11288,-1.03011 v -3.725331 h -1.53811 v -1.015999 h 1.53811 v -2.892776 h 1.12888 v 2.892776 h 2.27189 v 1.015999 h -2.27189 v 3.725331 q 0,0.409221 0.0847,0.818443 0.0988,0.395111 0.40922,0.705555 0.31045,0.310445 0.71967,0.310445 0.35278,0 0.635,-0.239889 0.29633,-0.239889 0.40922,-0.578555 0.127,-0.338667 0.15522,-0.705555 l 1.10067,0.239888 q -0.0423,0.451556 -0.21167,0.874889 -0.16933,0.423333 -0.47978,0.761999 -0.31044,0.338666 -0.74788,0.508 -0.42334,0.155222 -0.86078,0.155222 z"
           style="font-style:normal;font-variant:normal;font-weight:normal;font-stretch:normal;font-family:'Iosevka Term';-inkscape-font-specification:'Iosevka Term';text-align:center;text-anchor:middle;stroke-width:0.264583"
           id="path83" />
        <path
           inkscape:connector-curvature="0"
           d="m 327.71398,-70.704181 q -0.43745,0 -0.86078,-0.183445 -0.42333,-0.183444 -0.71967,-0.52211 -0.28222,-0.352778 -0.45155,-0.762 -0.16934,-0.423333 -0.23989,-0.860777 -0.0564,-0.437444 -0.0564,-0.888999 v -4.374441 h 1.12888 v 4.374441 q 0,0.381 0.0706,0.761999 0.0706,0.366889 0.254,0.705555 0.18344,0.324556 0.508,0.536222 0.33866,0.197556 0.71966,0.197556 0.381,0 0.70556,-0.197556 0.33867,-0.211666 0.52211,-0.536222 0.18344,-0.338666 0.254,-0.705555 0.0706,-0.380999 0.0706,-0.761999 v -4.374441 h 1.12888 v 7.478883 h -1.12888 v -1.072444 q -0.14112,0.254 -0.32456,0.479778 -0.29633,0.338666 -0.71967,0.52211 -0.40922,0.183445 -0.86077,0.183445 z"
           style="font-style:normal;font-variant:normal;font-weight:normal;font-stretch:normal;font-family:'Iosevka Term';-inkscape-font-specification:'Iosevka Term';text-align:center;text-anchor:middle;stroke-width:0.264583"
           id="path85" />
        <path
           inkscape:connector-curvature="0"
           d="m 332.4412,-67.924294 v -10.371659 h 1.12888 v 1.072444 q 0.14112,-0.254 0.32456,-0.479778 0.29633,-0.352777 0.71967,-0.522111 0.42333,-0.183444 0.86077,-0.183444 0.57856,0 1.08656,0.282222 0.508,0.268111 0.80433,0.762 0.31044,0.493888 0.42333,1.058332 0.127,0.550333 0.127,1.114777 v 1.269999 q 0,0.564444 -0.127,1.128888 -0.11289,0.550333 -0.42333,1.044221 -0.29633,0.493889 -0.80433,0.776111 -0.508,0.268111 -1.08656,0.268111 -0.43744,0 -0.86077,-0.169333 -0.42334,-0.183445 -0.71967,-0.536222 -0.18344,-0.225778 -0.32456,-0.479778 v 3.96522 z m 2.69522,-3.795886 q 0.381,0 0.73377,-0.183445 0.35278,-0.197555 0.55034,-0.536222 0.21166,-0.338666 0.28222,-0.719666 0.0847,-0.380999 0.0847,-0.761999 v -1.269999 q 0,-0.381 -0.0847,-0.761999 -0.0706,-0.381 -0.28222,-0.719667 -0.19756,-0.338666 -0.55034,-0.52211 -0.35277,-0.197556 -0.73377,-0.197556 -0.381,0 -0.71967,0.197556 -0.33867,0.197555 -0.52211,0.536222 -0.18344,0.338666 -0.254,0.719666 -0.0706,0.366888 -0.0706,0.747888 v 1.269999 q 0,0.381 0.0706,0.761999 0.0706,0.366889 0.254,0.705555 0.18344,0.338667 0.52211,0.536222 0.33867,0.197556 0.71967,0.197556 z m -1.98967,-3.485442 v -0.05644 z"
           style="font-style:normal;font-variant:normal;font-weight:normal;font-stretch:normal;font-family:'Iosevka Term';-inkscape-font-specification:'Iosevka Term';text-align:center;text-anchor:middle;stroke-width:0.264583"
           id="path87" />
      </g>
      <path
         inkscape:connector-curvature="0"
         id="path1086"
         style="fill:#f2c95f;fill-opacity:1;fill-rule:evenodd;stroke:none;stroke-width:0.828563px;stroke-linecap:butt;stroke-linejoin:miter;stroke-opacity:1"
         d="m 218.22266,418.12695 -0.93555,0.41211 15.57227,6.04102 1.77343,-0.0879 z m 84.06445,0 -1.06445,0.41211 34.84765,15.36719 1.25977,36.43164 c 20.6005,18.29289 -26.14758,26.80891 -74.93555,26.94531 49.49877,0.0937 97.81754,-8.40247 76.93555,-26.94531 l -1.25977,-36.43164 z m -58.1543,5.99414 -1.86523,0.0918 c 6.0224,4.32182 11.87685,6.43762 17.58984,6.16016 -5.12092,-0.25019 -10.35559,-2.37147 -15.72461,-6.25196 z m 32.24219,0 c -0.0397,0.0334 -0.0795,0.0606 -0.11914,0.0937 l 7.39453,0.36524 0.22656,-0.0879 z m -52.70898,14.25977 c -1.22159,0 -2.21293,0.85421 -2.2129,1.9082 -3e-5,1.05399 0.99131,1.91016 2.2129,1.91016 0.36154,0 0.69678,-0.082 0.99804,-0.21484 -0.71623,-0.3163 -1.21096,-0.95383 -1.21094,-1.69532 -2e-5,-0.74149 0.49471,-1.37754 1.21094,-1.69336 -0.30126,-0.13265 -0.6365,-0.21484 -0.99804,-0.21484 z m 69.17773,0 c -1.22158,0 -2.21094,0.85421 -2.21094,1.9082 0,1.05399 0.98936,1.91016 2.21094,1.91016 0.36219,0 0.69835,-0.0815 1,-0.21484 -0.71632,-0.31614 -1.21094,-0.95347 -1.21094,-1.69532 0,-0.74184 0.49462,-1.37771 1.21094,-1.69336 -0.30165,-0.13309 -0.63781,-0.21484 -1,-0.21484 z m -83.7168,0.25391 c -1.22162,0 -2.21289,0.85617 -2.21289,1.91015 0,1.05399 0.99127,1.9082 2.21289,1.9082 0.36178,0 0.6986,-0.082 1,-0.21484 -0.71712,-0.31557 -1.21289,-0.95131 -1.21289,-1.69336 0,-0.74205 0.49577,-1.37927 1.21289,-1.69531 -0.3014,-0.13302 -0.63822,-0.21484 -1,-0.21484 z m 98.25586,0 c -1.22158,0 -2.21289,0.85617 -2.21289,1.91015 0,1.05399 0.99131,1.9082 2.21289,1.9082 0.36219,0 0.69835,-0.0817 1,-0.21484 -0.71712,-0.31557 -1.21289,-0.95131 -1.21289,-1.69336 0,-0.74205 0.49577,-1.37927 1.21289,-1.69531 -0.30165,-0.1333 -0.63781,-0.21484 -1,-0.21484 z m -48.9707,2.60156 c -1.34623,0 -2.43945,0.94197 -2.43945,2.10351 0,1.16155 1.09322,2.10352 2.43945,2.10352 0.35715,0 0.69251,-0.0704 0.99805,-0.18945 -0.84572,-0.33004 -1.4375,-1.06124 -1.4375,-1.91407 0,-0.85282 0.59178,-1.58403 1.4375,-1.91406 -0.30554,-0.11906 -0.6409,-0.18945 -0.99805,-0.18945 z m -17.64453,0.43945 c -1.22158,0 -2.21094,0.85422 -2.21094,1.9082 0,1.05399 0.98936,1.90821 2.21094,1.90821 0.3622,0 0.7003,-0.0817 1.00195,-0.21485 -0.71711,-0.31555 -1.21289,-0.9513 -1.21289,-1.69336 0,-0.74205 0.49578,-1.3778 1.21289,-1.69336 -0.30165,-0.13309 -0.63975,-0.21484 -1.00195,-0.21484 z m 34.97265,0 c -1.22158,0 -2.21289,0.85422 -2.21289,1.9082 0,1.05399 0.99131,1.90821 2.21289,1.90821 0.36179,0 0.6986,-0.082 1,-0.21485 -0.71678,-0.31565 -1.21289,-0.95151 -1.21289,-1.69336 0,-0.74184 0.49611,-1.3777 1.21289,-1.69336 -0.3014,-0.13281 -0.63821,-0.21484 -1,-0.21484 z m -77.89062,1.86914 c -1.22162,0 -2.21289,0.85617 -2.21289,1.91016 0,1.05399 0.99127,1.90625 2.21289,1.90625 0.36178,0 0.6986,-0.0801 1,-0.21289 -0.7168,-0.31565 -1.21289,-0.95152 -1.21289,-1.69336 0,-0.74185 0.49609,-1.37918 1.21289,-1.69531 -0.3014,-0.13302 -0.63822,-0.21485 -1,-0.21485 z m 120.80859,0 c -1.22158,0 -2.21289,0.85617 -2.21289,1.91016 0,1.05399 0.99131,1.90625 2.21289,1.90625 0.36178,0 0.6986,-0.0801 1,-0.21289 -0.71679,-0.31565 -1.21289,-0.95152 -1.21289,-1.69336 0,-0.74185 0.4961,-1.37918 1.21289,-1.69531 -0.3014,-0.13302 -0.63822,-0.21485 -1,-0.21485 z m -94.87109,1.75 c -2.09598,0.0501 -2.35352,2.73438 -2.35352,2.73438 l -0.16992,11.90429 4.72071,1.66407 c 0.004,-0.23369 0.006,-0.46748 0.01,-0.70118 l -2.73047,-0.96289 0.16992,-11.90429 c 0,0 0.16941,-1.76219 1.34961,-2.45703 -0.27585,-0.17943 -0.60484,-0.2867 -0.99609,-0.27735 z m 68.93359,0 c -2.09378,-0.0479 -2.39453,3.22461 -2.39453,3.22461 0,0 0.11752,8.85526 0.19727,13.07813 l 1.99023,-0.70118 c -0.079,-4.42977 -0.1875,-12.37695 -0.1875,-12.37695 0,0 0.19863,-2.16554 1.40039,-2.94726 -0.27566,-0.16261 -0.60707,-0.26753 -1.0039,-0.27735 z m -83.71484,0.25391 c -2.09579,-0.0501 -2.39844,3.22461 -2.39844,3.22461 0,0 0.11947,8.44706 0.19922,12.66992 h 2 c -0.0797,-4.22286 -0.19922,-12.66992 -0.19922,-12.66992 0,0 0.20013,-2.16555 1.40235,-2.94727 -0.27612,-0.16287 -0.6062,-0.26783 -1.00391,-0.27734 z m 98.49805,0 c -2.09598,0.0501 -2.35352,2.73437 -2.35352,2.73437 l -0.125,13.16016 h 2 l 0.125,-13.16016 c 0,0 0.16873,-1.76161 1.34766,-2.45703 -0.27594,-0.17942 -0.60292,-0.2867 -0.99414,-0.27734 z m -66.61524,3.04101 c -2.09597,0.0501 -2.35351,2.73438 -2.35351,2.73438 l -0.008,9.53711 2,-0.0137 0.008,-9.52344 c 0,0 0.16873,-1.76357 1.34765,-2.45899 -0.27539,-0.17856 -0.60199,-0.28472 -0.99219,-0.27539 z m 34.72852,0 c -2.09575,-0.0501 -2.39844,3.22461 -2.39844,3.22461 0,0 0.0804,4.79667 0.16016,9.01953 l 4.59961,0.0293 v -0.0137 l -2.59961,-0.0156 c -0.0798,-4.22286 -0.16016,-9.01953 -0.16016,-9.01953 0,0 0.20015,-2.16554 1.40234,-2.94726 -0.27584,-0.1624 -0.6049,-0.26785 -1.00195,-0.27735 z m -17.35547,0.0469 c -2.60073,0.0431 -2.91992,2.35156 -2.91992,2.35156 l -0.01,8.20703 2,-0.01 0.01,-8.19727 c 0,0 0.24488,-1.67869 1.9375,-2.19531 -0.29508,-0.10206 -0.62756,-0.16269 -1.01563,-0.15625 z m -71.29688,0.14453 c -1.22158,0 -2.21289,0.85421 -2.21289,1.9082 0,1.05399 0.99131,1.91016 2.21289,1.91016 0.36178,0 0.6986,-0.0818 1,-0.21484 -0.7168,-0.31614 -1.21289,-0.95347 -1.21289,-1.69532 0,-0.74184 0.49609,-1.37771 1.21289,-1.69336 -0.3014,-0.13281 -0.63822,-0.21484 -1,-0.21484 z m 142.57813,0 c -1.22162,0 -2.21289,0.85421 -2.21289,1.9082 0,1.05399 0.99127,1.91016 2.21289,1.91016 0.36177,0 0.6986,-0.0818 1,-0.21484 -0.7168,-0.31614 -1.21289,-0.95347 -1.21289,-1.69532 0,-0.74184 0.49609,-1.37771 1.21289,-1.69336 -0.3014,-0.13281 -0.63823,-0.21484 -1,-0.21484 z M 197.72852,450.459 c -2.09575,-0.0501 -2.39844,3.22461 -2.39844,3.22461 0,0 0.12142,6.84161 0.20117,11.06446 l 1.99609,-0.26172 c -0.0796,-4.23874 -0.19726,-10.80274 -0.19726,-10.80274 0,0 0.20209,-2.16555 1.4043,-2.94726 -0.27615,-0.1629 -0.6081,-0.26783 -1.00586,-0.27735 z m 121.05078,0 c -2.09598,0.0501 -2.35352,2.73438 -2.35352,2.73438 l -0.1582,10.9375 4.71094,0.61719 c 0.002,-0.0999 0.002,-0.15904 0.004,-0.26172 l -2.71484,-0.35547 0.1582,-10.9375 c 0,0 0.17067,-1.76162 1.34961,-2.45703 -0.27593,-0.17943 -0.60486,-0.2867 -0.99609,-0.27735 z m -131.93555,5.23633 c -2.09575,-0.0501 -2.39844,3.22461 -2.39844,3.22461 0,0 0.12143,8.44706 0.20117,12.66992 l 1.98438,-0.9375 c -0.0785,-4.42493 -0.18555,-11.73242 -0.18555,-11.73242 0,0 0.20015,-2.16554 1.40235,-2.94726 -0.27586,-0.16242 -0.60684,-0.26785 -1.00391,-0.27735 z m 142.82031,0 c -2.09559,0.0501 -2.35156,2.73438 -2.35156,2.73438 l -0.16016,10.9375 4.71094,2.22265 c 0.006,-0.31247 0.009,-0.58391 0.0156,-0.9375 l -2.72657,-1.28515 0.16016,-10.9375 c 0,0 0.16884,-1.76161 1.34766,-2.45703 -0.27594,-0.17943 -0.60486,-0.2867 -0.9961,-0.27735 z"
         transform="matrix(0.26458333,0,0,0.26458333,79.669983,-130.47022)" />
    </g>
  </g>
</svg>
