<?xml version="1.0" encoding="UTF-8" standalone="no"?>
<!-- Created with Inkscape (http://www.inkscape.org/) -->

<svg
   xmlns:dc="http://purl.org/dc/elements/1.1/"
   xmlns:cc="http://creativecommons.org/ns#"
   xmlns:rdf="http://www.w3.org/1999/02/22-rdf-syntax-ns#"
   xmlns:svg="http://www.w3.org/2000/svg"
   xmlns="http://www.w3.org/2000/svg"
   xmlns:sodipodi="http://sodipodi.sourceforge.net/DTD/sodipodi-0.dtd"
   xmlns:inkscape="http://www.inkscape.org/namespaces/inkscape"
   width="99.492256mm"
   height="111.06153mm"
   viewBox="0 0 99.492256 111.06153"
   version="1.1"
   id="svg8"
   inkscape:version=""
   sodipodi:docname="firewall.svg">
  <defs
     id="defs2" />
  <sodipodi:namedview
     id="base"
     pagecolor="#ffffff"
     bordercolor="#666666"
     borderopacity="1.0"
     inkscape:pageopacity="0.0"
     inkscape:pageshadow="2"
     inkscape:zoom="1.979899"
     inkscape:cx="115.43885"
     inkscape:cy="284.52548"
     inkscape:document-units="mm"
     inkscape:current-layer="layer1"
     showgrid="false"
     fit-margin-top="0"
     fit-margin-left="0"
     fit-margin-right="0"
     fit-margin-bottom="0"
     inkscape:window-width="3200"
     inkscape:window-height="1745"
     inkscape:window-x="0"
     inkscape:window-y="55"
     inkscape:window-maximized="1" />
  <metadata
     id="metadata5">
    <rdf:RDF>
      <cc:Work
         rdf:about="">
        <dc:format>image/svg+xml</dc:format>
        <dc:type
           rdf:resource="http://purl.org/dc/dcmitype/StillImage" />
        <dc:title></dc:title>
      </cc:Work>
    </rdf:RDF>
  </metadata>
  <g
     inkscape:label="Layer 1"
     inkscape:groupmode="layer"
     id="layer1"
     transform="translate(-58.873163,-148.27775)">
    <path
       style="fill:#ff9595;stroke-width:0.26458332;fill-opacity:1"
       d="m 58.873163,252.5924 v -6.74687 h 14.55208 14.55209 v 6.74687 6.74688 h -14.55209 -14.55208 z m 35.18958,0 v -6.74687 h 14.552077 14.55209 v 6.74687 6.74688 H 108.61482 94.062743 Z m 35.189577,0 v -6.74687 h 14.55209 14.55208 v 6.74687 6.74688 H 143.80441 129.25232 Z M 58.873163,233.01324 v -6.74688 h 5.82083 5.82084 v 6.74688 6.74687 h -5.82084 -5.82083 z m 17.72708,0 v -6.74688 h 14.55209 14.552077 v 6.74688 6.74687 H 91.152333 76.600243 Z m 34.924997,0 v -6.74688 h 14.55208 14.55209 v 6.74688 6.74687 h -14.55209 -14.55208 z m 35.18959,0 v -6.74688 h 5.82083 5.82083 v 6.74688 6.74687 h -5.82083 -5.82083 z m -86.188017,-12.77877 -1.65365,-0.0788 v -6.73425 -6.73425 h 14.55208 14.55209 v 6.74687 6.74688 l -1.91823,0.0138 c -11.59547,0.0833 -24.20529,0.10295 -25.53229,0.0397 z m 33.53595,-6.73425 -2e-5,-6.81302 h 14.552077 14.55209 v 6.74687 6.74688 l -1.12448,0.0143 c -0.61847,0.008 -7.1669,0.0377 -14.55207,0.0661 l -13.427587,0.0518 z m 36.049457,6.73011 -0.8599,-0.0829 v -6.73011 -6.73011 h 14.55655 14.55655 l -0.0706,6.7739 -0.0706,6.7739 -13.62604,0.0391 c -7.49433,0.0215 -14.013,0.002 -14.48594,-0.0438 z M 86.570583,200.40334 c -0.0633,-0.10914 -0.33491,-1.03187 -0.60361,-2.05052 -0.37291,-1.41373 -0.48965,-2.82271 -0.49324,-5.95312 -0.005,-3.95618 0.0306,-4.22488 0.99481,-7.6067 0.54973,-1.92811 1.06906,-4.25043 1.15407,-5.16072 0.31821,-3.40766 -0.82404,-6.0608 -3.27984,-7.61822 -0.67735,-0.42957 -1.14175,-0.78103 -1.03199,-0.78103 0.10976,0 1.0558,0.13217 2.10232,0.29372 3.35172,0.51738 6.12215,2.12138 7.90129,4.57463 0.89045,1.22781 0.89158,1.22171 0.22713,-1.22737 -3.05971,-11.27769 1.28602,-19.89153 12.250497,-24.28221 2.07774,-0.83202 5.80204,-1.86854 8.11447,-2.25837 0.60335,-0.10171 0.61829,-0.0828 0.1701,0.2154 -2.87804,1.9148 -3.68647,3.09942 -3.66605,5.37202 0.0355,3.94678 3.98071,9.62958 13.60653,19.59908 6.20804,6.4297 8.47545,9.88626 9.76501,14.88631 0.86908,3.36972 0.63445,8.39371 -0.53557,11.46794 l -0.27692,0.7276 -4.70291,-0.0162 -4.7029,-0.0162 -0.79375,-1.09172 c -0.77654,-1.06805 -4.17358,-3.62446 -4.82864,-3.63376 -0.18531,-0.003 -0.33117,0.31524 -0.33172,0.72292 -10e-4,0.81044 -0.75677,2.20255 -1.79528,3.30729 -0.64579,0.68697 -0.81421,0.7276 -3.01573,0.7276 -1.76814,0 -2.33175,-0.0854 -2.33175,-0.3532 0,-0.19427 0.61911,-1.53372 1.37581,-2.97657 2.50961,-4.78524 3.15326,-6.2324 3.6692,-8.24972 0.911,-3.56195 0.52476,-6.67989 -1.05653,-8.52884 l -0.79198,-0.92604 -0.0107,1.07253 c -0.0155,1.54817 -1.09962,3.50343 -2.99244,5.39711 -2.12236,2.12333 -4.7501,3.86991 -8.79147,5.84346 -1.78064,0.86954 -3.782507,2.0607 -4.448577,2.647 -1.33217,1.17262 -2.45206,3.2093 -2.72169,4.94979 l -0.1742,1.12448 h -3.91932 c -2.15563,0 -3.9711,-0.0893 -4.03438,-0.19844 z m 37.995877,-32.54963 c -1.34876,-1.05428 -2.38743,-5.04981 -1.93412,-7.44013 0.4419,-2.3301 1.75497,-3.73263 3.49455,-3.73263 1.34811,0 1.6554,0.6202 1.43088,2.888 -0.51703,5.22254 -0.51723,5.29961 -0.0151,5.85443 0.46751,0.51659 0.45893,0.53671 -0.36092,0.84617 -1.01281,0.38229 -1.0357,0.53766 -0.17857,1.21188 0.5489,0.43176 0.59018,0.54742 0.24295,0.68067 -0.78344,0.30063 -2.09338,0.14988 -2.67965,-0.30839 z"
       id="path826"
       inkscape:connector-curvature="0" />
  </g>
</svg>
