<?xml version="1.0" encoding="UTF-8" standalone="no"?>
<svg
   xmlns:dc="http://purl.org/dc/elements/1.1/"
   xmlns:cc="http://creativecommons.org/ns#"
   xmlns:rdf="http://www.w3.org/1999/02/22-rdf-syntax-ns#"
   xmlns:svg="http://www.w3.org/2000/svg"
   xmlns="http://www.w3.org/2000/svg"
   xmlns:sodipodi="http://sodipodi.sourceforge.net/DTD/sodipodi-0.dtd"
   xmlns:inkscape="http://www.inkscape.org/namespaces/inkscape"
   viewBox="0 0 1794.343 1871.2792"
   height="1871.2792"
   width="1794.343"
   xml:space="preserve"
   version="1.1"
   id="svg2"
   inkscape:version="0.91 r13725"
   sodipodi:docname="hubble.svg"><sodipodi:namedview
     pagecolor="#ffffff"
     bordercolor="#666666"
     borderopacity="1"
     objecttolerance="10"
     gridtolerance="10"
     guidetolerance="10"
     inkscape:pageopacity="0"
     inkscape:pageshadow="2"
     inkscape:window-width="1366"
     inkscape:window-height="741"
     id="namedview10762"
     showgrid="false"
     inkscape:zoom="0.1668772"
     inkscape:cx="650.11059"
     inkscape:cy="960.19434"
     inkscape:window-x="0"
     inkscape:window-y="27"
     inkscape:window-maximized="1"
     inkscape:current-layer="g11304"
     fit-margin-top="0"
     fit-margin-left="0"
     fit-margin-right="0"
     fit-margin-bottom="0" /><metadata
     id="metadata8"><rdf:RDF><cc:Work
         rdf:about=""><dc:format>image/svg+xml</dc:format><dc:type
           rdf:resource="http://purl.org/dc/dcmitype/StillImage" /><dc:title></dc:title></cc:Work></rdf:RDF></metadata><defs
     id="defs6"><radialGradient
       id="radialGradient24"
       spreadMethod="pad"
       gradientTransform="matrix(-2.0506656,154.18004,-448.87433,-5.9701467,121,-23.5)"
       gradientUnits="userSpaceOnUse"
       r="1"
       cy="0"
       cx="0"
       fy="0"
       fx="0"><stop
         id="stop26"
         offset="0"
         style="stop-opacity:1;stop-color:#00adef" /><stop
         id="stop28"
         offset="0.423363"
         style="stop-opacity:1;stop-color:#00adef" /><stop
         id="stop30"
         offset="0.499755"
         style="stop-opacity:1;stop-color:#133453" /><stop
         id="stop32"
         offset="0.541874"
         style="stop-opacity:1;stop-color:#163150" /><stop
         id="stop34"
         offset="0.606869"
         style="stop-opacity:1;stop-color:#212844" /><stop
         id="stop36"
         offset="1"
         style="stop-opacity:1;stop-color:#000000" /></radialGradient><clipPath
       id="clipPath44"
       clipPathUnits="userSpaceOnUse"><path
         id="path46"
         d="M 9.49,126 C 9.49,61.654 61.654,9.49 126,9.49 l 0,0 c 64.347,0 116.51,52.164 116.51,116.51 l 0,0 c 0,64.347 -52.163,116.511 -116.51,116.511 l 0,0 C 61.654,242.511 9.49,190.347 9.49,126"
         inkscape:connector-curvature="0" /></clipPath><clipPath
       id="clipPath256"
       clipPathUnits="userSpaceOnUse"><path
         id="path258"
         d="M 0,252 252,252 252,0 0,0 0,252 Z"
         inkscape:connector-curvature="0" /></clipPath><linearGradient
       id="linearGradient420"
       spreadMethod="pad"
       gradientTransform="matrix(43.533802,12.277101,-12.277101,43.533802,149.34375,113.03125)"
       gradientUnits="userSpaceOnUse"
       y2="0"
       x2="1"
       y1="0"
       x1="0"><stop
         id="stop422"
         offset="0"
         style="stop-opacity:1;stop-color:#737070" /><stop
         id="stop424"
         offset="0.260882"
         style="stop-opacity:1;stop-color:#706c68" /><stop
         id="stop426"
         offset="0.381258"
         style="stop-opacity:1;stop-color:#c1c0c1" /><stop
         id="stop428"
         offset="0.562062"
         style="stop-opacity:1;stop-color:#4a413e" /><stop
         id="stop430"
         offset="1"
         style="stop-opacity:1;stop-color:#000000" /></linearGradient><linearGradient
       id="linearGradient446"
       spreadMethod="pad"
       gradientTransform="matrix(35.966896,10.540898,-10.540898,35.966896,155.65625,114.3125)"
       gradientUnits="userSpaceOnUse"
       y2="0"
       x2="1"
       y1="0"
       x1="0"><stop
         id="stop448"
         offset="0"
         style="stop-opacity:1;stop-color:#807e7e" /><stop
         id="stop450"
         offset="0.186842"
         style="stop-opacity:1;stop-color:#807e7e" /><stop
         id="stop452"
         offset="0.307358"
         style="stop-opacity:1;stop-color:#a9a5a3" /><stop
         id="stop454"
         offset="0.45464"
         style="stop-opacity:1;stop-color:#c1c0c1" /><stop
         id="stop456"
         offset="0.614019"
         style="stop-opacity:1;stop-color:#39302e" /><stop
         id="stop458"
         offset="1"
         style="stop-opacity:1;stop-color:#202022" /></linearGradient><clipPath
       id="clipPath466"
       clipPathUnits="userSpaceOnUse"><path
         id="path468"
         d="M 0,252 252,252 252,0 0,0 0,252 Z"
         inkscape:connector-curvature="0" /></clipPath><clipPath
       id="clipPath490"
       clipPathUnits="userSpaceOnUse"><path
         id="path492"
         d="m 128.414,108.851 13.75,-48.562 18.75,5.125 -13.875,48.75 -18.625,-5.313 z"
         inkscape:connector-curvature="0" /></clipPath><clipPath
       id="clipPath510"
       clipPathUnits="userSpaceOnUse"><path
         id="path512"
         d="m 192.539,127.102 13.75,-48.563 18.75,5.125 -13.75,48.75 -18.75,-5.312 z"
         inkscape:connector-curvature="0" /></clipPath><clipPath
       id="clipPath530"
       clipPathUnits="userSpaceOnUse"><path
         id="path532"
         d="M 0,252 252,252 252,0 0,0 0,252 Z"
         inkscape:connector-curvature="0" /></clipPath><linearGradient
       id="linearGradient558"
       spreadMethod="pad"
       gradientTransform="matrix(45.912373,13.439192,-13.439192,45.912373,164.5,63.5625)"
       gradientUnits="userSpaceOnUse"
       y2="0"
       x2="1"
       y1="0"
       x1="0"><stop
         id="stop560"
         offset="0"
         style="stop-opacity:1;stop-color:#737070" /><stop
         id="stop562"
         offset="0.200634"
         style="stop-opacity:1;stop-color:#6d6a66" /><stop
         id="stop564"
         offset="0.258052"
         style="stop-opacity:1;stop-color:#a9a5a3" /><stop
         id="stop566"
         offset="0.443838"
         style="stop-opacity:1;stop-color:#c1c0c1" /><stop
         id="stop568"
         offset="0.580018"
         style="stop-opacity:1;stop-color:#39302e" /><stop
         id="stop570"
         offset="1"
         style="stop-opacity:1;stop-color:#000000" /></linearGradient><clipPath
       id="clipPath578"
       clipPathUnits="userSpaceOnUse"><path
         id="path580"
         d="m 160.669,152.609 c -7.593,-2.145 -13.448,-4.92 -13.088,-6.195 l 0,0 16.896,-59.667 c 0.361,-1.281 6.8,-0.571 14.392,1.575 l 0,0 c 7.597,2.148 13.459,4.916 13.096,6.198 l 0,0 -16.893,59.666 c -0.122,0.431 -0.936,0.636 -2.257,0.636 l 0,0 c -2.586,0 -7.114,-0.79 -12.146,-2.213"
         inkscape:connector-curvature="0" /></clipPath><linearGradient
       id="linearGradient598"
       spreadMethod="pad"
       gradientTransform="matrix(9.8047285,2.9070227,-2.9070227,9.8047285,152.12891,115.75781)"
       gradientUnits="userSpaceOnUse"
       y2="0"
       x2="1"
       y1="0"
       x1="0"><stop
         id="stop600"
         offset="0"
         style="stop-opacity:1;stop-color:#737070" /><stop
         id="stop602"
         offset="0.0102041"
         style="stop-opacity:1;stop-color:#737070" /><stop
         id="stop604"
         offset="0.52842"
         style="stop-opacity:1;stop-color:#737070" /><stop
         id="stop606"
         offset="0.779875"
         style="stop-opacity:1;stop-color:#8a8581" /><stop
         id="stop608"
         offset="1"
         style="stop-opacity:1;stop-color:#8a8581" /></linearGradient><clipPath
       id="clipPath616"
       clipPathUnits="userSpaceOnUse"><path
         id="path618"
         d="m 160.669,152.609 c -7.593,-2.145 -13.448,-4.92 -13.088,-6.195 l 0,0 16.896,-59.667 c 0.361,-1.281 6.8,-0.571 14.392,1.575 l 0,0 c 7.597,2.148 13.459,4.916 13.096,6.198 l 0,0 -16.893,59.666 c -0.122,0.431 -0.936,0.636 -2.257,0.636 l 0,0 c -2.586,0 -7.114,-0.79 -12.146,-2.213"
         inkscape:connector-curvature="0" /></clipPath><linearGradient
       id="linearGradient636"
       spreadMethod="pad"
       gradientTransform="matrix(10.147516,2.9110489,-2.9110489,10.147516,170.33984,120.48438)"
       gradientUnits="userSpaceOnUse"
       y2="0"
       x2="1"
       y1="0"
       x1="0"><stop
         id="stop638"
         offset="0"
         style="stop-opacity:1;stop-color:#aaa6a5" /><stop
         id="stop640"
         offset="0.255441"
         style="stop-opacity:1;stop-color:#4a413e" /><stop
         id="stop642"
         offset="0.444754"
         style="stop-opacity:1;stop-color:#39302e" /><stop
         id="stop644"
         offset="1"
         style="stop-opacity:1;stop-color:#000000" /></linearGradient><linearGradient
       id="linearGradient660"
       spreadMethod="pad"
       gradientTransform="matrix(9.5943899,2.8898885,-2.8898885,9.5943899,181.09766,123.53125)"
       gradientUnits="userSpaceOnUse"
       y2="0"
       x2="1"
       y1="0"
       x1="0"><stop
         id="stop662"
         offset="0"
         style="stop-opacity:1;stop-color:#7a7877" /><stop
         id="stop664"
         offset="0.411711"
         style="stop-opacity:1;stop-color:#918f90" /><stop
         id="stop666"
         offset="1"
         style="stop-opacity:1;stop-color:#898484" /></linearGradient><linearGradient
       id="linearGradient682"
       spreadMethod="pad"
       gradientTransform="matrix(4.0643015,1.1597003,-1.1597003,4.0643015,178.4043,122.88281)"
       gradientUnits="userSpaceOnUse"
       y2="0"
       x2="1"
       y1="0"
       x1="0"><stop
         id="stop684"
         offset="0"
         style="stop-opacity:1;stop-color:#2d292a" /><stop
         id="stop686"
         offset="0.123426"
         style="stop-opacity:1;stop-color:#7d7b7b" /><stop
         id="stop688"
         offset="0.345504"
         style="stop-opacity:1;stop-color:#484546" /><stop
         id="stop690"
         offset="1"
         style="stop-opacity:1;stop-color:#363233" /></linearGradient><clipPath
       id="clipPath698"
       clipPathUnits="userSpaceOnUse"><path
         id="path700"
         d="m 177.574,93.262 c -10.026,-2.834 -17.756,-6.495 -17.28,-8.18 l 0,0 11.505,-40.694 c 0.478,-1.691 8.98,-0.753 19.003,2.08 l 0,0 c 10.03,2.836 17.768,6.49 17.289,8.184 l 0,0 -11.503,40.691 c -0.16,0.569 -1.236,0.84 -2.976,0.84 l 0,0 c -3.417,0 -9.392,-1.042 -16.038,-2.921"
         inkscape:connector-curvature="0" /></clipPath><linearGradient
       id="linearGradient718"
       spreadMethod="pad"
       gradientTransform="matrix(12.070489,3.5787969,-3.5787969,12.070489,161.35937,63.757812)"
       gradientUnits="userSpaceOnUse"
       y2="0"
       x2="1"
       y1="0"
       x1="0"><stop
         id="stop720"
         offset="0"
         style="stop-opacity:1;stop-color:#737070" /><stop
         id="stop722"
         offset="0.0102041"
         style="stop-opacity:1;stop-color:#737070" /><stop
         id="stop724"
         offset="0.52842"
         style="stop-opacity:1;stop-color:#737070" /><stop
         id="stop726"
         offset="0.779875"
         style="stop-opacity:1;stop-color:#8a8581" /><stop
         id="stop728"
         offset="1"
         style="stop-opacity:1;stop-color:#8a8581" /></linearGradient><clipPath
       id="clipPath736"
       clipPathUnits="userSpaceOnUse"><path
         id="path738"
         d="m 177.574,93.262 c -10.026,-2.834 -17.756,-6.495 -17.28,-8.18 l 0,0 11.505,-40.694 c 0.478,-1.691 8.98,-0.753 19.003,2.08 l 0,0 c 10.03,2.836 17.768,6.49 17.289,8.184 l 0,0 -11.503,40.691 c -0.16,0.569 -1.236,0.84 -2.976,0.84 l 0,0 c -3.417,0 -9.392,-1.042 -16.038,-2.921"
         inkscape:connector-curvature="0" /></clipPath><linearGradient
       id="linearGradient756"
       spreadMethod="pad"
       gradientTransform="matrix(13.231215,3.7957044,-3.7957044,13.231215,185.13281,69.890625)"
       gradientUnits="userSpaceOnUse"
       y2="0"
       x2="1"
       y1="0"
       x1="0"><stop
         id="stop758"
         offset="0"
         style="stop-opacity:1;stop-color:#aaa6a5" /><stop
         id="stop760"
         offset="0.255441"
         style="stop-opacity:1;stop-color:#4a413e" /><stop
         id="stop762"
         offset="0.444754"
         style="stop-opacity:1;stop-color:#39302e" /><stop
         id="stop764"
         offset="1"
         style="stop-opacity:1;stop-color:#000000" /></linearGradient><linearGradient
       id="linearGradient780"
       spreadMethod="pad"
       gradientTransform="matrix(13.588095,4.1677985,-4.1677985,13.588095,198.89844,73.703125)"
       gradientUnits="userSpaceOnUse"
       y2="0"
       x2="1"
       y1="0"
       x1="0"><stop
         id="stop782"
         offset="0"
         style="stop-opacity:1;stop-color:#7a7877" /><stop
         id="stop784"
         offset="0.411711"
         style="stop-opacity:1;stop-color:#918f90" /><stop
         id="stop786"
         offset="1"
         style="stop-opacity:1;stop-color:#898484" /></linearGradient><linearGradient
       id="linearGradient802"
       spreadMethod="pad"
       gradientTransform="matrix(5.3657055,1.5311016,-1.5311016,5.3657055,195.48242,73.015625)"
       gradientUnits="userSpaceOnUse"
       y2="0"
       x2="1"
       y1="0"
       x1="0"><stop
         id="stop804"
         offset="0"
         style="stop-opacity:1;stop-color:#2d292a" /><stop
         id="stop806"
         offset="0.123426"
         style="stop-opacity:1;stop-color:#7d7b7b" /><stop
         id="stop808"
         offset="0.345504"
         style="stop-opacity:1;stop-color:#484546" /><stop
         id="stop810"
         offset="1"
         style="stop-opacity:1;stop-color:#363233" /></linearGradient><clipPath
       id="clipPath818"
       clipPathUnits="userSpaceOnUse"><path
         id="path820"
         d="M 0,252 252,252 252,0 0,0 0,252 Z"
         inkscape:connector-curvature="0" /></clipPath><clipPath
       id="clipPath340"
       clipPathUnits="userSpaceOnUse"><path
         id="path342"
         d="M 0,252 252,252 252,0 0,0 0,252 Z"
         inkscape:connector-curvature="0" /></clipPath><clipPath
       id="clipPath300"
       clipPathUnits="userSpaceOnUse"><path
         id="path302"
         d="m 177.268,93.262 c -10.024,-2.834 -17.755,-6.495 -17.279,-8.18 l 0,0 11.504,-40.694 c 0.479,-1.691 8.981,-0.753 19.002,2.08 l 0,0 c 10.031,2.836 17.77,6.49 17.29,8.184 l 0,0 -11.503,40.691 c -0.161,0.569 -1.235,0.84 -2.976,0.84 l 0,0 c -3.417,0 -9.392,-1.042 -16.038,-2.921"
         inkscape:connector-curvature="0" /></clipPath><clipPath
       id="clipPath260"
       clipPathUnits="userSpaceOnUse"><path
         id="path262"
         d="m 160.332,152.706 c -7.595,-2.147 -13.45,-4.919 -13.09,-6.196 l 0,0 16.929,-59.763 c 0.362,-1.281 6.801,-0.571 14.393,1.575 l 0,0 c 7.597,2.148 13.458,4.916 13.096,6.198 l 0,0 -16.927,59.763 c -0.12,0.43 -0.936,0.635 -2.254,0.635 l 0,0 c -2.589,0 -7.115,-0.789 -12.147,-2.212"
         inkscape:connector-curvature="0" /></clipPath><linearGradient
       id="linearGradient240"
       spreadMethod="pad"
       gradientTransform="matrix(45.929722,13.44427,-13.44427,45.929722,164.15625,63.5)"
       gradientUnits="userSpaceOnUse"
       y2="0"
       x2="1"
       y1="0"
       x1="0"><stop
         id="stop242"
         offset="0"
         style="stop-opacity:1;stop-color:#737070" /><stop
         id="stop244"
         offset="0.200634"
         style="stop-opacity:1;stop-color:#6d6a66" /><stop
         id="stop246"
         offset="0.258052"
         style="stop-opacity:1;stop-color:#a9a5a3" /><stop
         id="stop248"
         offset="0.443838"
         style="stop-opacity:1;stop-color:#c1c0c1" /><stop
         id="stop250"
         offset="0.580018"
         style="stop-opacity:1;stop-color:#39302e" /><stop
         id="stop252"
         offset="1"
         style="stop-opacity:1;stop-color:#000000" /></linearGradient><clipPath
       id="clipPath212"
       clipPathUnits="userSpaceOnUse"><path
         id="path214"
         d="M 0,252 252,252 252,0 0,0 0,252 Z"
         inkscape:connector-curvature="0" /></clipPath><clipPath
       id="clipPath192"
       clipPathUnits="userSpaceOnUse"><path
         id="path194"
         d="m 192.039,127.102 13.751,-48.563 18.749,5.125 -13.75,48.75 -18.75,-5.312 z"
         inkscape:connector-curvature="0" /></clipPath><clipPath
       id="clipPath172"
       clipPathUnits="userSpaceOnUse"><path
         id="path174"
         d="m 127.914,108.851 13.75,-48.562 18.75,5.125 -13.875,48.75 -18.625,-5.313 z"
         inkscape:connector-curvature="0" /></clipPath><clipPath
       id="clipPath16"
       clipPathUnits="userSpaceOnUse"><path
         id="path18"
         d="M 0,252 252,252 252,0 0,0 0,252 Z"
         inkscape:connector-curvature="0" /></clipPath></defs><g
     transform="matrix(1.25,0,0,-1.25,-730.17881,2805.888)"
     id="g10"><g
       id="g11304"><g
         style="fill:#eee8d5;fill-opacity:1;stroke:#eee8d5;stroke-opacity:1"
         transform="matrix(13.341439,4.4570165,-4.4570165,13.341439,-625.1734,-595.85287)"
         id="g12"><g
           style="fill:#eee8d5;fill-opacity:1;stroke:#eee8d5;stroke-opacity:1"
           id="g14"
           clip-path="url(#clipPath16)"><g
             style="fill:#eee8d5;fill-opacity:1;stroke:#eee8d5;stroke-opacity:1"
             id="g32"
             transform="translate(49.3232,195.3545)" /><g
             style="fill:#eee8d5;fill-opacity:1;stroke:#eee8d5;stroke-opacity:1"
             id="g152"
             transform="translate(224.5107,83.7217)"><path
               inkscape:connector-curvature="0"
               d="M 0,0 -18.697,-5.286 -32.489,43.499 -13.793,48.785 0,0 Z"
               style="fill:#eee8d5;fill-opacity:1;fill-rule:nonzero;stroke:#eee8d5;stroke-opacity:1"
               id="path154" /></g><g
             style="fill:#eee8d5;fill-opacity:1;stroke:#eee8d5;stroke-opacity:1"
             id="g156"
             transform="translate(160.3086,65.5703)"><path
               inkscape:connector-curvature="0"
               d="M 0,0 -18.704,-5.288 -32.496,43.497 -13.792,48.785 0,0 Z"
               style="fill:#eee8d5;fill-opacity:1;fill-rule:nonzero;stroke:#eee8d5;stroke-opacity:1"
               id="path158" /></g><g
             style="fill:#eee8d5;fill-opacity:1;stroke:#eee8d5;stroke-opacity:1"
             id="g160"
             transform="translate(210.7178,132.5068)"><path
               inkscape:connector-curvature="0"
               d="m 0,0 -18.696,-5.286 7.017,-24.307 18.791,4.437 L 0,0 Z"
               style="fill:#eee8d5;fill-opacity:1;fill-rule:nonzero;stroke:#eee8d5;stroke-opacity:1"
               id="path162" /></g><g
             style="fill:#eee8d5;fill-opacity:1;stroke:#eee8d5;stroke-opacity:1"
             id="g164"
             transform="translate(146.5166,114.3555)"><path
               inkscape:connector-curvature="0"
               d="m 0,0 -18.704,-5.288 6.789,-24.016 18.791,4.981 L 0,0 Z"
               style="fill:#eee8d5;fill-opacity:1;fill-rule:nonzero;stroke:#eee8d5;stroke-opacity:1"
               id="path166" /></g></g></g><g
         style="fill:#eee8d5;fill-opacity:1;stroke:#eee8d5;stroke-opacity:1"
         transform="matrix(13.341439,4.4570165,-4.4570165,13.341439,-625.1734,-595.85287)"
         id="g168"><g
           style="fill:#eee8d5;fill-opacity:1;stroke:#eee8d5;stroke-opacity:1"
           id="g170"
           clip-path="url(#clipPath172)"><g
             style="fill:#eee8d5;fill-opacity:1;stroke:#eee8d5;stroke-opacity:1"
             id="g176"
             transform="translate(141.1641,116.7891)"><path
               inkscape:connector-curvature="0"
               d="M 0,0 15.311,-54.333"
               style="fill:#eee8d5;fill-opacity:1;stroke:#eee8d5;stroke-width:1;stroke-linecap:butt;stroke-linejoin:miter;stroke-miterlimit:10;stroke-dasharray:none;stroke-opacity:1"
               id="path178" /></g><g
             style="fill:#eee8d5;fill-opacity:1;stroke:#eee8d5;stroke-opacity:1"
             id="g180"
             transform="translate(135.9141,116.7891)"><path
               inkscape:connector-curvature="0"
               d="M 0,0 15.5,-55.125"
               style="fill:#eee8d5;fill-opacity:1;stroke:#eee8d5;stroke-width:1;stroke-linecap:butt;stroke-linejoin:miter;stroke-miterlimit:10;stroke-dasharray:none;stroke-opacity:1"
               id="path182" /></g><g
             style="fill:#eee8d5;fill-opacity:1;stroke:#eee8d5;stroke-opacity:1"
             id="g184"
             transform="translate(131.2891,114.0391)"><path
               inkscape:connector-curvature="0"
               d="M 0,0 15.5,-54.25"
               style="fill:#eee8d5;fill-opacity:1;stroke:#eee8d5;stroke-width:1;stroke-linecap:butt;stroke-linejoin:miter;stroke-miterlimit:10;stroke-dasharray:none;stroke-opacity:1"
               id="path186" /></g></g></g><g
         style="fill:#eee8d5;fill-opacity:1;stroke:#eee8d5;stroke-opacity:1"
         transform="matrix(13.341439,4.4570165,-4.4570165,13.341439,-625.1734,-595.85287)"
         id="g188"><g
           style="fill:#eee8d5;fill-opacity:1;stroke:#eee8d5;stroke-opacity:1"
           id="g190"
           clip-path="url(#clipPath192)"><g
             style="fill:#eee8d5;fill-opacity:1;stroke:#eee8d5;stroke-opacity:1"
             id="g196"
             transform="translate(205.2891,135.0391)"><path
               inkscape:connector-curvature="0"
               d="M 0,0 15.311,-54.333"
               style="fill:#eee8d5;fill-opacity:1;stroke:#eee8d5;stroke-width:1;stroke-linecap:butt;stroke-linejoin:miter;stroke-miterlimit:10;stroke-dasharray:none;stroke-opacity:1"
               id="path198" /></g><g
             style="fill:#eee8d5;fill-opacity:1;stroke:#eee8d5;stroke-opacity:1"
             id="g200"
             transform="translate(200.0391,135.0391)"><path
               inkscape:connector-curvature="0"
               d="M 0,0 15.5,-55.125"
               style="fill:#eee8d5;fill-opacity:1;stroke:#eee8d5;stroke-width:1;stroke-linecap:butt;stroke-linejoin:miter;stroke-miterlimit:10;stroke-dasharray:none;stroke-opacity:1"
               id="path202" /></g><g
             style="fill:#eee8d5;fill-opacity:1;stroke:#eee8d5;stroke-opacity:1"
             id="g204"
             transform="translate(195.4141,132.2891)"><path
               inkscape:connector-curvature="0"
               d="M 0,0 15.5,-54.25"
               style="fill:#eee8d5;fill-opacity:1;stroke:#eee8d5;stroke-width:1;stroke-linecap:butt;stroke-linejoin:miter;stroke-miterlimit:10;stroke-dasharray:none;stroke-opacity:1"
               id="path206" /></g></g></g><g
         style="fill:#eee8d5;fill-opacity:1;stroke:#eee8d5;stroke-opacity:1"
         transform="matrix(13.341439,4.4570165,-4.4570165,13.341439,-625.1734,-595.85287)"
         id="g208"><g
           style="fill:#eee8d5;fill-opacity:1;stroke:#eee8d5;stroke-opacity:1"
           id="g210"
           clip-path="url(#clipPath212)"><g
             style="fill:#eee8d5;fill-opacity:1;stroke:#eee8d5;stroke-opacity:1"
             id="g216"
             transform="translate(141.6641,60.2891)"><path
               inkscape:connector-curvature="0"
               d="M 0,0 18.646,5.282 4.853,54.066 5.625,53.625 19.437,4.812 0.75,-0.437 0,0 Z"
               style="fill:#eee8d5;fill-opacity:1;fill-rule:nonzero;stroke:#eee8d5;stroke-opacity:1"
               id="path218" /></g><g
             style="fill:#eee8d5;fill-opacity:1;stroke:#eee8d5;stroke-opacity:1"
             id="g220"
             transform="translate(205.9141,78.5391)"><path
               inkscape:connector-curvature="0"
               d="M 0,0 18.646,5.282 4.853,54.066 5.625,53.625 19.437,4.812 0.75,-0.437 0,0 Z"
               style="fill:#eee8d5;fill-opacity:1;fill-rule:nonzero;stroke:#eee8d5;stroke-opacity:1"
               id="path222" /></g><g
             style="fill:#eee8d5;fill-opacity:1;stroke:#eee8d5;stroke-opacity:1"
             id="g224"
             transform="translate(134.7061,84.8721)"><path
               inkscape:connector-curvature="0"
               d="M 0,0 82.958,22.979"
               style="fill:#eee8d5;fill-opacity:1;stroke:#eee8d5;stroke-width:1.67900002;stroke-linecap:butt;stroke-linejoin:miter;stroke-miterlimit:4;stroke-dasharray:none;stroke-opacity:1"
               id="path226" /></g></g></g><g
         style="fill:#eee8d5;fill-opacity:1;stroke:#eee8d5;stroke-opacity:1"
         transform="matrix(13.341439,4.4570165,-4.4570165,13.341439,-625.1734,-595.85287)"
         id="g228"><g
           style="fill:#eee8d5;fill-opacity:1;stroke:#eee8d5;stroke-opacity:1"
           id="g230"><g
             style="fill:#eee8d5;fill-opacity:1;stroke:#eee8d5;stroke-opacity:1"
             id="g236"><g
               style="fill:#eee8d5;fill-opacity:1;stroke:#eee8d5;stroke-opacity:1"
               id="g238"><path
                 inkscape:connector-curvature="0"
                 d="m 177.292,93.146 c -10.024,-2.833 -17.756,-6.494 -17.279,-8.179 l 0,0 11.505,-40.693 c 0.477,-1.692 8.98,-0.754 19,2.079 l 0,0 c 10.033,2.836 17.771,6.49 17.29,8.184 l 0,0 -11.503,40.691 c -0.16,0.569 -1.235,0.841 -2.978,0.841 l 0,0 c -3.416,0 -9.39,-1.042 -16.035,-2.923"
                 style="fill:#eee8d5;fill-opacity:1;stroke:#eee8d5;stroke-opacity:1"
                 id="path254" /></g></g></g></g><g
         style="fill:#eee8d5;fill-opacity:1;stroke:#eee8d5;stroke-opacity:1"
         transform="matrix(13.341439,4.4570165,-4.4570165,13.341439,-625.1734,-595.85287)"
         id="g256"><g
           style="fill:#eee8d5;fill-opacity:1;stroke:#eee8d5;stroke-opacity:1"
           id="g258"
           clip-path="url(#clipPath260)"><g
             style="fill:#eee8d5;fill-opacity:1;stroke:#eee8d5;stroke-opacity:1"
             id="g264"
             transform="translate(163.7031,86.2715)"><path
               inkscape:connector-curvature="0"
               d="m 0,0 -7.439,33.473 c 0,0 -15.26,30.004 -6.364,33.92 7.681,3.379 23.86,2.447 24.426,1.052 L 29.02,5.836 c 0,0 -1.607,-1.345 -17.073,-7.205 0,0 -8.541,-2.033 -11.947,1.369"
               style="fill:#eee8d5;fill-opacity:1;fill-rule:nonzero;stroke:#eee8d5;stroke-opacity:1"
               id="path266" /></g><g
             style="fill:#eee8d5;fill-opacity:1;stroke:#eee8d5;stroke-opacity:1"
             id="g268"
             transform="translate(149.1504,153.1787)"><path
               inkscape:connector-curvature="0"
               d="m 0,0 0.876,0.067 c -2.812,-2.907 -3.023,-6 -3.001,-7.082 l 10.458,-36.722 7.862,-29.284 c 0.475,2.113 1.651,3.857 2.989,5.239 L 0,0 Z"
               style="fill:#eee8d5;fill-opacity:1;fill-rule:nonzero;stroke:#eee8d5;stroke-opacity:1"
               id="path270" /></g><g
             style="fill:#eee8d5;fill-opacity:1;stroke:#eee8d5;stroke-opacity:1"
             id="g272"
             transform="translate(146.9834,153.1787)"><path
               inkscape:connector-curvature="0"
               d="m 0,0 0.876,0.067 c -2.811,-2.907 -3.023,-6 -3.001,-7.082 l 10.458,-36.722 7.863,-29.284 c 0.474,2.113 1.65,3.857 2.988,5.239 L 0,0 Z"
               style="fill:#eee8d5;fill-opacity:1;fill-rule:nonzero;stroke:#eee8d5;stroke-opacity:1"
               id="path274" /></g><g
             style="fill:#eee8d5;fill-opacity:1;stroke:#eee8d5;stroke-opacity:1"
             id="g276"
             transform="translate(154.6504,154.1641)"><path
               inkscape:connector-curvature="0"
               d="M 0,0 C -2.323,-1.022 -4.447,-0.118 -5.625,-1.375 L 14.356,-71.16 c 2.567,2.689 5.017,0.543 5.017,0.543 2.273,0.861 6.301,0.254 8.134,0.542 L 3,12.375 C 1.292,12.28 1.843,0.811 0,0"
               style="fill:#eee8d5;fill-opacity:1;fill-rule:nonzero;stroke:#eee8d5;stroke-opacity:1"
               id="path278" /></g><g
             style="fill:#eee8d5;fill-opacity:1;stroke:#eee8d5;stroke-opacity:1"
             id="g280"
             transform="translate(189.0713,84.2246)"><path
               inkscape:connector-curvature="0"
               d="m 0,0 -21.921,75.563 c -1.772,0.689 -4.344,-5.557 -9.742,-5.868 L -10.952,-0.182 C -5.286,0.439 -1.897,0.448 0,0"
               style="fill:#eee8d5;fill-opacity:1;fill-rule:nonzero;stroke:#eee8d5;stroke-opacity:1"
               id="path282" /></g><g
             style="fill:#eee8d5;fill-opacity:1;stroke:#eee8d5;stroke-opacity:1"
             id="g284"
             transform="translate(189.0674,84.7061)"><path
               inkscape:connector-curvature="0"
               d="m 0,0 -21.921,75.563 c -1.773,0.688 -1.506,-6.039 -4.071,-6.182 L -5.281,-0.496 C -2.448,-0.042 -1.898,0.447 0,0"
               style="fill:#eee8d5;fill-opacity:1;fill-rule:nonzero;stroke:#eee8d5;stroke-opacity:1"
               id="path286" /></g><g
             style="fill:#eee8d5;fill-opacity:1;stroke:#eee8d5;stroke-opacity:1"
             id="g288"
             transform="translate(188.9844,87.5391)"><path
               inkscape:connector-curvature="0"
               d="m 0,0 -21.922,75.563 c -1.772,0.689 1.202,-6.247 -1.362,-6.39 L -2.573,-0.704 C 0.26,-0.251 -1.898,0.448 0,0"
               style="fill:#eee8d5;fill-opacity:1;fill-rule:nonzero;stroke:#eee8d5;stroke-opacity:1"
               id="path290" /></g><g
             style="fill:#eee8d5;fill-opacity:1;stroke:#eee8d5;stroke-opacity:1"
             id="g292"
             transform="translate(191.876,87.6035)"><path
               inkscape:connector-curvature="0"
               d="m 0,0 c 2.714,-1.544 2.024,1.686 2.024,1.686 l -19.75,69.125 c 0.71,7.516 -1.287,0.373 -2.5,-1.75 L 0,0 Z"
               style="fill:#eee8d5;fill-opacity:1;fill-rule:nonzero;stroke:#eee8d5;stroke-opacity:1"
               id="path294" /></g></g></g><g
         style="fill:#eee8d5;fill-opacity:1;stroke:#eee8d5;stroke-opacity:1"
         transform="matrix(13.341439,4.4570165,-4.4570165,13.341439,-625.1734,-595.85287)"
         id="g296"><g
           style="fill:#eee8d5;fill-opacity:1;stroke:#eee8d5;stroke-opacity:1"
           id="g298"
           clip-path="url(#clipPath300)"><g
             style="fill:#eee8d5;fill-opacity:1;stroke:#eee8d5;stroke-opacity:1"
             id="g304"
             transform="translate(170.877,43.7607)"><path
               inkscape:connector-curvature="0"
               d="m 0,0 -9.822,44.192 c 0,0 -1.186,9.16 10.56,14.33 10.141,4.463 21.268,0.755 22.016,-1.084 L 38.313,7.705 c 0,0 -2.123,-1.776 -22.541,-9.512 0,0 -11.276,-2.685 -15.772,1.807"
               style="fill:#eee8d5;fill-opacity:1;fill-rule:nonzero;stroke:#eee8d5;stroke-opacity:1"
               id="path306" /></g><g
             style="fill:#eee8d5;fill-opacity:1;stroke:#eee8d5;stroke-opacity:1"
             id="g308"
             transform="translate(162.4863,93.6797)"><path
               inkscape:connector-curvature="0"
               d="M 0,0 1.157,0.089 C -2.555,-3.75 -2.835,-7.833 -2.805,-9.261 L 0.18,-19.33 10.561,-57.99 c 0.625,2.789 2.177,5.093 3.944,6.916 L 0,0 Z"
               style="fill:#eee8d5;fill-opacity:1;fill-rule:nonzero;stroke:#eee8d5;stroke-opacity:1"
               id="path310" /></g><g
             style="fill:#eee8d5;fill-opacity:1;stroke:#eee8d5;stroke-opacity:1"
             id="g312"
             transform="translate(170.541,96.9014)"><path
               inkscape:connector-curvature="0"
               d="M 0,0 C -3.066,-1.35 -6.499,-2.277 -8.054,-3.938 L 7.338,-57.453 c 3.389,3.55 6.623,0.716 6.623,0.716 3.001,1.136 8.318,0.336 10.739,0.716 L 8.77,-0.179 C 6.515,-0.304 2.433,1.071 0,0"
               style="fill:#eee8d5;fill-opacity:1;fill-rule:nonzero;stroke:#eee8d5;stroke-opacity:1"
               id="path314" /></g><g
             style="fill:#eee8d5;fill-opacity:1;stroke:#eee8d5;stroke-opacity:1"
             id="g316"
             transform="translate(200.2021,40.8916)"><path
               inkscape:connector-curvature="0"
               d="m 0,0 -18.972,65.509 c -2.34,0.906 -5.735,-7.339 -9.122,-7.529 l 17.375,-58 C -6.979,0.579 -2.506,0.593 0,0"
               style="fill:#eee8d5;fill-opacity:1;fill-rule:nonzero;stroke:#eee8d5;stroke-opacity:1"
               id="path318" /></g><g
             style="fill:#eee8d5;fill-opacity:1;stroke:#eee8d5;stroke-opacity:1"
             id="g320"
             transform="translate(204.4004,41.5391)"><path
               inkscape:connector-curvature="0"
               d="m 0,0 -18.972,65.508 c -2.34,0.907 -3.766,-7.819 -7.153,-8.008 L -8.75,-0.5 C -5.01,0.099 -2.506,0.592 0,0"
               style="fill:#eee8d5;fill-opacity:1;fill-rule:nonzero;stroke:#eee8d5;stroke-opacity:1"
               id="path322" /></g><g
             style="fill:#eee8d5;fill-opacity:1;stroke:#eee8d5;stroke-opacity:1"
             id="g324"
             transform="translate(203.9844,43.2891)"><path
               inkscape:connector-curvature="0"
               d="m 0,0 -18.973,65.508 c -2.34,0.907 2.152,-8.069 -1.236,-8.258 l 17.375,-58 C 0.905,-0.151 -2.507,0.592 0,0"
               style="fill:#eee8d5;fill-opacity:1;fill-rule:nonzero;stroke:#eee8d5;stroke-opacity:1"
               id="path326" /></g><g
             style="fill:#eee8d5;fill-opacity:1;stroke:#eee8d5;stroke-opacity:1"
             id="g328"
             transform="translate(207.4121,45.3545)"><path
               inkscape:connector-curvature="0"
               d="m 0,0 c 3.583,-2.038 3.043,2.864 3.043,2.864 l -15.394,50.83 c 0.938,9.925 -1.809,2.918 -3.411,0.116 L 0,0 Z"
               style="fill:#eee8d5;fill-opacity:1;fill-rule:nonzero;stroke:#eee8d5;stroke-opacity:1"
               id="path330" /></g><g
             style="fill:#eee8d5;fill-opacity:1;stroke:#eee8d5;stroke-opacity:1"
             id="g332"
             transform="translate(160.1533,93.6797)"><path
               inkscape:connector-curvature="0"
               d="M 0,0 1.157,0.089 C -2.555,-3.75 -2.835,-7.833 -2.805,-9.261 L 0.179,-19.33 10.56,-57.99 c 0.625,2.789 2.178,5.093 3.945,6.916 L 0,0 Z"
               style="fill:#eee8d5;fill-opacity:1;fill-rule:nonzero;stroke:#eee8d5;stroke-opacity:1"
               id="path334" /></g></g></g><g
         style="fill:#eee8d5;fill-opacity:1;stroke:#eee8d5;stroke-opacity:1"
         transform="matrix(13.341439,4.4570165,-4.4570165,13.341439,-625.1734,-595.85287)"
         id="g336"><g
           style="fill:#eee8d5;fill-opacity:1;stroke:#eee8d5;stroke-opacity:1"
           id="g338"
           clip-path="url(#clipPath340)"><g
             style="fill:#eee8d5;fill-opacity:1;stroke:#eee8d5;stroke-opacity:1"
             id="g344"
             transform="translate(207.8096,54.5361)"><path
               inkscape:connector-curvature="0"
               d="m 0,0 c 0.479,-1.692 -7.26,-5.348 -17.29,-8.184 -10.022,-2.833 -18.524,-3.77 -19.002,-2.079 -0.475,1.675 7.257,5.343 17.278,8.175 C -8.981,0.75 -0.472,1.672 0,0"
               style="fill:#eee8d5;fill-opacity:1;fill-rule:nonzero;stroke:#eee8d5;stroke-opacity:1"
               id="path346" /></g><g
             style="fill:#eee8d5;fill-opacity:1;stroke:#eee8d5;stroke-opacity:1"
             id="g348"
             transform="translate(161.9687,75.4971)"><path
               inkscape:connector-curvature="0"
               d="m 0,0 c -0.207,0.729 0.097,1.973 5.099,4.342 3.381,1.6 7.998,3.262 12.998,4.674 9.408,2.663 17.222,3.859 19.251,2.609 0.542,-0.333 0.248,-1.527 0.334,-1.833 l -0.398,0.753 C 37.276,10.573 37.248,10.439 37.14,10.5 35.58,11.374 28.122,10.813 18.369,8.054 13.421,6.656 8.86,5.017 5.527,3.438 1.596,1.577 0.2,-0.521 0.265,-0.75 L 0,0 Z"
               style="fill:#eee8d5;fill-opacity:1;fill-rule:nonzero;stroke:#eee8d5;stroke-opacity:1"
               id="path350" /></g><g
             style="fill:#eee8d5;fill-opacity:1;stroke:#eee8d5;stroke-opacity:1"
             id="g352"
             transform="translate(162.7754,74.6641)"><path
               inkscape:connector-curvature="0"
               d="m 0,0 c -1.317,0.014 -1.009,1.542 4.209,4.05 3.373,1.621 7.998,3.262 12.998,4.674 9.408,2.661 17.434,3.707 19.511,2.545 0.338,-0.189 0.449,-0.686 -0.218,-1.019 l -0.105,0.002 c -0.009,0.029 -0.057,0.083 -0.166,0.144 -1.555,0.87 -8.996,0.125 -18.75,-2.634 C 12.531,6.364 7.97,4.725 4.637,3.146 0.706,1.285 0.007,0.21 0.072,-0.021 L 0,0 Z"
               style="fill:#eee8d5;fill-opacity:1;fill-rule:nonzero;stroke:#eee8d5;stroke-opacity:1"
               id="path354" /></g></g></g></g></g></svg>