<?xml version="1.0" encoding="UTF-8" standalone="no"?>
<!-- Created with Inkscape (http://www.inkscape.org/) -->

<svg
   xmlns:dc="http://purl.org/dc/elements/1.1/"
   xmlns:cc="http://creativecommons.org/ns#"
   xmlns:rdf="http://www.w3.org/1999/02/22-rdf-syntax-ns#"
   xmlns:svg="http://www.w3.org/2000/svg"
   xmlns="http://www.w3.org/2000/svg"
   xmlns:sodipodi="http://sodipodi.sourceforge.net/DTD/sodipodi-0.dtd"
   xmlns:inkscape="http://www.inkscape.org/namespaces/inkscape"
   width="79.375mm"
   height="11.92742mm"
   viewBox="0 0 79.375 11.92742"
   version="1.1"
   id="svg3478"
   inkscape:version=""
   sodipodi:docname="lexoffice.svg">
  <defs
     id="defs3472" />
  <sodipodi:namedview
     id="base"
     pagecolor="#ffffff"
     bordercolor="#666666"
     borderopacity="1.0"
     inkscape:pageopacity="0.0"
     inkscape:pageshadow="2"
     inkscape:zoom="1.4"
     inkscape:cx="74.144031"
     inkscape:cy="-123.03"
     inkscape:document-units="mm"
     inkscape:current-layer="layer1"
     showgrid="false"
     fit-margin-top="0"
     fit-margin-left="0"
     fit-margin-right="0"
     fit-margin-bottom="0"
     inkscape:window-width="3200"
     inkscape:window-height="1745"
     inkscape:window-x="0"
     inkscape:window-y="55"
     inkscape:window-maximized="1" />
  <metadata
     id="metadata3475">
    <rdf:RDF>
      <cc:Work
         rdf:about="">
        <dc:format>image/svg+xml</dc:format>
        <dc:type
           rdf:resource="http://purl.org/dc/dcmitype/StillImage" />
        <dc:title></dc:title>
      </cc:Work>
    </rdf:RDF>
  </metadata>
  <g
     inkscape:label="Layer 1"
     inkscape:groupmode="layer"
     id="layer1"
     transform="translate(-21.166668,-126.24811)">
    <g
       id="g4048"
       transform="translate(94.872024,66.52381)">
      <path
         style="fill:#ef7a05;stroke-width:0.26458332"
         d="m -65.900147,71.44099 c -1.573464,-0.383058 -2.544557,-1.087326 -3.05769,-2.217538 -1.094655,-2.411056 -0.314806,-5.006245 1.816823,-6.046034 1.690068,-0.824401 4.711753,-0.828354 6.306209,-0.0083 1.251294,0.643599 2.210445,2.280775 2.211096,3.774117 l 2.65e-4,0.908654 -3.969144,-0.0794 c -3.442788,-0.06887 -3.969018,-0.02502 -3.969018,0.330731 0,0.56678 0.906582,1.420297 1.727425,1.626317 0.965049,0.24221 2.565964,-0.06636 2.834585,-0.546359 0.160403,-0.286626 0.648882,-0.405241 1.668846,-0.405241 1.680218,0 1.833975,0.31927 0.684236,1.420789 -1.288576,1.234537 -4.040113,1.781103 -6.253633,1.242223 z m 4.372888,-5.824444 c -0.693802,-1.296376 -2.478895,-1.713799 -3.989153,-0.932815 -0.429336,0.222017 -0.78061,0.450405 -0.78061,0.507526 0,0.05712 -0.07227,0.29219 -0.1606,0.522372 -0.139941,0.364678 0.184597,0.418516 2.52285,0.418516 2.577923,0 2.672599,-0.02027 2.407513,-0.515599 z m 18.558243,5.694815 c -2.103694,-0.685785 -2.955634,-1.927651 -2.9541,-4.306181 0.0019,-2.999293 1.725856,-4.40169 5.423964,-4.412348 3.739856,-0.01078 5.422964,1.375116 5.422964,4.465354 0,1.983809 -0.676135,3.184091 -2.21963,3.940315 -1.321924,0.647669 -4.165161,0.804463 -5.673198,0.31286 z m 4.372345,-2.378184 c 0.616424,-0.530225 0.742358,-0.848299 0.742358,-1.874991 0,-1.636363 -0.923346,-2.513541 -2.645834,-2.513541 -1.730655,0 -2.601735,0.841552 -2.601735,2.513541 0,1.058984 0.121743,1.379093 0.72031,1.893957 1.004607,0.864129 2.76852,0.855289 3.784901,-0.01897 z m 25.877775,2.642325 c -0.145521,-0.05797 -0.589823,-0.17707 -0.987335,-0.264663 -1.149522,-0.253296 -2.540275,-1.65047 -2.873055,-2.886321 -0.447252,-1.660961 0.06899,-3.632313 1.214615,-4.638182 2.421824,-2.12639 7.5603627,-1.531435 8.865301,1.026453 l 0.5381043,1.054772 h -1.4144652 c -1.166667,0 -1.5233306,-0.115879 -2.0358735,-0.661458 -0.8038096,-0.855615 -2.5175736,-0.914334 -3.5263566,-0.120827 -0.843936,0.663839 -1.156115,2.079217 -0.700963,3.178056 0.419137,1.011888 0.979107,1.308396 2.470957,1.308396 1.011553,0 1.2832876,-0.120677 1.8221512,-0.809218 0.5820728,-0.743751 0.7446831,-0.802616 2.0099788,-0.727604 l 1.3766721,0.08161 -0.6017419,1.184571 c -0.7833175,1.542021 -1.8295329,2.121511 -4.0895532,2.265159 -0.992119,0.06306 -1.922915,0.06723 -2.068436,0.0093 z m 10.8865353,-0.179853 c -2.1526236,-0.505778 -3.3459103,-2.05269 -3.3459103,-4.337463 0,-2.570958 1.5870502,-4.146666 4.53588448,-4.50347 3.51400012,-0.425182 6.31203242,1.520132 6.31203242,4.388403 v 0.776526 H 1.7008958 c -3.7425445,0 -3.9687501,0.02907 -3.9687501,0.509963 0,1.416407 2.93948654,2.152068 4.3055303,1.077537 0.4726914,-0.371819 1.0733564,-0.529167 2.0200568,-0.529167 1.6044095,0 1.6885073,0.277204 0.4410234,1.453734 -1.3856203,1.306807 -3.81902507,1.754172 -6.3311169,1.163937 z m 4.5915899,-5.540113 c 0,-0.152135 -0.3065383,-0.583149 -0.6811989,-0.95781 -0.6006968,-0.600697 -0.8410284,-0.66584 -2.03370135,-0.551238 -1.28205185,0.12319 -2.31218325,0.813922 -2.31218325,1.550384 0,0.1294 1.1310938,0.235273 2.51354175,0.235273 1.57216215,0 2.51354175,-0.103598 2.51354175,-0.276609 z M -73.705356,65.602978 v -5.820833 h 1.322917 1.322916 v 5.820833 5.820833 h -1.322916 -1.322917 z m 15.345834,5.615773 c 0,-0.112781 0.893141,-1.09224 1.984758,-2.176571 l 1.984759,-1.971513 -2.044697,-2.056762 -2.044698,-2.05676 h 2.099305 c 2.064091,0 2.116132,0.01643 3.102647,0.979739 l 1.003343,0.979739 1.040963,-1.016474 c 1.013365,-0.989526 1.094031,-1.017251 3.042806,-1.045885 1.101016,-0.01617 2.001801,0.02748 2.001748,0.09703 -5.6e-5,0.06954 -0.893241,1.024848 -1.984859,2.122906 l -1.984759,1.996469 1.984759,1.971513 c 1.091618,1.084331 1.984758,2.06379 1.984758,2.176571 0,0.112784 -0.858697,0.20506 -1.908214,0.20506 -1.885868,0 -1.9215,-0.01304 -3.042709,-1.113422 l -1.134493,-1.113422 -1.134494,1.113422 c -1.121209,1.100383 -1.15684,1.113422 -3.042708,1.113422 -1.049518,0 -1.908215,-0.09228 -1.908215,-0.20506 z m 25.311807,0.02867 c -0.09702,-0.09701 -0.17639,-1.585293 -0.17639,-3.307291 v -3.130902 h -0.79375 c -0.727967,0 -0.79375,-0.07536 -0.79375,-0.909277 0,-0.832456 0.07265,-0.916284 0.859896,-0.992188 0.794869,-0.07664 0.871297,-0.168341 1.010674,-1.212646 0.08293,-0.621355 0.295119,-1.274077 0.471538,-1.450496 0.176418,-0.176419 1.209897,-0.36566 2.296617,-0.420537 l 1.975858,-0.09978 v 0.954961 c 0,0.937731 -0.0191,0.95496 -1.058333,0.95496 -0.941189,0 -1.058333,0.07039 -1.058333,0.635971 0,0.607907 0.07278,0.634175 1.649396,0.595313 l 1.6494,-0.04066 0.163954,-1.010155 c 0.251325,-1.548437 0.748221,-1.875488 3.024079,-1.990413 l 1.979838,-0.09998 v 0.954961 c 0,0.933357 -0.02331,0.95496 -1.030026,0.95496 -0.617104,0 -1.084596,0.142203 -1.166146,0.354722 -0.243199,0.633767 0.238406,1.015066 1.166977,0.92393 0.86541,-0.08494 0.896903,-0.05551 0.896903,0.838015 0,0.873336 -0.05743,0.933572 -1.009089,1.058333 l -1.009087,0.132292 -0.04925,3.175 -0.04924,3.174999 -1.389062,0.07997 -1.389063,0.07997 v -3.321118 -3.321119 h -1.719792 -1.719791 v 3.307292 3.307291 h -1.278819 c -0.703352,0 -1.358196,-0.07937 -1.455208,-0.17639 z m 12.426744,-0.03088 c -0.07045,-0.113995 -0.107247,-2.045874 -0.08176,-4.293068 l 0.04634,-4.085801 1.322916,0.02135 1.322917,0.02135 0.0727,4.271716 0.0727,4.271716 h -1.313855 c -0.722622,0 -1.371499,-0.09327 -1.441952,-0.207267 z m -0.05905,-9.680759 c -0.08279,-0.215731 -0.111337,-0.668787 -0.06345,-1.006793 0.07688,-0.542636 0.251597,-0.623982 1.492961,-0.695113 l 1.405893,-0.08056 -0.08298,1.006597 c -0.08243,1.000029 -0.09119,1.007126 -1.342446,1.087352 -0.923742,0.05923 -1.299591,-0.02381 -1.409985,-0.311488 z"
         id="path4052"
         inkscape:connector-curvature="0" />
      <path
         style="fill:#555452;stroke-width:0.26458332"
         d="m -42.969016,71.311361 c -2.103694,-0.685785 -2.955634,-1.927651 -2.9541,-4.306181 0.0019,-2.999293 1.725856,-4.40169 5.423964,-4.412348 3.739856,-0.01078 5.422964,1.375116 5.422964,4.465354 0,1.983809 -0.676135,3.184091 -2.21963,3.940315 -1.321924,0.647669 -4.165161,0.804463 -5.673198,0.31286 z m 4.372345,-2.378184 c 0.616424,-0.530225 0.742358,-0.848299 0.742358,-1.874991 0,-1.636363 -0.923346,-2.513541 -2.645834,-2.513541 -1.730655,0 -2.601735,0.841552 -2.601735,2.513541 0,1.058984 0.121743,1.379093 0.72031,1.893957 1.004607,0.864129 2.76852,0.855289 3.784901,-0.01897 z m 25.877775,2.642325 c -0.145521,-0.05797 -0.589823,-0.17707 -0.987335,-0.264663 -1.149522,-0.253296 -2.540275,-1.65047 -2.873055,-2.886321 -0.447252,-1.660961 0.06899,-3.632313 1.214615,-4.638182 2.421824,-2.12639 7.5603627,-1.531435 8.865301,1.026453 l 0.5381043,1.054772 h -1.4144652 c -1.166667,0 -1.5233306,-0.115879 -2.0358735,-0.661458 -0.8038096,-0.855615 -2.5175736,-0.914334 -3.5263566,-0.120827 -0.843936,0.663839 -1.156115,2.079217 -0.700963,3.178056 0.419137,1.011888 0.979107,1.308396 2.470957,1.308396 1.011553,0 1.2832876,-0.120677 1.8221512,-0.809218 0.5820728,-0.743751 0.7446831,-0.802616 2.0099788,-0.727604 l 1.3766721,0.08161 -0.6017419,1.184571 c -0.7833175,1.542021 -1.8295329,2.121511 -4.0895532,2.265159 -0.992119,0.06306 -1.922915,0.06723 -2.068436,0.0093 z m 10.8865353,-0.179853 c -2.1526236,-0.505778 -3.3459103,-2.05269 -3.3459103,-4.337463 0,-2.570958 1.5870502,-4.146666 4.53588448,-4.50347 3.51400012,-0.425182 6.31203242,1.520132 6.31203242,4.388403 v 0.776526 H 1.7008958 c -3.7425445,0 -3.9687501,0.02907 -3.9687501,0.509963 0,1.416407 2.93948654,2.152068 4.3055303,1.077537 0.4726914,-0.371819 1.0733564,-0.529167 2.0200568,-0.529167 1.6044095,0 1.6885073,0.277204 0.4410234,1.453734 -1.3856203,1.306807 -3.81902507,1.754172 -6.3311169,1.163937 z m 4.5915899,-5.540113 c 0,-0.152135 -0.3065383,-0.583149 -0.6811989,-0.95781 -0.6006968,-0.600697 -0.8410284,-0.66584 -2.03370135,-0.551238 -1.28205185,0.12319 -2.31218325,0.813922 -2.31218325,1.550384 0,0.1294 1.1310938,0.235273 2.51354175,0.235273 1.57216215,0 2.51354175,-0.103598 2.51354175,-0.276609 z m -53.9220392,4.431615 -1.11555,-1.136661 0.928169,-0.899618 c 0.510492,-0.494789 0.928169,-1.020069 0.928169,-1.167286 0,-0.147219 -0.41701,-0.694729 -0.926687,-1.216686 l -0.92669,-0.949015 1.041609,-1.017104 c 1.014111,-0.990253 1.094457,-1.017881 3.043454,-1.046517 1.101016,-0.01617 2.001801,0.0331 2.001748,0.109503 -5.6e-5,0.0764 -0.893241,1.026094 -1.984859,2.110425 l -1.984759,1.971514 1.984759,1.996469 c 1.091618,1.098058 1.984758,2.083131 1.984758,2.189051 0,0.105923 -0.86818,0.192585 -1.929286,0.192585 -1.923492,0 -1.932638,-0.0034 -3.044835,-1.13666 z m 18.115095,0.96027 c -0.09702,-0.09701 -0.17639,-1.585293 -0.17639,-3.307291 v -3.130902 h -0.79375 c -0.727967,0 -0.79375,-0.07536 -0.79375,-0.909277 0,-0.832456 0.07265,-0.916284 0.859896,-0.992188 0.794869,-0.07664 0.871297,-0.168341 1.010674,-1.212646 0.08293,-0.621355 0.295119,-1.274077 0.471538,-1.450496 0.176418,-0.176419 1.209897,-0.36566 2.296617,-0.420537 l 1.975858,-0.09978 v 0.954961 c 0,0.937731 -0.0191,0.95496 -1.058333,0.95496 -0.941189,0 -1.058333,0.07039 -1.058333,0.635971 0,0.607907 0.07278,0.634175 1.649396,0.595313 l 1.6494,-0.04066 0.163954,-1.010155 c 0.251325,-1.548437 0.748221,-1.875488 3.024079,-1.990413 l 1.979838,-0.09998 v 0.954961 c 0,0.933357 -0.02331,0.95496 -1.030026,0.95496 -0.617104,0 -1.084596,0.142203 -1.166146,0.354722 -0.243199,0.633767 0.238406,1.015066 1.166977,0.92393 0.86541,-0.08494 0.896903,-0.05551 0.896903,0.838015 0,0.873336 -0.05743,0.933572 -1.009089,1.058333 l -1.009087,0.132292 -0.04925,3.175 -0.04924,3.174999 -1.389062,0.07997 -1.389063,0.07997 v -3.321118 -3.321119 h -1.719792 -1.719791 v 3.307292 3.307291 h -1.278819 c -0.703352,0 -1.358196,-0.07937 -1.455208,-0.17639 z m 12.426744,-0.03088 c -0.07045,-0.113995 -0.107247,-2.045874 -0.08176,-4.293068 l 0.04634,-4.085801 1.322916,0.02135 1.322917,0.02135 0.0727,4.271716 0.0727,4.271716 h -1.313855 c -0.722622,0 -1.371499,-0.09327 -1.441952,-0.207267 z m -0.05905,-9.680759 c -0.08279,-0.215731 -0.111337,-0.668787 -0.06345,-1.006793 0.07688,-0.542636 0.251597,-0.623982 1.492961,-0.695113 l 1.405893,-0.08056 -0.08298,1.006597 c -0.08243,1.000029 -0.09119,1.007126 -1.342446,1.087352 -0.923742,0.05923 -1.299591,-0.02381 -1.409985,-0.311488 z"
         id="path4050"
         inkscape:connector-curvature="0" />
    </g>
  </g>
</svg>
