<?xml version="1.0" encoding="UTF-8" standalone="no"?>
<svg
   xmlns:dc="http://purl.org/dc/elements/1.1/"
   xmlns:cc="http://creativecommons.org/ns#"
   xmlns:rdf="http://www.w3.org/1999/02/22-rdf-syntax-ns#"
   xmlns:svg="http://www.w3.org/2000/svg"
   xmlns="http://www.w3.org/2000/svg"
   xmlns:sodipodi="http://sodipodi.sourceforge.net/DTD/sodipodi-0.dtd"
   xmlns:inkscape="http://www.inkscape.org/namespaces/inkscape"
   version="1.1"
   width="832.26251"
   height="509.41608"
   viewBox="0 0 832.2625 509.41607"
   id="svg2"
   inkscape:version="0.91 r13725"
   sodipodi:docname="planet_javascript.svg">
  <sodipodi:namedview
     pagecolor="#ffffff"
     bordercolor="#666666"
     borderopacity="1"
     objecttolerance="10"
     gridtolerance="10"
     guidetolerance="10"
     inkscape:pageopacity="0"
     inkscape:pageshadow="2"
     inkscape:window-width="1366"
     inkscape:window-height="741"
     id="namedview7982"
     showgrid="false"
     showguides="false"
     inkscape:zoom="0.98936803"
     inkscape:cx="369.43745"
     inkscape:cy="298.57161"
     inkscape:window-x="0"
     inkscape:window-y="27"
     inkscape:window-maximized="1"
     inkscape:current-layer="g8619"
     fit-margin-top="0"
     fit-margin-left="0"
     fit-margin-right="0"
     fit-margin-bottom="0">
    <sodipodi:guide
       position="-2150.7819,1750.6124"
       orientation="-0.70710678,0.70710678"
       id="guide8526" />
  </sodipodi:namedview>
  <title
     id="title4">Slice 1</title>
  <metadata
     id="metadata30">
    <rdf:RDF>
      <cc:Work
         rdf:about="">
        <dc:format>image/svg+xml</dc:format>
        <dc:type
           rdf:resource="http://purl.org/dc/dcmitype/StillImage" />
        <dc:title>Slice 1</dc:title>
      </cc:Work>
    </rdf:RDF>
  </metadata>
  <defs
     id="defs8">
    <filter
       inkscape:collect="always"
       style="color-interpolation-filters:sRGB"
       id="filter5154"
       x="-0.10883961"
       width="1.2176792"
       y="-0.095969185"
       height="1.1919384">
      <feGaussianBlur
         inkscape:collect="always"
         stdDeviation="13.489309"
         id="feGaussianBlur5156" />
    </filter>
  </defs>
  <path
     style="opacity:1;fill:none;fill-opacity:0.32352941;stroke:#eee8d5;stroke-width:6;stroke-linecap:round;stroke-linejoin:round;stroke-miterlimit:4;stroke-dasharray:none;stroke-dashoffset:4.29550028;stroke-opacity:1"
     d="M 823.43635,89.353937 A 185.97731,416.42746 65.425503 0 1 522.07195,431.66785 185.97731,416.42746 65.425503 0 1 66.020454,435.71833 185.97731,416.42746 65.425503 0 1 367.38495,93.404407 a 185.97731,416.42746 65.425503 0 1 456.0514,-4.05047 z"
     id="path8631"
     inkscape:connector-curvature="0" />
  <circle
     r="254.70804"
     cy="254.70804"
     cx="434.70691"
     id="circle8592"
     style="opacity:1;fill:#d39800;fill-opacity:1;stroke:none;stroke-width:70.8259964;stroke-linecap:round;stroke-linejoin:round;stroke-miterlimit:4;stroke-dasharray:none;stroke-dashoffset:4.29550028;stroke-opacity:1" />
  <path
     style="opacity:1;fill:#bc0002;fill-opacity:0.32352941;stroke:none;stroke-width:70.8259964;stroke-linecap:round;stroke-linejoin:round;stroke-miterlimit:4;stroke-dasharray:none;stroke-dashoffset:4.29550028;stroke-opacity:1"
     d="m 461.00725,46.494597 a 84.902687,34.365372 0 0 0 -84.9024,34.36524 84.902687,34.365372 0 0 0 84.9024,34.365233 84.902687,34.365372 0 0 0 84.9043,-34.365233 84.902687,34.365372 0 0 0 -84.9043,-34.36524 z m -127.3535,72.484383 a 60.644779,24.546694 0 0 0 -60.6446,24.54687 60.644779,24.546694 0 0 0 60.6446,24.54688 60.644779,24.546694 0 0 0 60.6445,-24.54688 60.644779,24.546694 0 0 0 -60.6445,-24.54687 z m 181.9335,22.52539 a 84.902687,34.365372 0 0 0 -84.9023,34.36523 84.902687,34.365372 0 0 0 84.9023,34.36524 84.902687,34.365372 0 0 0 84.9043,-34.36524 84.902687,34.365372 0 0 0 -84.9043,-34.36523 z m 116.6524,92.98828 a 86.717651,26.279402 0 0 0 -86.7168,26.27929 86.717651,26.279402 0 0 0 86.7168,26.2793 86.717651,26.279402 0 0 0 55.8105,-6.16797 254.70804,254.70804 0 0 0 1.3868,-26.17578 254.70804,254.70804 0 0 0 -0.4883,-13.77539 86.717651,26.279402 0 0 0 -56.709,-6.43945 z m -414.4063,4.04297 a 70.157684,38.408356 0 0 0 -37.3007,5.93359 254.70804,254.70804 0 0 0 -0.5118,10.23828 254.70804,254.70804 0 0 0 6.7012,56.64063 70.157684,38.408356 0 0 0 31.1113,4.0039 70.157684,38.408356 0 0 0 70.1582,-38.4082 70.157684,38.408356 0 0 0 -70.1582,-38.4082 z m 226.4082,12.1289 a 57.503017,34.365372 0 0 0 -57.5039,34.36524 57.503017,34.365372 0 0 0 57.5039,34.36523 57.503017,34.365372 0 0 0 57.502,-34.36523 57.503017,34.365372 0 0 0 -57.502,-34.36524 z m 134.4297,131.39844 a 89.749886,26.279402 0 0 0 -89.75,26.2793 89.749886,26.279402 0 0 0 89.75,26.27929 89.749886,26.279402 0 0 0 38.5293,-2.58007 254.70804,254.70804 0 0 0 31.7285,-40.00782 89.749886,26.279402 0 0 0 -70.2578,-9.9707 z m -261.7832,2.02148 a 57.503017,54.580296 0 0 0 -57.5039,54.58008 57.503017,54.580296 0 0 0 0.02,0.38868 254.70804,254.70804 0 0 0 77.4335,50.72851 57.503017,54.580296 0 0 0 37.5528,-51.11719 57.503017,54.580296 0 0 0 -57.502,-54.58008 z m 179.9121,68.73047 a 57.503017,34.365372 0 0 0 -57.5039,34.36524 57.503017,34.365372 0 0 0 12.8594,21.61914 254.70804,254.70804 0 0 0 100.8965,-28.69336 57.503017,34.365372 0 0 0 -56.252,-27.29102 z"
     id="path8524"
     inkscape:connector-curvature="0" />
  <g
     id="g8619"
     transform="matrix(1.3765568,0,0,1.3765568,-1736.2552,-696.22612)">
    <g
       transform="matrix(0.76181611,0,0,0.76181611,1467.645,522.46839)"
       id="g8528"
       style="fill:#000000;fill-opacity:0.43137255;stroke:none;filter:url(#filter5154)">
      <path
         d="M 27.142,386.29 0.071,82.67 l 297.45,0 -27.096,303.571 -121.811,33.77 L 27.142,386.29 Z m 0,0"
         id="path8530"
         style="fill:#000000;fill-opacity:0.43137255"
         inkscape:connector-curvature="0" />
    </g>
    <g
       style="fill:none;stroke:none"
       id="Layer_1"
       transform="matrix(0.73075195,0,0,0.73075195,1461.4873,508.71598)">
      <path
         inkscape:connector-curvature="0"
         style="fill:#d4b830;fill-opacity:1"
         id="path13"
         d="M 27.142,386.29 0.071,82.67 l 297.45,0 -27.096,303.571 -121.811,33.77 L 27.142,386.29 Z m 0,0" />
      <path
         inkscape:connector-curvature="0"
         style="fill:#fdd83c;fill-opacity:1"
         id="path15"
         d="m 148.798,394.199 98.427,-27.288 23.157,-259.415 -121.584,0 0,286.703 z m 0,0" />
      <g
         id="Group"
         transform="translate(55,142)">
        <path
           inkscape:connector-curvature="0"
           style="fill:#4d4d4d;fill-opacity:1"
           id="path18"
           d="m 195.55107,75.496002 -52.47907,0 0,-38.132 55.79667,0 3.30333,-37.23899948 -98.0332,0 0,112.60699748 50.7682,0 -4.484,48.294 -46.284,8.426 0,38.819 81.091,-18.451 z" />
        <path
           inkscape:connector-curvature="0"
           style="fill:#000000;fill-opacity:1"
           id="path24"
           d="m 83.795999,0.12500252 -83.15099941,0 3.45300001,37.25399948 42.3189994,3.4e-4 0,126.706188 -20.741,-3.03453 -2.652,-29.698 c 0,0 -24.9193323,0 -37.378999,0 l 5.2159997,58.467 c 92.9349993,18.45053 0.3522911,-0.0135 92.9349993,18.45053 z" />
      </g>
    </g>
  </g>
  <circle
     style="opacity:1;fill:#7f7f7f;fill-opacity:1;stroke:none;stroke-width:70.8259964;stroke-linecap:round;stroke-linejoin:round;stroke-miterlimit:4;stroke-dasharray:none;stroke-dashoffset:4.29550028;stroke-opacity:1"
     id="path8629"
     cx="64.687759"
     cy="416.16953"
     r="64.687759" />
  <path
     id="path8634"
     d="m 823.43635,89.353937 c 20.5128,44.856483 0.2859,106.121783 -56.2309,170.318083 -56.5168,64.19629 -144.6939,126.06505 -245.1335,171.99583 -100.4396,45.93077 -204.9142,72.16114 -290.4404,72.92076 -85.5262,0.75962 -145.098396,-24.01381 -165.611096,-68.87028"
     style="opacity:1;fill:none;fill-opacity:0.32352941;stroke:#eee8d5;stroke-width:6;stroke-linecap:round;stroke-linejoin:round;stroke-miterlimit:4;stroke-dasharray:none;stroke-dashoffset:4.29550028;stroke-opacity:1"
     inkscape:connector-curvature="0"
     sodipodi:nodetypes="csssc" />
  <circle
     style="opacity:1;fill:none;fill-opacity:1;stroke:#626262;stroke-width:6;stroke-linecap:round;stroke-linejoin:round;stroke-miterlimit:4;stroke-dasharray:none;stroke-dashoffset:4.29550028;stroke-opacity:1"
     id="path4160"
     cx="27.15881"
     cy="399.35144"
     r="14.29411" />
  <circle
     style="opacity:1;fill:none;fill-opacity:1;stroke:#626262;stroke-width:6;stroke-linecap:round;stroke-linejoin:round;stroke-miterlimit:4;stroke-dasharray:none;stroke-dashoffset:4.29550028;stroke-opacity:1"
     id="path4162"
     cx="62.894085"
     cy="416.50436"
     r="11.435288" />
  <circle
     style="opacity:1;fill:none;fill-opacity:1;stroke:#626262;stroke-width:6;stroke-linecap:round;stroke-linejoin:round;stroke-miterlimit:4;stroke-dasharray:none;stroke-dashoffset:4.29550028;stroke-opacity:1"
     id="path4164"
     cx="92.91172"
     cy="435.0867"
     r="10.005877" />
  <circle
     style="opacity:1;fill:none;fill-opacity:1;stroke:#626262;stroke-width:6;stroke-linecap:round;stroke-linejoin:round;stroke-miterlimit:4;stroke-dasharray:none;stroke-dashoffset:4.29550028;stroke-opacity:1"
     id="path4166"
     cx="40.02351"
     cy="445.09259"
     r="12.864699" />
  <ellipse
     style="opacity:1;fill:none;fill-opacity:1;stroke:#626262;stroke-width:6;stroke-linecap:round;stroke-linejoin:round;stroke-miterlimit:4;stroke-dasharray:none;stroke-dashoffset:4.29550028;stroke-opacity:1"
     id="path4168"
     cx="55.747028"
     cy="380.76907"
     r="8.5764666" />
  <circle
     style="opacity:1;fill:none;fill-opacity:1;stroke:#626262;stroke-width:6;stroke-linecap:round;stroke-linejoin:round;stroke-miterlimit:4;stroke-dasharray:none;stroke-dashoffset:4.29550028;stroke-opacity:1"
     id="path4170"
     cx="98.629364"
     cy="395.06317"
     r="10.005877" />
</svg>
