<?xml version="1.0" encoding="UTF-8" standalone="no"?>
<!-- Created with Inkscape (http://www.inkscape.org/) -->

<svg
   xmlns:dc="http://purl.org/dc/elements/1.1/"
   xmlns:cc="http://creativecommons.org/ns#"
   xmlns:rdf="http://www.w3.org/1999/02/22-rdf-syntax-ns#"
   xmlns:svg="http://www.w3.org/2000/svg"
   xmlns="http://www.w3.org/2000/svg"
   xmlns:sodipodi="http://sodipodi.sourceforge.net/DTD/sodipodi-0.dtd"
   xmlns:inkscape="http://www.inkscape.org/namespaces/inkscape"
   width="72.216873mm"
   height="17.768129mm"
   viewBox="0 0 72.216873 17.768129"
   version="1.1"
   id="svg1473"
   inkscape:version=""
   sodipodi:docname="sat1_text.svg">
  <defs
     id="defs1467" />
  <sodipodi:namedview
     id="base"
     pagecolor="#ffffff"
     bordercolor="#666666"
     borderopacity="1.0"
     inkscape:pageopacity="0.0"
     inkscape:pageshadow="2"
     inkscape:zoom="3.959798"
     inkscape:cx="178.77712"
     inkscape:cy="28.667213"
     inkscape:document-units="mm"
     inkscape:current-layer="layer1"
     showgrid="false"
     fit-margin-top="0"
     fit-margin-left="0"
     fit-margin-right="0"
     fit-margin-bottom="0"
     inkscape:window-width="3200"
     inkscape:window-height="1745"
     inkscape:window-x="0"
     inkscape:window-y="55"
     inkscape:window-maximized="1" />
  <metadata
     id="metadata1470">
    <rdf:RDF>
      <cc:Work
         rdf:about="">
        <dc:format>image/svg+xml</dc:format>
        <dc:type
           rdf:resource="http://purl.org/dc/dcmitype/StillImage" />
        <dc:title></dc:title>
      </cc:Work>
    </rdf:RDF>
  </metadata>
  <g
     inkscape:label="Layer 1"
     inkscape:groupmode="layer"
     id="layer1"
     transform="translate(-33.304858,-183.18326)">
    <path
       style="fill:#000000;stroke-width:0.26458332"
       d="m 33.55507,198.96702 v -1.98438 h 6.614583 6.614583 v -1.5875 -1.5875 h -5.517122 c -5.307509,0 -5.55128,-0.023 -6.416146,-0.60447 -1.167737,-0.78515 -1.527106,-1.89237 -1.545548,-4.76184 -0.01685,-2.62183 0.342336,-3.77694 1.443894,-4.64343 0.707678,-0.55666 0.942915,-0.57359 7.969562,-0.57359 h 7.24036 v 1.84729 1.8473 l -6.283854,0.0709 -6.283854,0.0709 v 1.45521 1.4552 l 5.423958,0.14386 c 7.687388,0.20388 7.761213,0.25203 7.892349,5.14728 0.07035,2.62598 0.0032,3.41519 -0.348302,4.09496 -0.767893,1.48494 -1.419874,1.59411 -9.519924,1.59411 H 33.55507 Z m 20.952307,1.44843 c -1.491581,-0.9094 -1.637724,-1.65128 -1.637724,-8.31374 0,-6.6039 0.187697,-7.61155 1.569907,-8.42804 0.667025,-0.39403 1.675532,-0.44936 8.189887,-0.44936 h 7.429188 l 0.0706,6.81302 0.0706,6.81302 0.85989,0.0829 0.8599,0.0829 v 1.96761 1.96761 h -2.91042 -2.910415 v -7.01146 -7.01145 h -3.819234 c -2.10058,0 -4.127397,0.11716 -4.504039,0.26036 l -0.684806,0.26036 0.07227,4.70058 0.07227,4.70057 3.505729,0.0738 3.505729,0.0738 v 1.9767 1.97669 l -4.431771,-0.001 c -3.978327,-7.9e-4 -4.521381,-0.0556 -5.307588,-0.53495 z m 23.700518,-6.40937 -0.0705,-6.94531 -3.10886,-0.0746 -3.10885,-0.0745 v -1.84368 -1.84369 h 8.33437 8.33438 v 1.84369 1.84368 l -3.10886,0.0745 -3.10885,0.0746 -0.0705,6.94531 -0.0705,6.94531 h -1.97559 -1.97559 z m 23.345085,-0.0662 v -7.01145 h -2.381245 -2.38125 v -1.87259 -1.87258 l 3.594235,0.0867 3.59424,0.0866 0.77139,0.86407 0.77138,0.86407 v 7.93333 7.93332 h -1.98437 -1.98438 z"
       id="path2040"
       inkscape:connector-curvature="0"
       sodipodi:nodetypes="ccccccscscsccccccccccscccscscccccccccccsccccccccccccccccccccccccccccccccccccccccccc" />
  </g>
</svg>
