<?xml version="1.0" encoding="UTF-8" standalone="no"?>
<!-- Created with Inkscape (http://www.inkscape.org/) -->

<svg
   xmlns:dc="http://purl.org/dc/elements/1.1/"
   xmlns:cc="http://creativecommons.org/ns#"
   xmlns:rdf="http://www.w3.org/1999/02/22-rdf-syntax-ns#"
   xmlns:svg="http://www.w3.org/2000/svg"
   xmlns="http://www.w3.org/2000/svg"
   xmlns:sodipodi="http://sodipodi.sourceforge.net/DTD/sodipodi-0.dtd"
   xmlns:inkscape="http://www.inkscape.org/namespaces/inkscape"
   width="66.111359mm"
   height="66.190483mm"
   viewBox="0 0 66.111359 66.190483"
   version="1.1"
   id="svg872"
   sodipodi:docname="sat1.svg"
   inkscape:version="">
  <defs
     id="defs866" />
  <sodipodi:namedview
     id="base"
     pagecolor="#ffffff"
     bordercolor="#666666"
     borderopacity="1.0"
     inkscape:pageopacity="0.0"
     inkscape:pageshadow="2"
     inkscape:zoom="0.98994949"
     inkscape:cx="-169.42109"
     inkscape:cy="-72.22585"
     inkscape:document-units="mm"
     inkscape:current-layer="layer1"
     showgrid="false"
     inkscape:window-width="3200"
     inkscape:window-height="1745"
     inkscape:window-x="0"
     inkscape:window-y="55"
     inkscape:window-maximized="1"
     fit-margin-top="0"
     fit-margin-left="0"
     fit-margin-right="0"
     fit-margin-bottom="0" />
  <metadata
     id="metadata869">
    <rdf:RDF>
      <cc:Work
         rdf:about="">
        <dc:format>image/svg+xml</dc:format>
        <dc:type
           rdf:resource="http://purl.org/dc/dcmitype/StillImage" />
        <dc:title></dc:title>
      </cc:Work>
    </rdf:RDF>
  </metadata>
  <g
     inkscape:label="Layer 1"
     inkscape:groupmode="layer"
     id="layer1"
     transform="translate(-69.400659,-167.56846)">
    <g
       id="g2102"
       transform="translate(42.078978,27.667105)">
      <path
         style="fill:#fee102;stroke-width:0.26458335"
         d="m 54.909003,205.68766 c -1.19386,-0.20043 -2.975347,-0.63479 -3.95886,-0.96526 -1.636156,-0.54975 -1.839752,-0.70208 -2.394419,-1.79146 -0.99436,-1.95296 -1.456658,-4.76595 -1.478412,-8.99584 -0.01085,-2.11005 0.07147,-4.52556 0.182948,-5.3678 l 0.202678,-1.53134 1.678359,3.38343 c 3.592668,7.2425 7.94333,12.5039 12.303986,14.87963 l 1.455209,0.79281 -2.910417,-0.0199 c -1.600729,-0.0109 -3.887211,-0.18386 -5.081072,-0.38429 z m 13.415447,-1.66412 c -2.187673,-0.70121 -5.696487,-2.61304 -8.05379,-4.38821 -3.650006,-2.74865 -8.756699,-7.93623 -11.542332,-11.72514 l -0.830872,-1.13012 2.209851,1.34936 c 8.879013,5.42165 19.415531,8.25755 27.597978,7.428 2.538817,-0.25739 5.983134,-1.02819 7.883229,-1.76418 0.887023,-0.34358 0.450127,0.32287 -1.507599,2.29973 -3.395784,3.42897 -7.37321,6.11742 -11.278566,7.62349 -2.394218,0.9233 -2.526956,0.93241 -4.477899,0.30707 z m -26.374849,-3.44877 c -1.282844,-0.85932 -3.26896,-2.4369 -4.413591,-3.50573 l -2.081147,-1.94331 2.644186,-1.78608 c 1.454303,-0.98234 4.027929,-2.85634 5.719169,-4.16443 1.69124,-1.30809 3.074981,-2.32958 3.074981,-2.26998 0,0.0596 -0.407094,1.52273 -0.904653,3.25138 -1.256779,4.3664 -1.897688,8.69483 -1.561815,10.54786 0.142828,0.78799 0.168703,1.43271 0.0575,1.43271 -0.111203,0 -1.251787,-0.70309 -2.53463,-1.56242 z m 25.845683,-9.20053 c -4.176319,-0.42807 -9.834476,-1.6028 -13.890626,-2.88391 -2.720204,-0.85916 -5.745157,-1.99514 -5.627115,-2.11318 0.05047,-0.0505 1.753939,-0.34512 3.785482,-0.65478 7.425871,-1.13187 15.108937,-2.88726 21.023926,-4.80344 10.018109,-3.24539 16.234908,-6.89858 19.497517,-11.45735 l 0.567753,-0.79331 0.188513,0.7511 c 0.103685,0.41311 0.122957,2.55604 0.04283,4.76206 -0.15325,4.21922 -0.62684,6.76413 -1.932184,10.38292 -0.624086,1.73014 -0.784852,1.94001 -2.093743,2.73328 -3.352861,2.03205 -7.565464,3.42514 -12.030414,3.9784 -2.091515,0.25917 -7.425481,0.31413 -9.53194,0.0982 z m -35.871103,-1.43956 c -1.423734,-2.25514 -3.146541,-6.58328 -3.931735,-9.87753 -0.184755,-0.77514 -0.176469,-0.77203 1.089061,0.40824 3.056143,2.85025 8.721975,4.86514 15.959609,5.67556 l 1.719792,0.19257 -1.984375,0.91224 c -4.865295,2.23665 -8.468634,3.49227 -10.624399,3.70218 l -1.496273,0.14569 z m 11.529435,-5.1323 c -5.925769,-2.13172 -11.916717,-5.7282 -14.211374,-8.53136 -2.010553,-2.4561 -2.022236,-2.49172 -1.83685,-5.60129 0.244182,-4.09578 1.556243,-8.97258 3.314884,-12.32109 l 0.694798,-1.32291 0.06165,1.4552 c 0.347431,8.20131 4.708122,16.65724 12.859906,24.93698 1.253629,1.27331 2.133347,2.30916 1.954928,2.3019 -0.178418,-0.007 -1.455491,-0.42011 -2.837939,-0.91743 z m 5.060832,0.46762 c 1.742531,-2.2219 25.881767,-28.57363 30.95466,-33.79183 l 3.078139,-3.16631 1.528458,1.57881 c 2.985426,3.08377 5.536428,6.97826 6.989395,10.67037 l 0.558287,1.41865 -0.665517,1.13562 c -3.094985,5.2812 -13.23897,11.52195 -28.718837,17.66832 -5.418973,2.15163 -13.227169,4.94939 -13.813142,4.94939 -0.155966,0 -0.117712,-0.20001 0.08856,-0.46302 z m -0.98058,-3.77031 c 0.501295,-12.11306 1.736349,-20.35246 4.136673,-27.59691 1.878717,-5.67018 4.989956,-10.82676 7.870496,-13.04457 l 1.242788,-0.95686 2.38125,0.16388 c 2.69,0.18513 5.678149,0.84304 8.598959,1.89328 2.290683,0.82366 5.029682,2.15304 5.021434,2.43717 -0.0031,0.10705 -0.479708,0.53002 -1.059111,0.93995 -1.339789,0.9479 -4.775615,4.92498 -7.927687,9.17655 -3.3093,4.46365 -11.228123,16.43932 -16.008278,24.20938 -2.148592,3.4925 -4.023467,6.46906 -4.166388,6.61458 -0.17016,0.17326 -0.201274,-1.15099 -0.09014,-3.83645 z m -2.264961,1.65234 c -4.757656,-6.72142 -7.935801,-13.5982 -9.24395,-20.00179 -0.663978,-3.25027 -0.732943,-8.14703 -0.153331,-10.88701 0.382873,-1.80995 0.439947,-1.89724 2.508602,-3.83646 2.403046,-2.2527 5.676194,-4.39672 8.700166,-5.69891 2.028767,-0.87363 6.468901,-2.2713 6.654681,-2.09477 0.05225,0.0496 -0.418982,0.63865 -1.04718,1.30889 -6.919103,7.38215 -9.247783,22.112 -6.287939,39.7738 0.300369,1.79234 0.495125,3.3098 0.432792,3.37213 -0.06233,0.0623 -0.766062,-0.80881 -1.563841,-1.93588 z"
         id="path2122"
         inkscape:connector-curvature="0" />
      <path
         style="fill:#feb101;stroke-width:0.26458335"
         d="m 57.344242,205.92964 c -2.327643,-0.28448 -4.441131,-0.69608 -6.188924,-1.2053 -1.947463,-0.56739 -1.958282,-0.57564 -2.603367,-1.98469 -0.356277,-0.77821 -0.811561,-2.33345 -1.011742,-3.45609 -0.379337,-2.12737 -0.499621,-8.17089 -0.21053,-10.57778 l 0.167296,-1.39287 1.659956,3.3139 c 3.580014,7.14706 8.143525,12.65308 12.142429,14.65023 0.662342,0.33079 1.204257,0.65261 1.204257,0.71516 0,0.13073 -3.971986,0.0826 -5.159375,-0.0626 z m 10.980208,-1.9061 c -2.187673,-0.70121 -5.696487,-2.61304 -8.05379,-4.38821 -3.650006,-2.74865 -8.756699,-7.93623 -11.542332,-11.72514 l -0.830872,-1.13012 2.209851,1.34936 c 8.879013,5.42165 19.415531,8.25755 27.597978,7.428 2.538817,-0.25739 5.983134,-1.02819 7.883229,-1.76418 0.887023,-0.34358 0.450127,0.32287 -1.507599,2.29973 -3.395784,3.42897 -7.37321,6.11742 -11.278566,7.62349 -2.394218,0.9233 -2.526956,0.93241 -4.477899,0.30707 z m -0.529166,-12.6493 c -4.176319,-0.42807 -9.834476,-1.6028 -13.890626,-2.88391 -2.720204,-0.85916 -5.745157,-1.99514 -5.627115,-2.11318 0.05047,-0.0505 1.753939,-0.34512 3.785482,-0.65478 7.425871,-1.13187 15.108937,-2.88726 21.023926,-4.80344 10.018109,-3.24539 16.234908,-6.89858 19.497517,-11.45735 l 0.567753,-0.79331 0.188513,0.7511 c 0.103685,0.41311 0.122957,2.55604 0.04283,4.76206 -0.15325,4.21922 -0.62684,6.76413 -1.932184,10.38292 -0.624086,1.73014 -0.784852,1.94001 -2.093743,2.73328 -3.352861,2.03205 -7.565464,3.42514 -12.030414,3.9784 -2.091515,0.25917 -7.425481,0.31413 -9.53194,0.0982 z m -35.871103,-1.43956 c -1.423734,-2.25514 -3.146541,-6.58328 -3.931735,-9.87753 -0.184755,-0.77514 -0.176469,-0.77203 1.089061,0.40824 3.056143,2.85025 8.721975,4.86514 15.959609,5.67556 l 1.719792,0.19257 -1.984375,0.91224 c -4.865295,2.23665 -8.468634,3.49227 -10.624399,3.70218 l -1.496273,0.14569 z m 11.529435,-5.1323 c -5.925769,-2.13172 -11.916717,-5.7282 -14.211374,-8.53136 -2.010553,-2.4561 -2.022236,-2.49172 -1.83685,-5.60129 0.244182,-4.09578 1.556243,-8.97258 3.314884,-12.32109 l 0.694798,-1.32291 0.06165,1.4552 c 0.347431,8.20131 4.708122,16.65724 12.859906,24.93698 1.253629,1.27331 2.133347,2.30916 1.954928,2.3019 -0.178418,-0.007 -1.455491,-0.42011 -2.837939,-0.91743 z m 5.060832,0.46762 c 1.742531,-2.2219 25.881767,-28.57363 30.95466,-33.79183 l 3.078139,-3.16631 1.528458,1.57881 c 2.985426,3.08377 5.536428,6.97826 6.989395,10.67037 l 0.558287,1.41865 -0.665517,1.13562 c -3.094985,5.2812 -13.23897,11.52195 -28.718837,17.66832 -5.418973,2.15163 -13.227169,4.94939 -13.813142,4.94939 -0.155966,0 -0.117712,-0.20001 0.08856,-0.46302 z m -0.98058,-3.77031 c 0.501295,-12.11306 1.736349,-20.35246 4.136673,-27.59691 1.878717,-5.67018 4.989956,-10.82676 7.870496,-13.04457 l 1.242788,-0.95686 2.38125,0.16388 c 2.69,0.18513 5.678149,0.84304 8.598959,1.89328 2.290683,0.82366 5.029682,2.15304 5.021434,2.43717 -0.0031,0.10705 -0.479708,0.53002 -1.059111,0.93995 -1.339789,0.9479 -4.775615,4.92498 -7.927687,9.17655 -3.3093,4.46365 -11.228123,16.43932 -16.008278,24.20938 -2.148592,3.4925 -4.023467,6.46906 -4.166388,6.61458 -0.17016,0.17326 -0.201274,-1.15099 -0.09014,-3.83645 z m -2.264961,1.65234 c -4.757656,-6.72142 -7.935801,-13.5982 -9.24395,-20.00179 -0.663978,-3.25027 -0.732943,-8.14703 -0.153331,-10.88701 0.382873,-1.80995 0.439947,-1.89724 2.508602,-3.83646 2.403046,-2.2527 5.676194,-4.39672 8.700166,-5.69891 2.028767,-0.87363 6.468901,-2.2713 6.654681,-2.09477 0.05225,0.0496 -0.418982,0.63865 -1.04718,1.30889 -6.919103,7.38215 -9.247783,22.112 -6.287939,39.7738 0.300369,1.79234 0.495125,3.3098 0.432792,3.37213 -0.06233,0.0623 -0.766062,-0.80881 -1.563841,-1.93588 z"
         id="path2120"
         inkscape:connector-curvature="0" />
      <path
         style="fill:#c04f9c;stroke-width:0.26458335"
         d="m 69.56628,204.34916 c -0.06521,-0.0652 -0.4606,-0.1805 -0.878639,-0.25618 -1.203671,-0.21792 -6.448451,-2.84841 -6.669093,-3.34486 -0.04851,-0.10914 -0.20584,-0.19843 -0.349628,-0.19843 -0.143788,0 -0.427392,-0.14883 -0.630227,-0.33073 -0.202838,-0.1819 -0.521756,-0.45156 -0.708708,-0.59924 -0.186949,-0.14768 -0.935223,-0.74119 -1.662827,-1.31891 -1.572424,-1.24851 -6.178038,-5.84005 -7.672917,-7.64948 -0.582083,-0.70456 -1.177396,-1.4148 -1.322916,-1.57831 -0.774949,-0.87075 -1.756037,-2.36049 -1.284823,-1.95094 0.293007,0.25466 0.606693,0.46302 0.69708,0.46302 0.09039,0 0.676324,0.34232 1.302083,0.7607 1.564378,1.04595 8.822884,4.53097 9.436982,4.53097 0.154971,0 0.672758,0.16431 1.150638,0.36513 0.958916,0.40298 2.533801,0.91831 3.370972,1.10307 0.297336,0.0656 0.8085,0.18876 1.135922,0.27365 1.256877,0.32587 3.033869,0.66557 4.431771,0.8472 2.277137,0.29587 8.966979,0.18255 10.645747,-0.18031 0.834691,-0.18043 1.549066,-0.31408 1.5875,-0.29702 0.03843,0.0171 0.888711,-0.27718 1.889506,-0.65388 1.000794,-0.3767 1.859907,-0.64463 1.909138,-0.59539 0.203245,0.20324 -2.261121,2.88433 -3.861057,4.20061 -0.945885,0.77818 -1.854814,1.53492 -2.01984,1.68164 -0.907245,0.80659 -5.085744,3.13546 -7.372869,4.10924 -1.209569,0.51499 -2.893806,0.84843 -3.123795,0.61845 z m -1.770996,-12.97492 c -4.176319,-0.42807 -9.834476,-1.6028 -13.890626,-2.88391 -2.720204,-0.85916 -5.745157,-1.99514 -5.627115,-2.11318 0.05047,-0.0505 1.753939,-0.34512 3.785482,-0.65478 7.425871,-1.13187 15.108937,-2.88726 21.023926,-4.80344 10.018109,-3.24539 16.234908,-6.89858 19.497517,-11.45735 l 0.567753,-0.79331 0.188513,0.7511 c 0.103685,0.41311 0.122957,2.55604 0.04283,4.76206 -0.15325,4.21922 -0.62684,6.76413 -1.932184,10.38292 -0.624086,1.73014 -0.784852,1.94001 -2.093743,2.73328 -3.352861,2.03205 -7.565464,3.42514 -12.030414,3.9784 -2.091515,0.25917 -7.425481,0.31413 -9.53194,0.0982 z m -35.871103,-1.43956 c -1.423734,-2.25514 -3.146541,-6.58328 -3.931735,-9.87753 -0.184755,-0.77514 -0.176469,-0.77203 1.089061,0.40824 3.056143,2.85025 8.721975,4.86514 15.959609,5.67556 l 1.719792,0.19257 -1.984375,0.91224 c -4.865295,2.23665 -8.468634,3.49227 -10.624399,3.70218 l -1.496273,0.14569 z m 11.529435,-5.1323 c -5.925769,-2.13172 -11.916717,-5.7282 -14.211374,-8.53136 -2.010553,-2.4561 -2.022236,-2.49172 -1.83685,-5.60129 0.244182,-4.09578 1.556243,-8.97258 3.314884,-12.32109 l 0.694798,-1.32291 0.06165,1.4552 c 0.347431,8.20131 4.708122,16.65724 12.859906,24.93698 1.253629,1.27331 2.133347,2.30916 1.954928,2.3019 -0.178418,-0.007 -1.455491,-0.42011 -2.837939,-0.91743 z m 5.060832,0.46762 c 1.742531,-2.2219 25.881767,-28.57363 30.95466,-33.79183 l 3.078139,-3.16631 1.528458,1.57881 c 2.985426,3.08377 5.536428,6.97826 6.989395,10.67037 l 0.558287,1.41865 -0.665517,1.13562 c -3.094985,5.2812 -13.23897,11.52195 -28.718837,17.66832 -5.418973,2.15163 -13.227169,4.94939 -13.813142,4.94939 -0.155966,0 -0.117712,-0.20001 0.08856,-0.46302 z m -0.98058,-3.77031 c 0.501295,-12.11306 1.736349,-20.35246 4.136673,-27.59691 1.878717,-5.67018 4.989956,-10.82676 7.870496,-13.04457 l 1.242788,-0.95686 2.38125,0.16388 c 2.69,0.18513 5.678149,0.84304 8.598959,1.89328 2.290683,0.82366 5.029682,2.15304 5.021434,2.43717 -0.0031,0.10705 -0.479708,0.53002 -1.059111,0.93995 -1.339789,0.9479 -4.775615,4.92498 -7.927687,9.17655 -3.3093,4.46365 -11.228123,16.43932 -16.008278,24.20938 -2.148592,3.4925 -4.023467,6.46906 -4.166388,6.61458 -0.17016,0.17326 -0.201274,-1.15099 -0.09014,-3.83645 z m -2.264961,1.65234 c -4.757656,-6.72142 -7.935801,-13.5982 -9.24395,-20.00179 -0.663978,-3.25027 -0.732943,-8.14703 -0.153331,-10.88701 0.382873,-1.80995 0.439947,-1.89724 2.508602,-3.83646 2.403046,-2.2527 5.676194,-4.39672 8.700166,-5.69891 2.028767,-0.87363 6.468901,-2.2713 6.654681,-2.09477 0.05225,0.0496 -0.418982,0.63865 -1.04718,1.30889 -6.919103,7.38215 -9.247783,22.112 -6.287939,39.7738 0.300369,1.79234 0.495125,3.3098 0.432792,3.37213 -0.06233,0.0623 -0.766062,-0.80881 -1.563841,-1.93588 z"
         id="path2118"
         inkscape:connector-curvature="0" />
      <path
         style="fill:#a2d314;stroke-width:0.26458335"
         d="m 68.721325,204.01936 c -2.400236,-0.69759 -3.961177,-1.46882 -6.736281,-3.32828 -4.584523,-3.07187 -9.176222,-7.56073 -13.509167,-13.20663 -0.216784,-0.28247 0.416512,-0.006 1.465145,0.63927 2.825559,1.7391 8.398418,4.32338 11.627674,5.39206 4.906756,1.62383 7.858858,2.11277 12.841171,2.12681 4.623634,0.013 6.71426,-0.2706 9.864694,-1.33833 l 1.794902,-0.60831 -0.523497,0.73518 c -1.539828,2.16249 -6.041853,5.77822 -9.548599,7.6688 -1.61241,0.8693 -5.382673,2.47673 -5.628436,2.39966 -0.03306,-0.0104 -0.774481,-0.22647 -1.647606,-0.48023 z m -0.45281,-12.73696 c -3.549762,-0.31406 -7.931164,-1.13195 -11.850315,-2.21212 -3.799015,-1.04706 -8.258229,-2.62627 -7.672917,-2.71732 13.534975,-2.10547 21.19371,-3.93051 28.761654,-6.85376 7.108537,-2.7458 11.986655,-5.83203 14.501723,-9.17477 l 1.142111,-1.51796 0.188473,2.01129 c 0.216062,2.30568 -0.0058,5.65464 -0.572867,8.64827 -0.541055,2.85619 -1.869893,6.56416 -2.564871,7.15698 -0.832713,0.71031 -4.328211,2.42556 -6.298039,3.09047 -4.104172,1.38534 -10.479324,2.02507 -15.634952,1.56892 z m -36.344334,-1.34772 c -1.423734,-2.25514 -3.146541,-6.58328 -3.931735,-9.87753 -0.184755,-0.77514 -0.176469,-0.77203 1.089061,0.40824 3.056143,2.85025 8.721975,4.86514 15.959609,5.67556 l 1.719792,0.19257 -1.984375,0.91224 c -4.865295,2.23665 -8.468634,3.49227 -10.624399,3.70218 l -1.496273,0.14569 z m 11.76975,-5.0937 c -7.397841,-2.58479 -13.556499,-6.63981 -15.738058,-10.36236 -0.682949,-1.16536 -0.710729,-1.34686 -0.558832,-3.65107 0.276798,-4.1989 1.266951,-8.03554 3.049824,-11.81745 l 0.935476,-1.98437 0.183699,2.64583 c 0.101034,1.45521 0.386575,3.41974 0.634536,4.36562 1.564405,5.96768 5.87796,12.97052 11.694709,18.98577 1.441346,1.49054 2.55669,2.70887 2.478542,2.7074 -0.07815,-0.002 -1.2841,-0.40168 -2.679896,-0.88937 z m 10.562181,-5.8129 c 10.180985,-11.26384 20.570664,-22.52587 24.529001,-26.58854 l 3.780835,-3.88048 0.976434,0.92604 c 2.617272,2.4822 6.35989,8.13847 7.389723,11.16819 l 0.501835,1.47637 -0.866098,1.3497 c -3.067788,4.78073 -12.025617,10.39088 -25.682859,16.08477 -4.050033,1.68851 -12.174028,4.71445 -15.113648,5.62936 l -1.513767,0.47114 z m -8.987205,4.12395 c -4.757656,-6.72142 -7.935801,-13.5982 -9.24395,-20.00179 -0.663978,-3.25027 -0.732943,-8.14703 -0.153331,-10.88701 0.382873,-1.80995 0.439947,-1.89724 2.508602,-3.83646 2.403046,-2.2527 5.676194,-4.39672 8.700166,-5.69891 2.028767,-0.87363 6.468901,-2.2713 6.654681,-2.09477 0.05225,0.0496 -0.418982,0.63865 -1.04718,1.30889 -6.919103,7.38215 -9.247783,22.112 -6.287939,39.7738 0.300369,1.79234 0.495125,3.3098 0.432792,3.37213 -0.06233,0.0623 -0.766062,-0.80881 -1.563841,-1.93588 z m 2.507218,-3.23985 c 0.566962,-18.68198 4.60054,-32.36519 11.347074,-38.49295 l 1.660626,-1.50832 1.852083,0.16846 c 4.340289,0.39477 8.067573,1.37299 11.781836,3.09211 l 2.256838,1.04456 -2.658005,2.70067 c -5.036492,5.11735 -13.394875,17.07833 -23.149833,33.12777 -1.503626,2.47385 -2.849364,4.61698 -2.99053,4.7625 -0.165941,0.17106 -0.20132,-1.55912 -0.100089,-4.8948 z"
         id="path2116"
         inkscape:connector-curvature="0" />
      <path
         style="fill:#1996bc;stroke-width:0.26458335"
         d="m 68.721325,204.01936 c -2.400236,-0.69759 -3.961177,-1.46882 -6.736281,-3.32828 -4.584523,-3.07187 -9.176222,-7.56073 -13.509167,-13.20663 -0.216784,-0.28247 0.416512,-0.006 1.465145,0.63927 2.825559,1.7391 8.398418,4.32338 11.627674,5.39206 4.906756,1.62383 7.858858,2.11277 12.841171,2.12681 4.623634,0.013 6.71426,-0.2706 9.864694,-1.33833 l 1.794902,-0.60831 -0.523497,0.73518 c -1.539828,2.16249 -6.041853,5.77822 -9.548599,7.6688 -1.61241,0.8693 -5.382673,2.47673 -5.628436,2.39966 -0.03306,-0.0104 -0.774481,-0.22647 -1.647606,-0.48023 z m -0.45281,-12.73696 c -3.549762,-0.31406 -7.931164,-1.13195 -11.850315,-2.21212 -3.799015,-1.04706 -8.258229,-2.62627 -7.672917,-2.71732 13.534975,-2.10547 21.19371,-3.93051 28.761654,-6.85376 7.108537,-2.7458 11.986655,-5.83203 14.501723,-9.17477 l 1.142111,-1.51796 0.188473,2.01129 c 0.216062,2.30568 -0.0058,5.65464 -0.572867,8.64827 -0.541055,2.85619 -1.869893,6.56416 -2.564871,7.15698 -0.832713,0.71031 -4.328211,2.42556 -6.298039,3.09047 -4.104172,1.38534 -10.479324,2.02507 -15.634952,1.56892 z m -22.830524,-5.85644 c -2.357389,-0.78788 -6.046248,-2.26257 -7.672917,-3.06738 -4.265719,-2.11051 -8.367597,-5.42005 -9.847481,-7.94528 -0.643927,-1.09878 -0.667908,-1.27976 -0.497477,-3.7543 0.09849,-1.42993 0.472062,-3.80993 0.830172,-5.28888 0.608298,-2.5122 2.59748,-7.81096 3.033419,-8.08038 0.107139,-0.0662 0.256693,1.09745 0.332342,2.58592 0.366725,7.21571 4.802074,15.48237 12.631317,23.54241 1.236927,1.27338 2.189427,2.30578 2.116667,2.29421 -0.07276,-0.0116 -0.489479,-0.14042 -0.926042,-0.28632 z m 8.818121,-6.39788 c 10.180985,-11.26384 20.570664,-22.52587 24.529001,-26.58854 l 3.780835,-3.88048 0.976434,0.92604 c 2.617272,2.4822 6.35989,8.13847 7.389723,11.16819 l 0.501835,1.47637 -0.866098,1.3497 c -3.067788,4.78073 -12.025617,10.39088 -25.682859,16.08477 -4.050033,1.68851 -12.174028,4.71445 -15.113648,5.62936 l -1.513767,0.47114 z m -8.987205,4.12395 c -4.757656,-6.72142 -7.935801,-13.5982 -9.24395,-20.00179 -0.663978,-3.25027 -0.732943,-8.14703 -0.153331,-10.88701 0.382873,-1.80995 0.439947,-1.89724 2.508602,-3.83646 2.403046,-2.2527 5.676194,-4.39672 8.700166,-5.69891 2.028767,-0.87363 6.468901,-2.2713 6.654681,-2.09477 0.05225,0.0496 -0.418982,0.63865 -1.04718,1.30889 -6.919103,7.38215 -9.247783,22.112 -6.287939,39.7738 0.300369,1.79234 0.495125,3.3098 0.432792,3.37213 -0.06233,0.0623 -0.766062,-0.80881 -1.563841,-1.93588 z m 2.507218,-3.23985 c 0.566962,-18.68198 4.60054,-32.36519 11.347074,-38.49295 l 1.660626,-1.50832 1.852083,0.16846 c 4.340289,0.39477 8.067573,1.37299 11.781836,3.09211 l 2.256838,1.04456 -2.658005,2.70067 c -5.036492,5.11735 -13.394875,17.07833 -23.149833,33.12777 -1.503626,2.47385 -2.849364,4.61698 -2.99053,4.7625 -0.165941,0.17106 -0.20132,-1.55912 -0.100089,-4.8948 z"
         id="path2114"
         inkscape:connector-curvature="0" />
      <path
         style="fill:#fe5d00;stroke-width:0.26458335"
         d="m 68.721325,204.01936 c -2.400236,-0.69759 -3.961177,-1.46882 -6.736281,-3.32828 -4.584523,-3.07187 -9.176222,-7.56073 -13.509167,-13.20663 -0.216784,-0.28247 0.416512,-0.006 1.465145,0.63927 2.825559,1.7391 8.398418,4.32338 11.627674,5.39206 4.906756,1.62383 7.858858,2.11277 12.841171,2.12681 4.623634,0.013 6.71426,-0.2706 9.864694,-1.33833 l 1.794902,-0.60831 -0.523497,0.73518 c -1.539828,2.16249 -6.041853,5.77822 -9.548599,7.6688 -1.61241,0.8693 -5.382673,2.47673 -5.628436,2.39966 -0.03306,-0.0104 -0.774481,-0.22647 -1.647606,-0.48023 z m -0.45281,-12.73696 c -3.549762,-0.31406 -7.931164,-1.13195 -11.850315,-2.21212 -3.799015,-1.04706 -8.258229,-2.62627 -7.672917,-2.71732 13.534975,-2.10547 21.19371,-3.93051 28.761654,-6.85376 7.108537,-2.7458 11.986655,-5.83203 14.501723,-9.17477 l 1.142111,-1.51796 0.188473,2.01129 c 0.216062,2.30568 -0.0058,5.65464 -0.572867,8.64827 -0.541055,2.85619 -1.869893,6.56416 -2.564871,7.15698 -0.832713,0.71031 -4.328211,2.42556 -6.298039,3.09047 -4.104172,1.38534 -10.479324,2.02507 -15.634952,1.56892 z m -22.830524,-5.85644 c -2.357389,-0.78788 -6.046248,-2.26257 -7.672917,-3.06738 -4.265719,-2.11051 -8.367597,-5.42005 -9.847481,-7.94528 -0.643927,-1.09878 -0.667908,-1.27976 -0.497477,-3.7543 0.09849,-1.42993 0.472062,-3.80993 0.830172,-5.28888 0.608298,-2.5122 2.59748,-7.81096 3.033419,-8.08038 0.107139,-0.0662 0.256693,1.09745 0.332342,2.58592 0.366725,7.21571 4.802074,15.48237 12.631317,23.54241 1.236927,1.27338 2.189427,2.30578 2.116667,2.29421 -0.07276,-0.0116 -0.489479,-0.14042 -0.926042,-0.28632 z m 8.818121,-6.39788 c 10.180985,-11.26384 20.570664,-22.52587 24.529001,-26.58854 l 3.780835,-3.88048 0.976434,0.92604 c 2.617272,2.4822 6.35989,8.13847 7.389723,11.16819 l 0.501835,1.47637 -0.866098,1.3497 c -3.067788,4.78073 -12.025617,10.39088 -25.682859,16.08477 -4.050033,1.68851 -12.174028,4.71445 -15.113648,5.62936 l -1.513767,0.47114 z m -6.479987,0.8841 c 0.566962,-18.68198 4.60054,-32.36519 11.347074,-38.49295 l 1.660626,-1.50832 1.852083,0.16846 c 4.340289,0.39477 8.067573,1.37299 11.781836,3.09211 l 2.256838,1.04456 -2.658005,2.70067 c -5.036492,5.11735 -13.394875,17.07833 -23.149833,33.12777 -1.503626,2.47385 -2.849364,4.61698 -2.99053,4.7625 -0.165941,0.17106 -0.20132,-1.55912 -0.100089,-4.8948 z"
         id="path2112"
         inkscape:connector-curvature="0" />
      <path
         style="fill:#b90d7d;stroke-width:0.26458335"
         d="m 68.268515,191.2824 c -3.549762,-0.31406 -7.931164,-1.13195 -11.850315,-2.21212 -3.799015,-1.04706 -8.258229,-2.62627 -7.672917,-2.71732 13.534975,-2.10547 21.19371,-3.93051 28.761654,-6.85376 7.108537,-2.7458 11.986655,-5.83203 14.501723,-9.17477 l 1.142111,-1.51796 0.188473,2.01129 c 0.216062,2.30568 -0.0058,5.65464 -0.572867,8.64827 -0.541055,2.85619 -1.869893,6.56416 -2.564871,7.15698 -0.832713,0.71031 -4.328211,2.42556 -6.298039,3.09047 -4.104172,1.38534 -10.479324,2.02507 -15.634952,1.56892 z m -22.830524,-5.85644 c -2.357389,-0.78788 -6.046248,-2.26257 -7.672917,-3.06738 -4.265719,-2.11051 -8.367597,-5.42005 -9.847481,-7.94528 -0.643927,-1.09878 -0.667908,-1.27976 -0.497477,-3.7543 0.09849,-1.42993 0.472062,-3.80993 0.830172,-5.28888 0.608298,-2.5122 2.59748,-7.81096 3.033419,-8.08038 0.107139,-0.0662 0.256693,1.09745 0.332342,2.58592 0.366725,7.21571 4.802074,15.48237 12.631317,23.54241 1.236927,1.27338 2.189427,2.30578 2.116667,2.29421 -0.07276,-0.0116 -0.489479,-0.14042 -0.926042,-0.28632 z m 8.818121,-6.39788 c 10.180985,-11.26384 20.570664,-22.52587 24.529001,-26.58854 l 3.780835,-3.88048 0.976434,0.92604 c 2.617272,2.4822 6.35989,8.13847 7.389723,11.16819 l 0.501835,1.47637 -0.866098,1.3497 c -3.067788,4.78073 -12.025617,10.39088 -25.682859,16.08477 -4.050033,1.68851 -12.174028,4.71445 -15.113648,5.62936 l -1.513767,0.47114 z m -6.479987,0.8841 c 0.566962,-18.68198 4.60054,-32.36519 11.347074,-38.49295 l 1.660626,-1.50832 1.852083,0.16846 c 4.340289,0.39477 8.067573,1.37299 11.781836,3.09211 l 2.256838,1.04456 -2.658005,2.70067 c -5.036492,5.11735 -13.394875,17.07833 -23.149833,33.12777 -1.503626,2.47385 -2.849364,4.61698 -2.99053,4.7625 -0.165941,0.17106 -0.20132,-1.55912 -0.100089,-4.8948 z"
         id="path2110"
         inkscape:connector-curvature="0" />
      <path
         style="fill:#622c91;stroke-width:0.26458335"
         d="m 68.268515,191.2824 c -3.549762,-0.31406 -7.931164,-1.13195 -11.850315,-2.21212 -3.799015,-1.04706 -8.258229,-2.62627 -7.672917,-2.71732 13.534975,-2.10547 21.19371,-3.93051 28.761654,-6.85376 7.108537,-2.7458 11.986655,-5.83203 14.501723,-9.17477 l 1.142111,-1.51796 0.188473,2.01129 c 0.216062,2.30568 -0.0058,5.65464 -0.572867,8.64827 -0.541055,2.85619 -1.869893,6.56416 -2.564871,7.15698 -0.832713,0.71031 -4.328211,2.42556 -6.298039,3.09047 -4.104172,1.38534 -10.479324,2.02507 -15.634952,1.56892 z m -22.830524,-5.85644 c -2.357389,-0.78788 -6.046248,-2.26257 -7.672917,-3.06738 -4.265719,-2.11051 -8.367597,-5.42005 -9.847481,-7.94528 -0.643927,-1.09878 -0.667908,-1.27976 -0.497477,-3.7543 0.09849,-1.42993 0.472062,-3.80993 0.830172,-5.28888 0.608298,-2.5122 2.59748,-7.81096 3.033419,-8.08038 0.107139,-0.0662 0.256693,1.09745 0.332342,2.58592 0.366725,7.21571 4.802074,15.48237 12.631317,23.54241 1.236927,1.27338 2.189427,2.30578 2.116667,2.29421 -0.07276,-0.0116 -0.489479,-0.14042 -0.926042,-0.28632 z m 2.338134,-5.51378 c 0.566962,-18.68198 4.60054,-32.36519 11.347074,-38.49295 l 1.660626,-1.50832 1.852083,0.16846 c 4.340289,0.39477 8.067573,1.37299 11.781836,3.09211 l 2.256838,1.04456 -2.658005,2.70067 c -5.036492,5.11735 -13.394875,17.07833 -23.149833,33.12777 -1.503626,2.47385 -2.849364,4.61698 -2.99053,4.7625 -0.165941,0.17106 -0.20132,-1.55912 -0.100089,-4.8948 z"
         id="path2108"
         inkscape:connector-curvature="0" />
      <path
         style="fill:#f10028;stroke-width:0.26458335"
         d="m 68.268515,191.2824 c -3.549762,-0.31406 -7.931164,-1.13195 -11.850315,-2.21212 -3.799015,-1.04706 -8.258229,-2.62627 -7.672917,-2.71732 13.534975,-2.10547 21.19371,-3.93051 28.761654,-6.85376 7.108537,-2.7458 11.986655,-5.83203 14.501723,-9.17477 l 1.142111,-1.51796 0.188473,2.01129 c 0.216062,2.30568 -0.0058,5.65464 -0.572867,8.64827 -0.541055,2.85619 -1.869893,6.56416 -2.564871,7.15698 -0.832713,0.71031 -4.328211,2.42556 -6.298039,3.09047 -4.104172,1.38534 -10.479324,2.02507 -15.634952,1.56892 z m -22.830524,-5.85644 c -2.357389,-0.78788 -6.046248,-2.26257 -7.672917,-3.06738 -4.265719,-2.11051 -8.367597,-5.42005 -9.847481,-7.94528 -0.643927,-1.09878 -0.667908,-1.27976 -0.497477,-3.7543 0.09849,-1.42993 0.472062,-3.80993 0.830172,-5.28888 0.608298,-2.5122 2.59748,-7.81096 3.033419,-8.08038 0.107139,-0.0662 0.256693,1.09745 0.332342,2.58592 0.366725,7.21571 4.802074,15.48237 12.631317,23.54241 1.236927,1.27338 2.189427,2.30578 2.116667,2.29421 -0.07276,-0.0116 -0.489479,-0.14042 -0.926042,-0.28632 z"
         id="path2106"
         inkscape:connector-curvature="0" />
      <path
         style="fill:#329036;stroke-width:0.26458335"
         d="m 45.437991,185.42596 c -2.357389,-0.78788 -6.046248,-2.26257 -7.672917,-3.06738 -4.265719,-2.11051 -8.367597,-5.42005 -9.847481,-7.94528 -0.643927,-1.09878 -0.667908,-1.27976 -0.497477,-3.7543 0.09849,-1.42993 0.472062,-3.80993 0.830172,-5.28888 0.608298,-2.5122 2.59748,-7.81096 3.033419,-8.08038 0.107139,-0.0662 0.256693,1.09745 0.332342,2.58592 0.366725,7.21571 4.802074,15.48237 12.631317,23.54241 1.236927,1.27338 2.189427,2.30578 2.116667,2.29421 -0.07276,-0.0116 -0.489479,-0.14042 -0.926042,-0.28632 z"
         id="path2104"
         inkscape:connector-curvature="0" />
    </g>
  </g>
</svg>
